<svg width="70" height="115" viewBox="0 0 70 115" version="1.1" xmlns="http://www.w3.org/2000/svg"><title>Page 1</title><g id="Page-1" stroke="none" stroke-width="1" fill="none" fill-rule="evenodd" stroke-linecap="round" stroke-linejoin="round"><g id="Desktop_Cycle-My-Cell" transform="translate(-657 -4244)" stroke="#35353B" stroke-width="2.5"><g id="Group-46" transform="translate(353 3957)"><g id="Group-39"><g id="Page-1" transform="translate(306 289)"><path d="M51.608 47.72a29.221 29.221 0 0 1 3.644-.222c6.202 0 11.23 1.846 11.23 4.122s-5.028 4.12-11.23 4.12c-1.27 0-2.491-.076-3.63-.22" id="Stroke-1"/><path d="M66.482 51.62v49.37c0 2.276-5.027 4.12-11.23 4.12-1.27 0-2.492-.077-3.63-.22" id="Stroke-3"/><path d="M37.541 12.37a29.945 29.945 0 0 1 2.832-.132c6.202 0 11.23 1.846 11.23 4.122s-5.028 4.12-11.23 4.12c-.976 0-1.924-.046-2.827-.131" id="Stroke-5"/><path d="M51.602 16.36v88.937c0 2.277-5.027 4.121-11.23 4.121-1.334 0-2.615-.085-3.802-.243" id="Stroke-7"/><path d="M15.032 36.174c-1.137.142-2.356.22-3.624.22-6.202 0-11.23-1.845-11.23-4.121 0-2.276 5.028-4.121 11.23-4.121 1.263 0 2.477.077 3.61.217" id="Stroke-9"/><path d="M15.04 107.044a29.32 29.32 0 0 1-3.632.22c-6.202 0-11.23-1.845-11.23-4.121v-70.87" id="Stroke-11"/><path d="M15.058 4.3c0-2.275 5.027-4.12 11.23-4.12 6.2 0 11.229 1.845 11.229 4.12 0 2.277-5.028 4.121-11.23 4.121-6.202 0-11.23-1.844-11.23-4.12z" id="Stroke-13"/><path d="M37.517 4.3v103.151c0 2.277-5.028 4.121-11.23 4.121-6.202 0-11.23-1.844-11.23-4.121V4.301" id="Stroke-15"/></g></g></g></g></g></svg>