<svg width="59" height="108" viewBox="0 0 59 108" version="1.1" xmlns="http://www.w3.org/2000/svg" xmlns:xlink="http://www.w3.org/1999/xlink"><title>Page 1</title><defs><path id="path-1" d="M58.796.444H0v106.965h58.796V.444z"/></defs><g id="Page-1" stroke="none" stroke-width="1" fill="none" fill-rule="evenodd"><g id="Desktop_Cycle-My-Cell" transform="translate(-654 -228)"><g id="Page-1" transform="translate(654 228)"><g id="Group-3" transform="translate(0 .023)"><mask id="mask-2" fill="#fff"><use xlink:href="#path-1"/></mask><path d="M51.369 107.41H7.428c-4.103 0-7.428-3.29-7.428-7.35V5.415C0 2.669 2.25.444 5.024.444h48.75c2.774 0 5.022 2.225 5.022 4.97v94.647c0 4.058-3.325 7.348-7.427 7.348" id="Fill-1" fill="#FEFEFE" mask="url(#mask-2)"/></g><path d="M54.64 94.723H4.157a1.376 1.376 0 0 1-1.384-1.369V7.268c0-.756.62-1.368 1.384-1.368H54.64c.763 0 1.383.612 1.383 1.368v86.086c0 .756-.62 1.369-1.383 1.369" id="Fill-4" fill="#29292D"/><path d="M32.022 69.447l-.854.028c-.202.004-.4.01-.604.01a19.77 19.77 0 0 1-5.98-.92c-8.878-2.803-14.514-11.344-13.59-20.46l-2.3-.726a.543.543 0 0 1-.079-1.008l5.387-2.65a.553.553 0 0 1 .735.238l2.719 5.21c.225.431-.19.917-.657.77l-1.773-.56c-.292 6.852 4.14 13.198 10.809 15.305 1.538.485 3.148.719 4.724.724h.571l.892 4.039z" id="Fill-6" fill="#FEFEFE"/><path d="M49.298 55.941a19.363 19.363 0 0 1-4.055 7.029 19.69 19.69 0 0 1-6.608 4.787l.403 1.822c.106.479-.43.842-.843.571l-5.013-3.292a.542.542 0 0 1-.158-.75l3.199-4.927a.553.553 0 0 1 1.002.178l.509 2.306c3.634-1.877 6.395-5.1 7.641-8.96a15.28 15.28 0 0 0-1.317-12.293l-.278-.485 3.091-2.779.444.72c2.993 4.837 3.715 10.693 1.983 16.073" id="Fill-8" fill="#FEFEFE"/><path d="M44.22 32.915l-.373 5.94a.55.55 0 0 1-.576.51l-5.92-.276a.544.544 0 0 1-.345-.948l1.493-1.342a15.692 15.692 0 0 0-3.21-1.43c-7.023-2.212-14.717.8-18.304 7.16l-.283.5-3.965-1.251.387-.739c4.427-8.42 14.273-12.435 23.416-9.55a19.593 19.593 0 0 1 5.107 2.476l1.652-1.488c.366-.329.951-.05.92.438" id="Fill-10" fill="#FEFEFE"/><path d="M25.024 101.143c0-2.39 1.959-4.327 4.374-4.327 2.416 0 4.374 1.937 4.374 4.327 0 2.39-1.958 4.328-4.374 4.328-2.415 0-4.374-1.938-4.374-4.328" id="Fill-12" fill="#29292D"/><path d="M45.824 3.852H12.972a.51.51 0 0 1-.512-.507c0-.28.23-.507.512-.507h32.852a.51.51 0 0 1 .513.507.51.51 0 0 1-.513.507" id="Fill-14" fill="#29292D"/></g></g></g></svg>