<svg width="25" height="21" viewBox="0 0 25 21" version="1.1" xmlns="http://www.w3.org/2000/svg"><title>Page 1</title><g id="Welcome" stroke="none" stroke-width="1" fill="none" fill-rule="evenodd"><g id="UI-Kit" transform="translate(-1218 -638)" fill="#000"><path d="M1239.423 649.418a2.36 2.36 0 0 1-.383-.031 8.788 8.788 0 0 0 .357-2.495 8.83 8.83 0 0 0-.357-2.49 2.523 2.523 0 1 1 .383 5.016zm-3.083 2.715V645.8a.533.533 0 0 0-.241-.446.537.537 0 0 0-.504-.032 12.05 12.05 0 0 1-5.095 1.12c-1.775 0-3.493-.379-5.095-1.12a.537.537 0 0 0-.504.032.546.546 0 0 0-.241.446v6.324a7.786 7.786 0 0 1-2.001-5.231c0-4.323 3.519-7.842 7.841-7.842 4.328 0 7.847 3.52 7.847 7.842 0 1.954-.72 3.813-2.007 5.241zm-1.05.652a4.795 4.795 0 0 1-4.79 4.79 4.795 4.795 0 0 1-4.79-4.79v-6.193a13.276 13.276 0 0 0 9.58 0v6.193zm-13.325-3.398a2.527 2.527 0 0 1-2.915-2.495 2.526 2.526 0 0 1 2.915-2.49 8.83 8.83 0 0 0-.357 2.49c0 .856.121 1.696.357 2.495zm17.458-6.067c-.252 0-.499.027-.74.08-1.366-3.173-4.517-5.4-8.183-5.4-3.666 0-6.817 2.227-8.178 5.4a3.576 3.576 0 0 0-4.322 3.493 3.577 3.577 0 0 0 4.328 3.497 8.678 8.678 0 0 0 2.4 3.267 5.842 5.842 0 0 0 5.772 4.968 5.842 5.842 0 0 0 5.772-4.968 8.846 8.846 0 0 0 2.41-3.267 3.577 3.577 0 0 0 4.317-3.498 3.576 3.576 0 0 0-3.576-3.572z" id="Page-1"/></g></g></svg>