<svg xmlns="http://www.w3.org/2000/svg" viewBox="0 0 70 61.25"><defs><style>.a,.b{fill:none}.a{clip-rule:evenodd}.c{clip-path:url(#a)}.d{clip-path:url(#b)}.e{fill:#fff}</style><clipPath id="a" transform="translate(-2222 -164.64)"><path class="a" d="M2274.85 185.29a6.92 6.92 0 0 0-1.48.16 17.79 17.79 0 0 0-32.72 0 7 7 0 0 0-1.49-.16 7.15 7.15 0 1 0 1.5 14.14 17.36 17.36 0 0 0 4.8 6.53 11.67 11.67 0 0 0 23.09 0 17.69 17.69 0 0 0 4.82-6.53 6.92 6.92 0 0 0 1.48.16 7.15 7.15 0 1 0 0-14.3zm-34.92 12.13a4.76 4.76 0 0 1-.78.06 5 5 0 1 1 0-10.09 4.76 4.76 0 0 1 .78.06 17.73 17.73 0 0 0 0 9.97zm26.65 6.8a9.58 9.58 0 1 1-19.16 0v-12.39a26.56 26.56 0 0 0 19.16 0v12.38zm2.1-1.3v-12.68a1 1 0 0 0-1.49-1 24.32 24.32 0 0 1-20.38 0 1.07 1.07 0 0 0-1 .06 1.09 1.09 0 0 0-.48.89v12.65a15.68 15.68 0 1 1 23.35.07zm6.17-5.43a4.72 4.72 0 0 1-.77-.06 17.75 17.75 0 0 0 0-10 4.72 4.72 0 0 1 .77-.06 5 5 0 1 1 0 10.11z"/></clipPath><clipPath id="b" transform="translate(-2222 -164.64)"><path class="b" d="M0 0h2732v8460H0z"/></clipPath></defs><title>chimp-logo-svg</title><path class="c d e" d="M0 0h70v61.25H0z"/></svg>