<svg xmlns="http://www.w3.org/2000/svg" viewBox="0 0 167.19531 102.49072"><defs><style>.cls-1{fill:#2a2a2e}</style></defs><title>Asset 1</title><g id="Layer_2" data-name="Layer 2"><g id="Layer_1-2" data-name="Layer 1"><path class="cls-1" d="M59.813 81.875a16.958 16.958 0 0 1-5.875-.984 11.537 11.537 0 0 1-4.625-3.11 14.671 14.671 0 0 1-3.016-5.453 26.301 26.301 0 0 1-1.078-8.047 29.18 29.18 0 0 1 1.078-8.578 14.442 14.442 0 0 1 3-5.547 10.688 10.688 0 0 1 4.531-2.968 17.64 17.64 0 0 1 5.64-.875 20.638 20.638 0 0 1 3.985.39 13.685 13.685 0 0 1 3.578 1.203 7.905 7.905 0 0 1 2.594 2.047 4.46 4.46 0 0 1 1 2.89 3.401 3.401 0 0 1-1.437 3.126 8.132 8.132 0 0 1-4.282.906 15.597 15.597 0 0 0-.25-2.844 7.068 7.068 0 0 0-.859-2.359 4.357 4.357 0 0 0-1.656-1.594 5.497 5.497 0 0 0-2.672-.578 7.83 7.83 0 0 0-3.328.688 6.06 6.06 0 0 0-2.547 2.374 13.433 13.433 0 0 0-1.625 4.532 37.639 37.639 0 0 0-.563 7.125q0 6.813 2.266 10.156 2.265 3.344 7.422 3.344a10.388 10.388 0 0 0 5.187-1.25 8.366 8.366 0 0 0 3.313-3.219 2.95 2.95 0 0 1 .781 1 3.328 3.328 0 0 1 .313 1.5A4.083 4.083 0 0 1 70 77.938a6.525 6.525 0 0 1-2.047 1.968 12.014 12.014 0 0 1-3.39 1.422 18.397 18.397 0 0 1-4.75.547zM106.594 64.031q0 9.033-3.828 13.438-3.83 4.406-11.203 4.406a16.723 16.723 0 0 1-6.22-1.094 11.902 11.902 0 0 1-4.671-3.312 15.024 15.024 0 0 1-2.938-5.578 27.236 27.236 0 0 1-1.015-7.86q0-8.967 3.797-13.343 3.797-4.374 11.234-4.375a16.93 16.93 0 0 1 6.219 1.078 11.846 11.846 0 0 1 4.672 3.28 14.913 14.913 0 0 1 2.937 5.532 26.948 26.948 0 0 1 1.016 7.828zm-23.688 0a37.325 37.325 0 0 0 .47 6.282 13.868 13.868 0 0 0 1.515 4.546 7.148 7.148 0 0 0 2.718 2.766 8.224 8.224 0 0 0 4.079.938 8.14 8.14 0 0 0 4.062-.938 7.09 7.09 0 0 0 2.688-2.766 13.9 13.9 0 0 0 1.484-4.546 38.622 38.622 0 0 0 .453-6.282 36.764 36.764 0 0 0-.469-6.25 13.744 13.744 0 0 0-1.5-4.484 6.889 6.889 0 0 0-2.703-2.703 8.469 8.469 0 0 0-4.078-.906 8.37 8.37 0 0 0-4.062.906 6.916 6.916 0 0 0-2.688 2.703 13.744 13.744 0 0 0-1.5 4.484 36.764 36.764 0 0 0-.469 6.25zM125.79 70.064a5.754 5.754 0 0 1-.15 1.318 5.837 5.837 0 0 1-.495 1.317 9.978 9.978 0 0 1-.913 1.437q-.567.757-1.402 1.67-.836.915-1.947 2.018-1.112 1.105-2.57 2.479l-2.903 2.762h6.754a2.32 2.32 0 0 0 1.522-.518 2.759 2.759 0 0 0 .885-1.494l.242-.892h1.713l-.157 6.089h-13.707v-2.988l4.291-4.375a30.563 30.563 0 0 0 2.21-2.479 12.277 12.277 0 0 0 1.359-2.11 8.125 8.125 0 0 0 .693-1.988 10.593 10.593 0 0 0 .2-2.103 3.923 3.923 0 0 0-.602-2.422 2.003 2.003 0 0 0-1.664-.764 2.103 2.103 0 0 0-2.069 1.267 9.157 9.157 0 0 0-.594 3.745 6.772 6.772 0 0 1-1.507-.156 3.314 3.314 0 0 1-1.176-.495 2.297 2.297 0 0 1-.758-.885 3.16 3.16 0 0 1 .135-2.825 3.795 3.795 0 0 1 1.196-1.246 6.512 6.512 0 0 1 1.99-.857 10.853 10.853 0 0 1 2.783-.319 11.113 11.113 0 0 1 2.867.333 6.16 6.16 0 0 1 2.082.956 4.018 4.018 0 0 1 1.266 1.516 4.614 4.614 0 0 1 .425 2.01z"/><path class="cls-1" d="M135.831 102.49H38.837a38.843 38.843 0 1 1 4.454-77.428 51.242 51.242 0 0 1 93.999 14.747 31.358 31.358 0 0 1-1.459 62.682zM38.837 27.306a36.343 36.343 0 0 0 0 72.686h96.994a28.857 28.857 0 0 0 .428-57.712 1.25 1.25 0 0 1-1.206-.996 48.743 48.743 0 0 0-90.017-14.255 1.25 1.25 0 0 1-1.253.615 36.707 36.707 0 0 0-4.946-.338z"/></g></g></svg>