<svg width="168" height="167" viewBox="0 0 168 167" version="1.1" xmlns="http://www.w3.org/2000/svg"><title>Group 18</title><defs><filter x="-50%" y="-50%" width="200%" height="200%" filterUnits="objectBoundingBox" id="filter-1"><feOffset dx="0" dy="35" in="SourceAlpha" result="shadowOffsetOuter1"/><feGaussianBlur stdDeviation="35" in="shadowOffsetOuter1" result="shadowBlurOuter1"/><feColorMatrix values="0 0 0 0 0 0 0 0 0 0 0 0 0 0 0 0 0 0 0.2 0" type="matrix" in="shadowBlurOuter1" result="shadowMatrixOuter1"/><feMerge><feMergeNode in="shadowMatrixOuter1"/><feMergeNode in="SourceGraphic"/></feMerge></filter></defs><g id="Page-1" stroke="none" stroke-width="1" fill="none" fill-rule="evenodd"><g id="Desktop_Cycle-My-Cell" transform="translate(-599 -1950)"><g id="Group-6" transform="translate(361 1676)"><g id="Group-13" transform="translate(207 94)"><g id="Group-18" transform="translate(92 209)"><g id="Page-1" filter="url(#filter-1)" transform="translate(3)"><path id="Fill-1" fill="#F2C029" d="M23.423 0l-3.466 1.677L16.49 0l-2.677 2.75-3.835-.402L8.412 5.84l-3.743.923-.267 3.811-3.198 2.135 1.065 3.672L0 19.47l2.269 3.09-1.065 3.671 3.198 2.135.267 3.812 3.743.922 1.567 3.491 3.835-.401 2.677 2.75 3.466-1.677 3.466 1.676 2.677-2.75 3.835.402 1.567-3.49 3.743-.923.267-3.812 3.198-2.135-1.065-3.672 2.269-3.09-2.269-3.089 1.065-3.672-3.198-2.135-.267-3.811-3.743-.923-1.567-3.49-3.835.4z"/><path d="M34.947 7.01l-3.67-.905-1.536-3.423-3.76.393L23.354.38l-3.398 1.644L16.559.38l-2.626 2.696-3.76-.393-1.536 3.423-3.67.904-.262 3.738-3.136 2.093 1.044 3.6L.39 19.47l2.224 3.03-1.044 3.6 3.136 2.093.262 3.737c17.74-9.974 29.98-24.92 29.98-24.92" id="Fill-2" fill-opacity=".3" fill="#FFF" style="mix-blend-mode:soft-light"/></g><text id="1" font-family=".SFNSDisplay, .SF NS Display" font-size="24" font-weight="normal" line-spacing="35" fill="#FFF"><tspan x="17.004" y="23">1</tspan></text></g></g></g></g></g></svg>