<svg width="54" height="59" viewBox="0 0 54 59" version="1.1" xmlns="http://www.w3.org/2000/svg"><title>Page 1</title><g id="Page-1" stroke="none" stroke-width="1" fill="none" fill-rule="evenodd" stroke-linecap="round" stroke-linejoin="round"><g id="Desktop_Cycle-My-Cell" transform="translate(-453 -4289)"><g id="Group-46" transform="translate(353 3957)"><g id="Group-39"><g id="Page-1" transform="translate(101 333)"><path d="M6.07 56.382h17.22a1.92 1.92 0 0 0 1.882-2.284l-2.18-11.38a1.917 1.917 0 0 0-1.883-1.559H8.251c-.92 0-1.71.653-1.883 1.559l-2.18 11.38a1.92 1.92 0 0 0 1.883 2.284z" id="Stroke-1" stroke="#FFD000" stroke-width="2.5"/><path d="M27.929 56.382h17.218a1.92 1.92 0 0 0 1.883-2.284l-2.18-11.38a1.917 1.917 0 0 0-1.882-1.559h-12.86c-.919 0-1.709.653-1.882 1.559l-2.18 11.38a1.92 1.92 0 0 0 1.883 2.284z" id="Stroke-3" stroke="#FFD000" stroke-width="2.5"/><path d="M16.187 41.16h18.844a1.92 1.92 0 0 0 1.883-2.285l-2.18-11.38a1.917 1.917 0 0 0-1.883-1.559H18.367c-.92 0-1.71.654-1.882 1.56l-2.18 11.38a1.92 1.92 0 0 0 1.882 2.283z" id="Stroke-5" stroke="#FFD000" stroke-width="2.5"/><path d="M26.012.407v4.31" id="Stroke-7" stroke="#35353B"/><path d="M41.557 4.717L39.074 8.3" id="Stroke-9" stroke="#35353B"/><path d="M10.465 4.717L12.95 8.3" id="Stroke-11" stroke="#35353B"/><path d="M51.616 13.353l-3.04 3.047" id="Stroke-13" stroke="#35353B"/><path d="M.406 13.353l3.04 3.047" id="Stroke-15" stroke="#35353B"/><path d="M44.363 41.765l-4.84-7.407a1.788 1.788 0 0 0-1.496-.81h-2.134" id="Stroke-17" stroke="#FFD000" stroke-width="2.5"/><path d="M34.174 26.37l-4.84-5.777a1.786 1.786 0 0 0-1.496-.811h-4.482c-.605 0-1.167.304-1.498.81L17.02 26.37" id="Stroke-19" stroke="#FFD000" stroke-width="2.5"/><path d="M6.824 41.765l4.839-7.407c.33-.506.893-.81 1.497-.81h2.133" id="Stroke-21" stroke="#FFD000" stroke-width="2.5"/></g></g></g></g></g></svg>