<svg xmlns="http://www.w3.org/2000/svg" viewBox="0 0 18.73926 17.78271"><defs><style>.cls-1{fill:#fff}</style></defs><title>Asset 1</title><g id="Layer_2" data-name="Layer 2"><path class="cls-1" d="M9.366 17.783l-8.22-9.087a5.378 5.378 0 0 1 8.225-6.92 5.376 5.376 0 0 1 9.368 3.606 5.297 5.297 0 0 1-1.144 3.307zM5.376 1a4.38 4.38 0 0 0-3.469 7.048l7.46 8.244 7.465-8.249a4.289 4.289 0 0 0 .907-2.66 4.376 4.376 0 0 0-7.958-2.52l-.408.58-.41-.58A4.401 4.401 0 0 0 5.377 1z" id="Layer_1-2" data-name="Layer 1"/></g></svg>