<svg width="27" height="28" viewBox="0 0 27 28" version="1.1" xmlns="http://www.w3.org/2000/svg"><title>Page 1</title><g id="Page-1" stroke="none" stroke-width="1" fill="none" fill-rule="evenodd"><g id="Desktop_DROTC" transform="translate(-1035 -4339)" fill="#FFF"><g id="Page-1" transform="translate(1035 4339)"><g id="Group-3" transform="translate(0 .045)"><path d="M13.496.009C9.83.009 9.37.024 7.93.09 6.495.156 5.514.386 4.655.722a6.61 6.61 0 0 0-2.39 1.567A6.666 6.666 0 0 0 .71 4.696C.375 5.56.147 6.548.08 7.994.016 9.444 0 9.906 0 13.597c0 3.69.016 4.153.081 5.602.066 1.447.294 2.434.628 3.299a6.667 6.667 0 0 0 1.556 2.407 6.612 6.612 0 0 0 2.39 1.567c.859.336 1.84.565 3.276.631 1.44.067 1.9.082 5.565.082 3.665 0 4.125-.015 5.564-.082 1.437-.066 2.418-.295 3.276-.631a6.612 6.612 0 0 0 2.39-1.567 6.665 6.665 0 0 0 1.557-2.407c.334-.865.562-1.852.627-3.299.066-1.449.082-1.912.082-5.602 0-3.69-.016-4.153-.082-5.603-.065-1.446-.293-2.434-.627-3.298a6.665 6.665 0 0 0-1.557-2.407 6.61 6.61 0 0 0-2.39-1.567C21.478.386 20.496.156 19.06.09 17.62.024 17.161.01 13.496.01m0 2.448c3.603 0 4.03.014 5.453.08 1.316.06 2.03.28 2.506.467.63.247 1.08.541 1.552 1.016.472.476.765.929 1.01 1.563.184.479.404 1.198.464 2.523.065 1.433.079 1.863.079 5.49 0 3.63-.014 4.059-.079 5.492-.06 1.325-.28 2.044-.465 2.523a4.214 4.214 0 0 1-1.01 1.562c-.471.476-.92.77-1.55 1.017-.476.186-1.191.407-2.507.468-1.423.065-1.85.079-5.453.079-3.604 0-4.03-.014-5.454-.08-1.315-.06-2.03-.281-2.506-.467a4.178 4.178 0 0 1-1.551-1.017 4.213 4.213 0 0 1-1.01-1.562c-.185-.479-.405-1.198-.465-2.523-.065-1.433-.078-1.863-.078-5.491 0-3.628.013-4.058.078-5.491.06-1.325.28-2.044.465-2.523a4.213 4.213 0 0 1 1.01-1.563c.472-.475.921-.77 1.551-1.016.476-.186 1.19-.407 2.506-.468 1.423-.065 1.85-.08 5.454-.08" id="Fill-1"/></g><path d="M13.496 18.172c-2.485 0-4.499-2.028-4.499-4.53 0-2.501 2.014-4.53 4.499-4.53 2.484 0 4.498 2.029 4.498 4.53 0 2.502-2.014 4.53-4.498 4.53m0-11.508c-3.828 0-6.93 3.124-6.93 6.978 0 3.854 3.102 6.978 6.93 6.978 3.827 0 6.93-3.124 6.93-6.978 0-3.854-3.103-6.978-6.93-6.978" id="Fill-4"/><path d="M22.32 6.389c0 .9-.726 1.63-1.62 1.63-.895 0-1.62-.73-1.62-1.63 0-.9.725-1.63 1.62-1.63.894 0 1.62.73 1.62 1.63" id="Fill-6"/></g></g></g></svg>