<svg xmlns="http://www.w3.org/2000/svg" viewBox="0 0 456.28 456.28"><defs><style>.a{fill:none}.b{clip-path:url(#a)}.c{fill:#010101}</style><clipPath id="a" transform="translate(-27.86 -27.86)"><path class="a" d="M27.86 27.86h456.28v456.28H27.86z"/></clipPath></defs><title>Instagram-icon-black</title><g class="b"><path class="c" d="M228.14 41.14c60.92 0 68.13.23 92.19 1.33 22.24 1 34.32 4.73 42.36 7.86a75.55 75.55 0 0 1 43.3 43.3c3.12 8 6.84 20.12 7.86 42.36 1.09 24.02 1.29 31.23 1.29 92.15s-.23 68.13-1.33 92.19c-1 22.24-4.73 34.32-7.86 42.36a75.55 75.55 0 0 1-43.3 43.3c-8 3.12-20.12 6.84-42.36 7.85-24.02 1.1-31.23 1.3-92.15 1.3s-68.13-.23-92.19-1.33c-22.24-1-34.32-4.73-42.36-7.85a75.55 75.55 0 0 1-43.3-43.3c-3.12-8-6.84-20.12-7.86-42.36-1.09-24.03-1.29-31.24-1.29-92.16s.23-68.13 1.33-92.19c1-22.24 4.73-34.32 7.86-42.36a70.7 70.7 0 0 1 17.03-26.23 70.69 70.69 0 0 1 26.23-17.07c8-3.12 20.12-6.84 42.36-7.86 24.06-1.09 31.28-1.29 92.19-1.29m0-41.11c-62 0-69.73.26-94.06 1.37S93.21 6.4 78.7 12a111.81 111.81 0 0 0-40.41 26.29A111.83 111.83 0 0 0 11.98 78.7c-5.64 14.51-9.5 31.1-10.6 55.38S0 166.14 0 228.14s.26 69.73 1.37 94.06 5 40.87 10.6 55.38a116.65 116.65 0 0 0 66.72 66.72c14.51 5.64 31.09 9.5 55.38 10.6s32.1 1.37 94.06 1.37 69.73-.26 94.06-1.37 40.87-5 55.38-10.6a116.65 116.65 0 0 0 66.72-66.72c5.64-14.51 9.5-31.1 10.6-55.38s1.37-32.1 1.37-94.06-.26-69.73-1.37-94.06-5-40.87-10.6-55.38a111.83 111.83 0 0 0-26.31-40.41 111.81 111.81 0 0 0-40.41-26.31c-14.51-5.64-31.09-9.5-55.38-10.6S290.14 0 228.14 0"/><path class="c" d="M228.14 110.99a117.15 117.15 0 1 0 117.15 117.15 117.15 117.15 0 0 0-117.15-117.15m0 193.15a76 76 0 1 1 76-76 76 76 0 0 1-76 76M377.3 106.36a27.38 27.38 0 1 1-27.38-27.38 27.38 27.38 0 0 1 27.38 27.38"/></g></svg>