<svg version="1.1" id="Layer_1" xmlns="http://www.w3.org/2000/svg" x="0" y="0" viewBox="0 0 599.9 97.6" xml:space="preserve"><style type="text/css">.st0{fill:none}.st1{fill:#f6bb60}.st2{fill:#fff}.st3{fill:#ffd147}.st4{fill:#df2a3d}</style><pattern x="-91.9" y="169.6" width="69" height="69" patternUnits="userSpaceOnUse" id="Polka_Dot_Pattern" viewBox="2.1 -70.9 69 69" overflow="visible"><path class="st0" d="M2.1-70.9h69v69h-69z"/><path class="st1" d="M2.1-70.9h69v69h-69z"/><path class="st2" d="M61.8-71.7v.2c-.1.1-.1.1-.2.1-.1.1-.1.3-.1.4-.2.1 0 .2 0 .3v.2c0 .1 0 .3.1.4.1.2.3.4.4.5.2.1.4.6.6.6.2 0 .4-.1.5-.1.2 0 .4 0 .6-.1.2-.1.1-.3.3-.5.1-.1.3 0 .4-.1.2-.1.3-.3.4-.5v-.2c0-.1.1-.2.1-.3 0-.1-.1-.1-.1-.2v-.3c0-.2 0-.4-.1-.5-.4-.7-1.2-.9-2-.8-.2 0-.3.1-.4.2-.2.1-.1.2-.3.2-.1 0-.2.1-.2.2v.3c0 .1 0 .1 0 0M54.1-71.7v.2c-.1.1-.1.1-.2.1-.1.1-.1.3-.1.4-.2.1 0 .2 0 .3v.2c0 .1 0 .3.1.4.1.2.3.4.4.5.2.1.4.6.6.6.2 0 .4-.1.5-.1.2 0 .4 0 .6-.1.2-.1.1-.3.3-.5.1-.1.3 0 .4-.1.2-.1.3-.3.4-.5v-.2c0-.1.1-.2.1-.3 0-.1-.1-.1-.1-.2v-.3c0-.2 0-.4-.1-.5-.4-.7-1.2-.9-2-.8-.2 0-.3.1-.4.2-.2.1-.1.2-.3.2-.1 0-.2.1-.2.2v.3c0 .1 0 .1 0 0M46.4-71.7v.2c-.1.1-.1.1-.2.1-.1.1-.1.3-.1.4-.2.1 0 .2 0 .3v.2c0 .1 0 .3.1.4.1.2.3.4.4.5.2.1.4.6.6.6.2 0 .4-.1.5-.1.2 0 .4 0 .6-.1.2-.1.1-.3.3-.5.1-.1.3 0 .4-.1.2-.1.3-.3.4-.5v-.2c0-.1.1-.2.1-.3 0-.1-.1-.1-.1-.2v-.3c0-.2 0-.4-.1-.5-.4-.7-1.2-.9-2-.8-.2 0-.3.1-.4.2-.2.1-.1.2-.3.2-.1 0-.2.1-.2.2v.3c0 .1 0 .1 0 0M38.8-71.7v.2c-.1.1-.1.1-.2.1-.1.1-.1.3-.1.4-.2.1 0 .2 0 .3v.2c0 .1 0 .3.1.4.1.2.3.4.4.5.2.1.4.6.6.6.2 0 .4-.1.5-.1.2 0 .4 0 .6-.1.2-.1.1-.3.3-.5.1-.1.3 0 .4-.1.2-.1.3-.3.4-.5v-.2c0-.1.1-.2.1-.3 0-.1-.1-.1-.1-.2v-.3c0-.2 0-.4-.1-.5-.4-.7-1.2-.9-2-.8-.2 0-.3.1-.4.2-.2.1-.1.2-.3.2-.1 0-.2.1-.2.2v.3c0 .1 0 .1 0 0M31.1-71.7v.2c-.1.1-.1.1-.2.1-.1.1-.1.3-.1.4-.2.1 0 .2 0 .3v.2c0 .1 0 .3.1.4.1.2.3.4.4.5.2.1.4.6.6.6.2 0 .4-.1.5-.1.2 0 .4 0 .6-.1.2-.1.1-.3.3-.5.1-.1.3 0 .4-.1.2-.1.3-.3.4-.5v-.2c0-.1.1-.2.1-.3 0-.1-.1-.1-.1-.2v-.3c0-.2 0-.4-.1-.5-.4-.7-1.2-.9-2-.8-.2 0-.3.1-.4.2-.2.1-.1.2-.3.2-.1 0-.2.1-.2.2v.3c0 .1 0 .1 0 0M23.4-71.7v.2c-.1.1-.1.1-.2.1-.1.1-.1.3-.1.4-.2.1 0 .2 0 .3v.2c0 .1 0 .3.1.4.1.2.3.4.4.5.2.1.4.6.6.6.2 0 .4-.1.5-.1.2 0 .4 0 .6-.1.2-.1.1-.3.3-.5.1-.1.3 0 .4-.1.2-.1.3-.3.4-.5v-.2c0-.1.1-.2.1-.3 0-.1-.1-.1-.1-.2v-.3c0-.2 0-.4-.1-.5-.4-.7-1.2-.9-2-.8-.2 0-.3.1-.4.2-.2.1-.1.2-.3.2-.1 0-.2.1-.2.2v.3c0 .1 0 .1 0 0M15.8-71.7v.2c-.1.1-.1.1-.2.1-.1.1-.1.3-.1.4-.2.1 0 .2 0 .3v.2c0 .1 0 .3.1.4.1.2.3.4.4.5.2.1.4.6.6.6.2 0 .4-.1.5-.1.2 0 .4 0 .6-.1.2-.1.1-.3.3-.5.1-.1.3 0 .4-.1.2-.1.3-.3.4-.5v-.2c0-.1.1-.2.1-.3 0-.1-.1-.1-.1-.2v-.3c0-.2 0-.4-.1-.5-.4-.7-1.2-.9-2-.8-.2 0-.3.1-.4.2-.2.1-.1.2-.3.2-.1 0-.2.1-.2.2v.3c0 .1 0 .1 0 0M8.1-71.7v.2l-.2.2c-.1.1-.1.3-.1.4-.2.1 0 .2 0 .3v.2c0 .1 0 .3.1.4.1.2.3.4.4.5.2.1.4.6.6.6.2 0 .4-.1.5-.1.2 0 .4 0 .6-.1.2-.1.1-.3.3-.5.1-.1.3 0 .4-.1.2-.1.3-.3.4-.5v-.2c0-.1.1-.2.1-.3 0-.1-.1-.1-.1-.2v-.3c0-.2 0-.4-.1-.5-.4-.7-1.2-.9-2-.8-.2 0-.3.1-.4.2-.2.1-.1.2-.3.2-.1 0-.2.1-.2.2v.2c0 .1 0 .1 0 0M.4-71.7v.2c-.1.1-.1.1-.2.1-.1.1-.1.3-.1.4-.2.1 0 .2 0 .3v.2c0 .1 0 .3.1.4.1.2.3.4.4.5.2.2.4.6.6.7.2 0 .4-.1.5-.1.2 0 .4 0 .6-.1.2-.1.1-.3.3-.5.1-.1.3 0 .4-.1.2-.1.3-.3.4-.5v-.2c0-.1.1-.2.1-.3 0-.1-.1-.1-.1-.2v-.3c0-.2 0-.4-.1-.5-.4-.7-1.2-.9-2-.8-.2 0-.3.1-.4.2-.2.1-.1.2-.3.2-.1 0-.2.1-.2.2v.2c0 .1 0 .1 0 0"/><g><path class="st2" d="M69.4-71.7v.2c-.1.1-.1.1-.2.1-.1.1-.1.3-.1.4-.2.1 0 .2 0 .3v.2c0 .1 0 .3.1.4.1.2.3.4.4.5.2.1.4.6.6.6.2 0 .4-.1.5-.1.2 0 .4 0 .6-.1.2-.1.1-.3.3-.5.1-.1.3 0 .4-.1.2-.1.3-.3.4-.5v-.2c0-.1.1-.2.1-.3 0-.1-.1-.1-.1-.2v-.3c0-.2 0-.4-.1-.5-.4-.7-1.2-.9-2-.8-.2 0-.3.1-.4.2-.2.1-.1.2-.3.2-.1 0-.2.1-.2.2v.3c0 .1 0 .1 0 0"/></g><path class="st2" d="M.5-71.7v.2c-.1.1-.1.1-.2.1-.1.1-.1.3-.1.4-.2.1 0 .2 0 .3v.2c0 .1 0 .3.1.4.1.2.3.4.4.5.2.2.3.6.6.7.2 0 .4-.1.5-.1.2 0 .4 0 .6-.1.2-.1.1-.3.3-.5.1-.1.3 0 .4-.1.2-.1.3-.3.4-.5v-.2c0-.1.1-.2.1-.3 0-.1-.1-.1-.1-.2v-.3c0-.2 0-.4-.1-.5-.4-.7-1.2-.9-2-.8-.2 0-.3.1-.4.2-.2.1-.1.2-.3.2-.1 0-.2.1-.2.2v.2c0 .1 0 .1 0 0"/><g><path class="st2" d="M69.4-64v.2c-.1.1-.1.1-.2.1-.1.1-.1.3-.1.4-.2.1 0 .2 0 .3v.2c0 .1 0 .3.1.4.1.2.3.4.4.5.2.1.4.6.6.6.2 0 .4-.1.5-.1.2 0 .4 0 .6-.1.2-.1.1-.3.3-.5.1-.1.3 0 .4-.1.2-.1.3-.3.4-.5v-.2c0-.1.1-.2.1-.3 0-.1-.1-.1-.1-.2v-.3c0-.2 0-.4-.1-.5-.4-.7-1.2-.9-2-.8-.2 0-.3.1-.4.2-.2.1-.1.2-.3.2-.1 0-.2.1-.2.2v.3M61.8-64v.2c-.1.1-.1.1-.2.1-.1.1-.1.3-.1.4-.2.1 0 .2 0 .3v.2c0 .1 0 .3.1.4.1.2.3.4.4.5.2.1.4.6.6.6.2 0 .4-.1.5-.1.2 0 .4 0 .6-.1.2-.1.1-.3.3-.5.1-.1.3 0 .4-.1.2-.1.3-.3.4-.5v-.2c0-.1.1-.2.1-.3 0-.1-.1-.1-.1-.2v-.3c0-.2 0-.4-.1-.5-.4-.7-1.2-.9-2-.8-.2 0-.3.1-.4.2-.2.1-.1.2-.3.2-.1 0-.2.1-.2.2v.3M54.1-64v.2c-.1.1-.1.1-.2.1-.1.1-.1.3-.1.4-.2.1 0 .2 0 .3v.2c0 .1 0 .3.1.4.1.2.3.4.4.5.2.1.4.6.6.6.2 0 .4-.1.5-.1.2 0 .4 0 .6-.1.2-.1.1-.3.3-.5.1-.1.3 0 .4-.1.2-.1.3-.3.4-.5v-.2c0-.1.1-.2.1-.3 0-.1-.1-.1-.1-.2v-.3c0-.2 0-.4-.1-.5-.4-.7-1.2-.9-2-.8-.2 0-.3.1-.4.2-.2.1-.1.2-.3.2-.1 0-.2.1-.2.2v.3M46.5-64v.2c-.1.1-.1.1-.2.1-.1.1-.1.3-.1.4-.2.1 0 .2 0 .3v.2c0 .1 0 .3.1.4.1.2.3.4.4.5.2.1.4.6.6.6.2 0 .4-.1.5-.1.2 0 .4 0 .6-.1.2-.1.1-.3.3-.5.1-.1.3 0 .4-.1.2-.1.3-.3.4-.5v-.2c0-.1.1-.2.1-.3 0-.1-.1-.1-.1-.2v-.3c0-.2 0-.4-.1-.5-.4-.7-1.2-.9-2-.8-.2 0-.3.1-.4.2-.2.1-.1.2-.3.2-.1 0-.2.1-.2.2v.3M38.8-64v.2c-.1.1-.1.1-.2.1-.1.1-.1.3-.1.4-.2.1 0 .2 0 .3v.2c0 .1 0 .3.1.4.1.2.3.4.4.5.2.1.4.6.6.6.2 0 .4-.1.5-.1.2 0 .4 0 .6-.1.2-.1.1-.3.3-.5.1-.1.3 0 .4-.1.2-.1.3-.3.4-.5v-.2c0-.1.1-.2.1-.3 0-.1-.1-.1-.1-.2v-.3c0-.2 0-.4-.1-.5-.4-.7-1.2-.9-2-.8-.2 0-.3.1-.4.2-.2.1-.1.2-.3.2-.1 0-.2.1-.2.2v.3M31.1-64v.2c-.1.1-.1.1-.2.1-.1.1-.1.3-.1.4-.2.1 0 .2 0 .3v.2c0 .1 0 .3.1.4.1.2.3.4.4.5.2.1.4.6.6.6.2 0 .4-.1.5-.1.2 0 .4 0 .6-.1.2-.1.1-.3.3-.5.1-.1.3 0 .4-.1.2-.1.3-.3.4-.5v-.2c0-.1.1-.2.1-.3 0-.1-.1-.1-.1-.2v-.3c0-.2 0-.4-.1-.5-.4-.7-1.2-.9-2-.8-.2 0-.3.1-.4.2-.2.1-.1.2-.3.2-.1 0-.2.1-.2.2v.3M23.5-64v.2c-.1.1-.1.1-.2.1-.1.1-.1.3-.1.4-.2.1 0 .2 0 .3v.2c0 .1 0 .3.1.4.1.2.3.4.4.5.2.1.4.6.6.6.2 0 .4-.1.5-.1.2 0 .4 0 .6-.1.2-.1.1-.3.3-.5.1-.1.3 0 .4-.1.2-.1.3-.3.4-.5v-.2c0-.1.1-.2.1-.3 0-.1-.1-.1-.1-.2v-.3c0-.2 0-.4-.1-.5-.4-.7-1.2-.9-2-.8-.2 0-.3.1-.4.2-.2.1-.1.2-.3.2-.1 0-.2.1-.2.2v.3M15.8-64v.2c-.1.1-.1.1-.2.1-.1.1-.1.3-.1.4-.2.1 0 .2 0 .3v.2c0 .1 0 .3.1.4.1.2.3.4.4.5.2.1.4.6.6.6.2 0 .4-.1.5-.1.2 0 .4 0 .6-.1.2-.1.1-.3.3-.5.1-.1.3 0 .4-.1.2-.1.3-.3.4-.5v-.2c0-.1.1-.2.1-.3 0-.1-.1-.1-.1-.2v-.3c0-.2 0-.4-.1-.5-.4-.7-1.2-.9-2-.8-.2 0-.3.1-.4.2-.2.1-.1.2-.3.2-.1 0-.2.1-.2.2v.3M8.2-64v.2c-.1.1-.2.1-.2.1-.1.1-.1.3-.1.4-.2.1 0 .2 0 .3v.2c0 .1 0 .3.1.4 0 .2.2.4.3.5.2.1.4.6.6.6.2 0 .4-.1.5-.1.2 0 .4 0 .6-.1.2-.1.1-.3.3-.5.1-.1.3 0 .4-.1.2-.1.3-.3.4-.5v-.2c0-.1.1-.2.1-.3 0-.1-.1-.1-.1-.2v-.3c0-.2 0-.4-.1-.5-.4-.7-1.2-.9-2-.8-.2 0-.3.1-.4.2-.2.1-.1.2-.3.2-.1 0-.2.1-.2.2.1.3.1.2.1.3-.1 0-.1 0 0 0M.5-64v.2c-.1.1-.1.1-.2.1-.1.1-.1.3-.1.4-.2.1 0 .2 0 .3v.2c0 .1 0 .3.1.4.1.2.3.4.4.5.2.1.4.6.6.6.2 0 .4-.1.5-.1.2 0 .4 0 .6-.1.2-.1.1-.3.3-.5.1 0 .3.1.4 0 .2-.1.3-.3.4-.5v-.2c0-.1.1-.2.1-.3 0-.1-.1-.1-.1-.2v-.3c0-.2 0-.4-.1-.5-.4-.7-1.2-.9-2-.8-.2 0-.3.1-.4.2-.2.1-.1.2-.3.2-.1 0-.2.1-.2.2v.2"/><g><path class="st2" d="M69.4-56.3v.2c-.1.1-.1.1-.2.1-.1.1-.1.3-.1.4-.2.1 0 .2 0 .3v.2c0 .1 0 .3.1.4.1.2.3.4.4.5.2.1.4.6.6.6.2 0 .4-.1.5-.1.2 0 .4 0 .6-.1.2-.1.1-.3.3-.5.1-.1.3 0 .4-.1.2-.1.3-.3.4-.5v-.2c0-.1.1-.2.1-.3 0-.1-.1-.1-.1-.2v-.3c0-.2 0-.4-.1-.5-.4-.7-1.2-.9-2-.8-.2 0-.3.1-.4.2-.2.1-.1.2-.3.2-.1 0-.2.1-.2.2v.3M61.8-56.3v.2c-.1.1-.1.1-.2.1-.1.1-.1.3-.1.4-.2.1 0 .2 0 .3v.2c0 .1 0 .3.1.4.1.2.3.4.4.5.2.1.4.6.6.6.2 0 .4-.1.5-.1.2 0 .4 0 .6-.1.2-.1.1-.3.3-.5.1-.1.3 0 .4-.1.2-.1.3-.3.4-.5v-.2c0-.1.1-.2.1-.3 0-.1-.1-.1-.1-.2v-.3c0-.2 0-.4-.1-.5-.4-.7-1.2-.9-2-.8-.2 0-.3.1-.4.2-.2.1-.1.2-.3.2-.1 0-.2.1-.2.2v.3M54.1-56.3v.2c-.1 0-.1 0-.2.1s-.1.3-.1.4c-.2.1 0 .2 0 .3v.2c0 .1 0 .3.1.4.1.2.3.4.4.5.2.1.4.6.6.6.2 0 .4-.1.5-.1.2 0 .4 0 .6-.1.2-.1.1-.3.3-.5.1-.1.3 0 .4-.1.2-.1.3-.3.4-.5v-.2c0-.1.1-.2.1-.3 0-.1-.1-.1-.1-.2v-.3c0-.2 0-.4-.1-.5-.4-.7-1.2-.9-2-.8-.2 0-.3.1-.4.2-.2.1-.1.2-.3.2-.1 0-.2.1-.2.2v.3M46.5-56.3v.2c-.1.1-.1.1-.2.1-.1.1-.1.3-.1.4-.2.1 0 .2 0 .3v.2c0 .1 0 .3.1.4.1.2.3.4.4.5.2.1.4.6.6.6.2 0 .4-.1.5-.1.2 0 .4 0 .6-.1.2-.1.1-.3.3-.5.1-.1.3 0 .4-.1.2-.1.3-.3.4-.5v-.2c0-.1.1-.2.1-.3 0-.1-.1-.1-.1-.2v-.3c0-.2 0-.4-.1-.5-.4-.7-1.2-.9-2-.8-.2 0-.3.1-.4.2-.2.1-.1.2-.3.2-.1 0-.2.1-.2.2v.3M38.8-56.3v.2c-.1.1-.1.1-.2.1-.1.1-.1.3-.1.4-.2.1 0 .2 0 .3v.2c0 .1 0 .3.1.4.1.2.3.4.4.5.2.1.4.6.6.6.2 0 .4-.1.5-.1.2 0 .4 0 .6-.1.2-.1.1-.3.3-.5.1-.1.3 0 .4-.1.2-.1.3-.3.4-.5v-.2c0-.1.1-.2.1-.3 0-.1-.1-.1-.1-.2v-.3c0-.2 0-.4-.1-.5-.4-.7-1.2-.9-2-.8-.2 0-.3.1-.4.2-.2.1-.1.2-.3.2-.1 0-.2.1-.2.2v.3M31.1-56.3v.2c-.1.1-.1.1-.2.1-.1.1-.1.3-.1.4-.2.1 0 .2 0 .3v.2c0 .1 0 .3.1.4.1.2.3.4.4.5.2.1.4.6.6.6.2 0 .4-.1.5-.1.2 0 .4 0 .6-.1.2-.1.1-.3.3-.5.1-.1.3 0 .4-.1.2-.1.3-.3.4-.5v-.2c0-.1.1-.2.1-.3 0-.1-.1-.1-.1-.2v-.3c0-.2 0-.4-.1-.5-.4-.7-1.2-.9-2-.8-.2 0-.3.1-.4.2-.2.1-.1.2-.3.2-.1 0-.2.1-.2.2v.3M23.5-56.3v.2c-.1.1-.1.1-.2.1-.1.1-.1.3-.1.4-.2.1 0 .2 0 .3v.2c0 .1 0 .3.1.4.1.2.3.4.4.5.2.1.4.6.6.6.2 0 .4-.1.5-.1.2 0 .4 0 .6-.1.2-.1.1-.3.3-.5.1-.1.3 0 .4-.1.2-.1.3-.3.4-.5v-.2c0-.1.1-.2.1-.3 0-.1-.1-.1-.1-.2v-.3c0-.2 0-.4-.1-.5-.4-.7-1.2-.9-2-.8-.2 0-.3.1-.4.2-.2.1-.1.2-.3.2-.1 0-.2.1-.2.2v.3M15.8-56.3v.2c-.1.1-.1.1-.2.1-.1.1-.1.3-.1.4-.2.1 0 .2 0 .3v.2c0 .1 0 .3.1.4.1.2.3.4.4.5.2.1.4.6.6.6.2 0 .4-.1.5-.1.2 0 .4 0 .6-.1.2-.1.1-.3.3-.5.1-.1.3 0 .4-.1.2-.1.3-.3.4-.5v-.2c0-.1.1-.2.1-.3 0-.1-.1-.1-.1-.2v-.3c0-.2 0-.4-.1-.5-.4-.7-1.2-.9-2-.8-.2 0-.3.1-.4.2-.2.1-.1.2-.3.2-.1 0-.2.1-.2.2v.3M8.2-56.3v.2c-.1 0-.2 0-.2.1-.1.1-.1.3-.1.4-.2.1 0 .2 0 .3v.2c0 .1 0 .3.1.4.1.2.3.4.4.5.2.1.4.6.6.6.2 0 .4-.1.5-.1.2 0 .4 0 .6-.1.2-.1.1-.3.3-.5.1-.1.3 0 .4-.1.2-.1.3-.3.4-.5v-.2c0-.1.1-.2.1-.3 0-.1-.1-.1-.1-.2v-.3c0-.2 0-.4-.1-.5-.4-.7-1.2-.9-2-.8-.2 0-.3.1-.4.2-.2.1-.1.2-.3.2-.1 0-.2.1-.2.2v.3c-.1 0-.1 0 0 0M.5-56.3v.2c-.1.1-.1.1-.2.1-.1.1-.1.3-.1.4-.2.1 0 .2 0 .3v.2c0 .1 0 .3.1.4.1.2.3.4.4.5.2.1.4.6.6.6.2 0 .4-.1.5-.1.2 0 .4 0 .6-.1.2-.1.1-.3.3-.5.1-.1.3 0 .4-.1.2-.1.3-.3.4-.5v-.2c0-.1.1-.2.1-.3 0-.1-.1-.1-.1-.2v-.3c0-.2 0-.4-.1-.5-.4-.7-1.2-.9-2-.8-.2 0-.3.1-.4.2-.2.1-.1.2-.3.2-.1 0-.2.1-.2.2v.3"/></g><g><path class="st2" d="M69.4-48.7v.2c-.1.1-.1.1-.2.1-.1.1-.1.3-.1.4-.2.1 0 .2 0 .3v.2c0 .1 0 .3.1.4.1.2.3.4.4.5.2.1.4.6.6.6.2 0 .4-.1.5-.1.2 0 .4 0 .6-.1.2-.1.1-.3.3-.5.1-.1.3 0 .4-.1.2-.1.3-.3.4-.5v-.2c0-.1.1-.2.1-.3 0-.1-.1-.1-.1-.2v-.3c0-.2 0-.4-.1-.5-.4-.7-1.2-.9-2-.8-.2 0-.3.1-.4.2-.2.1-.1.2-.3.2-.1 0-.2.1-.2.2v.3M61.8-48.7v.2c-.1.1-.1.1-.2.1-.1.1-.1.3-.1.4-.2.1 0 .2 0 .3v.2c0 .1 0 .3.1.4.1.2.3.4.4.5.2.1.4.6.6.6.2 0 .4-.1.5-.1.2 0 .4 0 .6-.1.2-.1.1-.3.3-.5.1-.1.3 0 .4-.1.2-.1.3-.3.4-.5v-.2c0-.1.1-.2.1-.3 0-.1-.1-.1-.1-.2v-.3c0-.2 0-.4-.1-.5-.4-.7-1.2-.9-2-.8-.2 0-.3.1-.4.2-.2.1-.1.2-.3.2-.1 0-.2.1-.2.2v.3M54.1-48.7v.2c-.1.1-.1.1-.2.1-.1.1-.1.3-.1.4-.2.1 0 .2 0 .3v.2c0 .1 0 .3.1.4.1.2.3.4.4.5.2.1.4.6.6.6.2 0 .4-.1.5-.1.2 0 .4 0 .6-.1.2-.1.1-.3.3-.5.1-.1.3 0 .4-.1.2-.1.3-.3.4-.5v-.2c0-.1.1-.2.1-.3 0-.1-.1-.1-.1-.2v-.3c0-.2 0-.4-.1-.5-.4-.7-1.2-.9-2-.8-.2 0-.3.1-.4.2-.2.1-.1.2-.3.2-.1 0-.2.1-.2.2v.3M46.5-48.7v.2c-.1.1-.1.1-.2.1-.1.1-.1.3-.1.4-.2.1 0 .2 0 .3v.2c0 .1 0 .3.1.4.1.2.3.4.4.5.2.1.4.6.6.6.2 0 .4-.1.5-.1.2 0 .4 0 .6-.1.2-.1.1-.3.3-.5.1-.1.3 0 .4-.1.2-.1.3-.3.4-.5v-.2c0-.1.1-.2.1-.3 0-.1-.1-.1-.1-.2v-.3c0-.2 0-.4-.1-.5-.4-.7-1.2-.9-2-.8-.2 0-.3.1-.4.2-.2.1-.1.2-.3.2-.1 0-.2.1-.2.2v.3M38.8-48.7v.2c-.1.1-.1.1-.2.1-.1.1-.1.3-.1.4-.2.1 0 .2 0 .3v.2c0 .1 0 .3.1.4.1.2.3.4.4.5.2.1.4.6.6.6.2 0 .4-.1.5-.1.2 0 .4 0 .6-.1.2-.1.1-.3.3-.5.1-.1.3 0 .4-.1.2-.1.3-.3.4-.5v-.2c0-.1.1-.2.1-.3 0-.1-.1-.1-.1-.2v-.3c0-.2 0-.4-.1-.5-.4-.7-1.2-.9-2-.8-.2 0-.3.1-.4.2-.2.1-.1.2-.3.2-.1 0-.2.1-.2.2v.3M31.1-48.7v.2c-.1.1-.1.1-.2.1-.1.1-.1.3-.1.4-.2.1 0 .2 0 .3v.2c0 .1 0 .3.1.4.1.2.3.4.4.5.2.1.4.6.6.6.2 0 .4-.1.5-.1.2 0 .4 0 .6-.1.2-.1.1-.3.3-.5.1-.1.3 0 .4-.1.2-.1.3-.3.4-.5v-.2c0-.1.1-.2.1-.3 0-.1-.1-.1-.1-.2v-.3c0-.2 0-.4-.1-.5-.4-.7-1.2-.9-2-.8-.2 0-.3.1-.4.2-.2.1-.1.2-.3.2-.1 0-.2.1-.2.2v.3M23.5-48.7v.2c-.1.1-.1.1-.2.1-.1.1-.1.3-.1.4-.2.1 0 .2 0 .3v.2c0 .1 0 .3.1.4.1.2.3.4.4.5.2.1.4.6.6.6.2 0 .4-.1.5-.1.2 0 .4 0 .6-.1.2-.1.1-.3.3-.5.1-.1.3 0 .4-.1.2-.1.3-.3.4-.5v-.2c0-.1.1-.2.1-.3 0-.1-.1-.1-.1-.2v-.3c0-.2 0-.4-.1-.5-.4-.7-1.2-.9-2-.8-.2 0-.3.1-.4.2-.2.1-.1.2-.3.2-.1 0-.2.1-.2.2v.3M15.8-48.7v.2c-.1.1-.1.1-.2.1-.1.1-.1.3-.1.4-.2.1 0 .2 0 .3v.2c0 .1 0 .3.1.4.1.2.3.4.4.5.2.1.4.6.6.6.2 0 .4-.1.5-.1.2 0 .4 0 .6-.1.2-.1.1-.3.3-.5.1-.1.3 0 .4-.1.2-.1.3-.3.4-.5v-.2c0-.1.1-.2.1-.3 0-.1-.1-.1-.1-.2v-.3c0-.2 0-.4-.1-.5-.4-.7-1.2-.9-2-.8-.2 0-.3.1-.4.2-.2.1-.1.2-.3.2-.1 0-.2.1-.2.2v.3M8.2-48.7v.2c-.1.1-.2.1-.2.1-.1.1-.1.3-.1.4-.2.1 0 .2 0 .3v.2c0 .1 0 .3.1.4.1.2.3.4.4.5.1.2.3.6.5.6s.4-.1.5-.1c.2 0 .4 0 .6-.1.2-.1.1-.3.3-.5.1-.1.3 0 .4-.1.2-.1.3-.3.4-.5v-.2c0-.1.1-.2.1-.3 0-.1-.1-.1-.1-.2v-.3c0-.2 0-.4-.1-.5-.4-.7-1.2-.9-2-.8-.2 0-.3.1-.4.2-.2.1-.1.2-.3.2-.1 0-.2.1-.2.2.1.3.1.2.1.3-.1 0-.1 0 0 0M.5-48.7v.2c-.1.1-.1.1-.2.1-.1.1-.1.3-.1.4-.2.1 0 .2 0 .3v.2c0 .1 0 .3.1.4.1.2.3.4.4.5.2.2.3.6.6.6.2 0 .4-.1.5-.1.2 0 .4 0 .6-.1.2-.1.1-.3.3-.5.1-.1.3 0 .4-.1.2-.1.3-.3.4-.5v-.2c0-.1.1-.2.1-.3 0-.1-.1-.1-.1-.2v-.3c0-.2 0-.4-.1-.5-.4-.7-1.2-.9-2-.8-.2 0-.3.1-.4.2-.2.1-.1.2-.3.2-.1 0-.2.1-.2.2v.3"/></g><g><path class="st2" d="M69.4-41v.2c-.1.1-.1.1-.2.1-.1.1-.1.3-.1.4-.2.1 0 .2 0 .3v.2c0 .1 0 .3.1.4.1.2.3.4.4.5.2.1.4.6.6.6.2 0 .4-.1.5-.1.2 0 .4 0 .6-.1.2-.1.1-.3.3-.5.1-.1.3 0 .4-.1.2-.1.3-.3.4-.5v-.2c0-.1.1-.2.1-.3 0-.1-.1-.1-.1-.2v-.3c0-.2 0-.4-.1-.5-.4-.7-1.2-.9-2-.8-.2 0-.3.1-.4.2-.2.1-.1.2-.3.2-.1 0-.2.1-.2.2v.3M61.8-41v.2c-.1.1-.1.1-.2.1-.1.1-.1.3-.1.4-.2.1 0 .2 0 .3v.2c0 .1 0 .3.1.4.1.2.3.4.4.5.2.1.4.6.6.6.2 0 .4-.1.5-.1.2 0 .4 0 .6-.1.2-.1.1-.3.3-.5.1-.1.3 0 .4-.1.2-.1.3-.3.4-.5v-.2c0-.1.1-.2.1-.3 0-.1-.1-.1-.1-.2v-.3c0-.2 0-.4-.1-.5-.4-.7-1.2-.9-2-.8-.2 0-.3.1-.4.2-.2.1-.1.2-.3.2-.1 0-.2.1-.2.2v.3M54.1-41v.2c-.1.1-.1.1-.2.1-.1.1-.1.3-.1.4-.2.1 0 .2 0 .3v.2c0 .1 0 .3.1.4.1.2.3.4.4.5.2.1.4.6.6.6.2 0 .4-.1.5-.1.2 0 .4 0 .6-.1.2-.1.1-.3.3-.5.1-.1.3 0 .4-.1.2-.1.3-.3.4-.5v-.2c0-.1.1-.2.1-.3 0-.1-.1-.1-.1-.2v-.3c0-.2 0-.4-.1-.5-.4-.7-1.2-.9-2-.8-.2 0-.3.1-.4.2-.2.1-.1.2-.3.2-.1 0-.2.1-.2.2v.3M46.5-41v.2c-.1.1-.1.1-.2.1-.1.1-.1.3-.1.4-.2.1 0 .2 0 .3v.2c0 .1 0 .3.1.4.1.2.3.4.4.5.2.1.4.6.6.6.2 0 .4-.1.5-.1.2 0 .4 0 .6-.1.2-.1.1-.3.3-.5.1-.1.3 0 .4-.1.2-.1.3-.3.4-.5v-.2c0-.1.1-.2.1-.3 0-.1-.1-.1-.1-.2v-.3c0-.2 0-.4-.1-.5-.4-.7-1.2-.9-2-.8-.2 0-.3.1-.4.2-.2.1-.1.2-.3.2-.1 0-.2.1-.2.2v.3M38.8-41v.2c-.1.1-.1.1-.2.1-.1.1-.1.3-.1.4-.2.1 0 .2 0 .3v.2c0 .1 0 .3.1.4.1.2.3.4.4.5.2.1.4.6.6.6.2 0 .4-.1.5-.1.2 0 .4 0 .6-.1.2-.1.1-.3.3-.5.1-.1.3 0 .4-.1.2-.1.3-.3.4-.5v-.2c0-.1.1-.2.1-.3 0-.1-.1-.1-.1-.2v-.3c0-.2 0-.4-.1-.5-.4-.7-1.2-.9-2-.8-.2 0-.3.1-.4.2-.2.1-.1.2-.3.2-.1 0-.2.1-.2.2v.3M31.1-41v.2c-.1.1-.1.1-.2.1-.1.1-.1.3-.1.4-.2.1 0 .2 0 .3v.2c0 .1 0 .3.1.4.1.2.3.4.4.5.2.1.4.6.6.6.2 0 .4-.1.5-.1.2 0 .4 0 .6-.1.2-.1.1-.3.3-.5.1-.1.3 0 .4-.1.2-.1.3-.3.4-.5v-.2c0-.1.1-.2.1-.3 0-.1-.1-.1-.1-.2v-.3c0-.2 0-.4-.1-.5-.4-.7-1.2-.9-2-.8-.2 0-.3.1-.4.2-.2.1-.1.2-.3.2-.1 0-.2.1-.2.2v.3M23.5-41v.2c-.1.1-.1.1-.2.1-.1.1-.1.3-.1.4-.2.1 0 .2 0 .3v.2c0 .1 0 .3.1.4.1.2.3.4.4.5.2.1.4.6.6.6.2 0 .4-.1.5-.1.2 0 .4 0 .6-.1.2-.1.1-.3.3-.5.1-.1.3 0 .4-.1.2-.1.3-.3.4-.5v-.2c0-.1.1-.2.1-.3 0-.1-.1-.1-.1-.2v-.3c0-.2 0-.4-.1-.5-.4-.7-1.2-.9-2-.8-.2 0-.3.1-.4.2-.2.1-.1.2-.3.2-.1 0-.2.1-.2.2v.3M15.8-41v.2c-.1.1-.1.1-.2.1-.1.1-.1.3-.1.4-.2.1 0 .2 0 .3v.2c0 .1 0 .3.1.4.1.2.3.4.4.5.2.1.4.6.6.6.2 0 .4-.1.5-.1.2 0 .4 0 .6-.1.2-.1.1-.3.3-.5.1-.1.3 0 .4-.1.2-.1.3-.3.4-.5v-.2c0-.1.1-.2.1-.3 0-.1-.1-.1-.1-.2v-.3c0-.2 0-.4-.1-.5-.4-.7-1.2-.9-2-.8-.2 0-.3.1-.4.2-.2.1-.1.2-.3.2-.1 0-.2.1-.2.2v.3M8.2-41v.2c-.1 0-.2 0-.2.1-.1.1-.1.3-.1.4-.2.1 0 .2 0 .3v.2c0 .1 0 .3.1.4.1.2.3.4.4.5.2.1.4.6.6.6.2 0 .4-.1.5-.1.2 0 .4 0 .6-.1.2-.1.1-.3.3-.5.1-.1.3 0 .4-.1.2-.1.3-.3.4-.5v-.2c0-.1.1-.2.1-.3 0-.1-.1-.1-.1-.2v-.3c0-.2 0-.4-.1-.5-.4-.7-1.2-.9-2-.8-.2 0-.3.1-.4.2-.2.1-.1.2-.3.2-.1 0-.2.1-.2.2v.3c-.1 0-.1 0 0 0M.5-41v.2c-.1.1-.1.1-.2.1-.1.1-.1.3-.1.4-.2.1 0 .2 0 .3v.2c0 .1 0 .3.1.4.1.2.3.4.4.5.2.1.4.6.6.6.2 0 .4-.1.5-.1.2 0 .4 0 .6-.1.2-.1.1-.3.3-.5h.4c.2-.1.3-.3.4-.5v-.2c0-.1.1-.2.1-.3 0-.1-.1-.1-.1-.2v-.3c0-.2 0-.4-.1-.5-.4-.7-1.2-.9-2-.8-.2 0-.3.1-.4.2-.2.1-.1.2-.3.2-.1 0-.2.1-.2.2v.2"/></g><g><path class="st2" d="M69.4-33.4v.2c-.1.1-.1.1-.2.1-.1.1-.1.3-.1.4-.2.1 0 .2 0 .3v.2c0 .1 0 .3.1.4.1.2.3.4.4.5.2.1.4.6.6.6.2 0 .4-.1.5-.1.2 0 .4 0 .6-.1.2-.1.1-.3.3-.5.1-.1.3 0 .4-.1.2-.1.3-.3.4-.5v-.2c0-.1.1-.2.1-.3 0-.1-.1-.1-.1-.2v-.3c0-.2 0-.4-.1-.5-.4-.7-1.2-.9-2-.8-.2 0-.3.1-.4.2-.2.1-.1.2-.3.2-.1 0-.2.1-.2.2v.3M61.8-33.4v.2c-.1.1-.1.1-.2.1-.1.1-.1.3-.1.4-.2.1 0 .2 0 .3v.2c0 .1 0 .3.1.4.1.2.3.4.4.5.2.1.4.6.6.6.2 0 .4-.1.5-.1.2 0 .4 0 .6-.1.2-.1.1-.3.3-.5.1-.1.3 0 .4-.1.2-.1.3-.3.4-.5v-.2c0-.1.1-.2.1-.3 0-.1-.1-.1-.1-.2v-.3c0-.2 0-.4-.1-.5-.4-.7-1.2-.9-2-.8-.2 0-.3.1-.4.2-.2.1-.1.2-.3.2-.1 0-.2.1-.2.2v.3M54.1-33.4v.2c-.1.1-.1.1-.2.1-.1.1-.1.3-.1.4-.2.1 0 .2 0 .3v.2c0 .1 0 .3.1.4.1.2.3.4.4.5.2.1.4.6.6.6.2 0 .4-.1.5-.1.2 0 .4 0 .6-.1.2-.1.1-.3.3-.5.1-.1.3 0 .4-.1.2-.1.3-.3.4-.5v-.2c0-.1.1-.2.1-.3 0-.1-.1-.1-.1-.2v-.3c0-.2 0-.4-.1-.5-.4-.7-1.2-.9-2-.8-.2 0-.3.1-.4.2-.2.1-.1.2-.3.2-.1 0-.2.1-.2.2v.3M46.5-33.4v.2c-.1.1-.1.1-.2.1-.1.1-.1.3-.1.4-.2.1 0 .2 0 .3v.2c0 .1 0 .3.1.4.1.2.3.4.4.5.2.1.4.6.6.6.2 0 .4-.1.5-.1.2 0 .4 0 .6-.1.2-.1.1-.3.3-.5.1-.1.3 0 .4-.1.2-.1.3-.3.4-.5v-.2c0-.1.1-.2.1-.3 0-.1-.1-.1-.1-.2v-.3c0-.2 0-.4-.1-.5-.4-.7-1.2-.9-2-.8-.2 0-.3.1-.4.2-.2.1-.1.2-.3.2-.1 0-.2.1-.2.2v.3M38.8-33.4v.2c-.1.1-.1.1-.2.1-.1.1-.1.3-.1.4-.2.1 0 .2 0 .3v.2c0 .1 0 .3.1.4.1.2.3.4.4.5.2.1.4.6.6.6.2 0 .4-.1.5-.1.2 0 .4 0 .6-.1.2-.1.1-.3.3-.5.1-.1.3 0 .4-.1.2-.1.3-.3.4-.5v-.2c0-.1.1-.2.1-.3 0-.1-.1-.1-.1-.2v-.3c0-.2 0-.4-.1-.5-.4-.7-1.2-.9-2-.8-.2 0-.3.1-.4.2-.2.1-.1.2-.3.2-.1 0-.2.1-.2.2v.3M31.1-33.4v.2c-.1.1-.1.1-.2.1-.1.1-.1.3-.1.4-.2.1 0 .2 0 .3v.2c0 .1 0 .3.1.4.1.2.3.4.4.5.2.1.4.6.6.6.2 0 .4-.1.5-.1.2 0 .4 0 .6-.1.2-.1.1-.3.3-.5.1-.1.3 0 .4-.1.2-.1.3-.3.4-.5v-.2c0-.1.1-.2.1-.3 0-.1-.1-.1-.1-.2v-.3c0-.2 0-.4-.1-.5-.4-.7-1.2-.9-2-.8-.2 0-.3.1-.4.2-.2.1-.1.2-.3.2-.1 0-.2.1-.2.2v.3M23.5-33.4v.2c-.1.1-.1.1-.2.1-.1.1-.1.3-.1.4-.2.1 0 .2 0 .3v.2c0 .1 0 .3.1.4.1.2.3.4.4.5.2.1.4.6.6.6.2 0 .4-.1.5-.1.2 0 .4 0 .6-.1.2-.1.1-.3.3-.5.1-.1.3 0 .4-.1.2-.1.3-.3.4-.5v-.2c0-.1.1-.2.1-.3 0-.1-.1-.1-.1-.2v-.3c0-.2 0-.4-.1-.5-.4-.7-1.2-.9-2-.8-.2 0-.3.1-.4.2-.2.1-.1.2-.3.2-.1 0-.2.1-.2.2v.3M15.8-33.4v.2c-.1.1-.1.1-.2.1-.1.1-.1.3-.1.4-.2.1 0 .2 0 .3v.2c0 .1 0 .3.1.4.1.2.3.4.4.5.2.1.4.6.6.6.2 0 .4-.1.5-.1.2 0 .4 0 .6-.1.2-.1.1-.3.3-.5.1-.1.3 0 .4-.1.2-.1.3-.3.4-.5v-.2c0-.1.1-.2.1-.3 0-.1-.1-.1-.1-.2v-.3c0-.2 0-.4-.1-.5-.4-.7-1.2-.9-2-.8-.2 0-.3.1-.4.2-.2.1-.1.2-.3.2-.1 0-.2.1-.2.2v.3M8.2-33.4v.2c-.1.1-.2.1-.2.1-.1.1-.1.3-.1.4-.2.1 0 .2 0 .3v.2c0 .1 0 .3.1.4.1.2.3.4.4.5.2.1.4.6.6.6.2 0 .4-.1.5-.1.2 0 .4 0 .6-.1.2-.1.1-.3.3-.5.1-.1.3 0 .4-.1.2-.1.3-.3.4-.5v-.2c0-.1.1-.2.1-.3 0-.1-.1-.1-.1-.2v-.3c0-.2 0-.4-.1-.5-.4-.7-1.2-.9-2-.8-.2 0-.3.1-.4.2-.2.1-.1.2-.3.2-.1 0-.2.1-.2.2v.3c-.1 0-.1 0 0 0M.5-33.4v.2c-.1.1-.1.1-.2.1-.1.1-.1.3-.1.4-.2.1 0 .2 0 .3v.2c0 .1 0 .3.1.4.1.2.3.4.4.5.2.1.4.6.6.6.2 0 .4-.1.5-.1.2 0 .4 0 .6-.1.2-.1.1-.3.3-.5.1-.1.3 0 .4-.1.2-.1.3-.3.4-.5v-.2c0-.1.1-.2.1-.3 0-.1-.1-.1-.1-.2v-.3c0-.2 0-.4-.1-.5-.4-.7-1.2-.9-2-.8-.2 0-.3.1-.4.2-.2.1-.1.2-.3.2-.1 0-.2.1-.2.2v.3"/></g><g><path class="st2" d="M69.4-25.7v.2c-.1.1-.1.1-.2.1-.1.1-.1.3-.1.4-.2.1 0 .2 0 .3v.2c0 .1 0 .3.1.4.1.2.3.4.4.5.2.1.4.6.6.6.2 0 .4-.1.5-.1.2 0 .4 0 .6-.1.2-.1.1-.3.3-.5.1-.1.3 0 .4-.1.2-.1.3-.3.4-.5v-.2c0-.1.1-.2.1-.3 0-.1-.1-.1-.1-.2v-.3c0-.2 0-.4-.1-.5-.4-.7-1.2-.9-2-.8-.2 0-.3.1-.4.2-.2.1-.1.2-.3.2-.1 0-.2.1-.2.2v.3M61.8-25.7v.2c-.1.1-.1.1-.2.1-.1.1-.1.3-.1.4-.2.1 0 .2 0 .3v.2c0 .1 0 .3.1.4.1.2.3.4.4.5.2.1.4.6.6.6.2 0 .4-.1.5-.1.2 0 .4 0 .6-.1.2-.1.1-.3.3-.5.1-.1.3 0 .4-.1.2-.1.3-.3.4-.5v-.2c0-.1.1-.2.1-.3 0-.1-.1-.1-.1-.2v-.3c0-.2 0-.4-.1-.5-.4-.7-1.2-.9-2-.8-.2 0-.3.1-.4.2-.2.1-.1.2-.3.2-.1 0-.2.1-.2.2v.3M54.1-25.7v.2c-.1.1-.1.1-.2.1-.1.1-.1.3-.1.4-.2.1 0 .2 0 .3v.2c0 .1 0 .3.1.4.1.2.3.4.4.5.2.1.4.6.6.6.2 0 .4-.1.5-.1.2 0 .4 0 .6-.1.2-.1.1-.3.3-.5.1-.1.3 0 .4-.1.2-.1.3-.3.4-.5v-.2c0-.1.1-.2.1-.3 0-.1-.1-.1-.1-.2v-.3c0-.2 0-.4-.1-.5-.4-.7-1.2-.9-2-.8-.2 0-.3.1-.4.2-.2.1-.1.2-.3.2-.1 0-.2.1-.2.2v.3M46.5-25.7v.2c-.1.1-.1.1-.2.1-.1.1-.1.3-.1.4-.2.1 0 .2 0 .3v.2c0 .1 0 .3.1.4.1.2.3.4.4.5.2.1.4.6.6.6.2 0 .4-.1.5-.1.2 0 .4 0 .6-.1.2-.1.1-.3.3-.5.1-.1.3 0 .4-.1.2-.1.3-.3.4-.5v-.2c0-.1.1-.2.1-.3 0-.1-.1-.1-.1-.2v-.3c0-.2 0-.4-.1-.5-.4-.7-1.2-.9-2-.8-.2 0-.3.1-.4.2-.2.1-.1.2-.3.2-.1 0-.2.1-.2.2v.3M38.8-25.7v.2c-.1.1-.1.1-.2.1-.1.1-.1.3-.1.4-.2.1 0 .2 0 .3v.2c0 .1 0 .3.1.4.1.2.3.4.4.5.2.1.4.6.6.6.2 0 .4-.1.5-.1.2 0 .4 0 .6-.1.2-.1.1-.3.3-.5.1-.1.3 0 .4-.1.2-.1.3-.3.4-.5v-.2c0-.1.1-.2.1-.3 0-.1-.1-.1-.1-.2v-.3c0-.2 0-.4-.1-.5-.4-.7-1.2-.9-2-.8-.2 0-.3.1-.4.2-.2.1-.1.2-.3.2-.1 0-.2.1-.2.2v.3M31.1-25.7v.2c-.1.1-.1.1-.2.1-.1.1-.1.3-.1.4-.2.1 0 .2 0 .3v.2c0 .1 0 .3.1.4.1.2.3.4.4.5.2.1.4.6.6.6.2 0 .4-.1.5-.1.2 0 .4 0 .6-.1.2-.1.1-.3.3-.5.1-.1.3 0 .4-.1.2-.1.3-.3.4-.5v-.2c0-.1.1-.2.1-.3 0-.1-.1-.1-.1-.2v-.3c0-.2 0-.4-.1-.5-.4-.7-1.2-.9-2-.8-.2 0-.3.1-.4.2-.2.1-.1.2-.3.2-.1 0-.2.1-.2.2v.3M23.5-25.7v.2c-.1.1-.1.1-.2.1-.1.1-.1.3-.1.4-.2.1 0 .2 0 .3v.2c0 .1 0 .3.1.4.1.2.3.4.4.5.2.1.4.6.6.6.2 0 .4-.1.5-.1.2 0 .4 0 .6-.1.2-.1.1-.3.3-.5.1-.1.3 0 .4-.1.2-.1.3-.3.4-.5v-.2c0-.1.1-.2.1-.3 0-.1-.1-.1-.1-.2v-.3c0-.2 0-.4-.1-.5-.4-.7-1.2-.9-2-.8-.2 0-.3.1-.4.2-.2.1-.1.2-.3.2-.1 0-.2.1-.2.2v.3M15.8-25.7v.2c-.1.1-.1.1-.2.1-.1.1-.1.3-.1.4-.2.1 0 .2 0 .3v.2c0 .1 0 .3.1.4.1.2.3.4.4.5.2.1.4.6.6.6.2 0 .4-.1.5-.1.2 0 .4 0 .6-.1.2-.1.1-.3.3-.5.1-.1.3 0 .4-.1.2-.1.3-.3.4-.5v-.2c0-.1.1-.2.1-.3 0-.1-.1-.1-.1-.2v-.3c0-.2 0-.4-.1-.5-.4-.7-1.2-.9-2-.8-.2 0-.3.1-.4.2-.2.1-.1.2-.3.2-.1 0-.2.1-.2.2v.3M8.2-25.7v.2c-.1.1-.2 0-.2.1-.1.1-.1.3-.1.4-.2.1 0 .2 0 .3v.2c0 .1 0 .3.1.4 0 .1.2.3.3.5.2.1.4.6.6.6.2 0 .4-.1.5-.1.2 0 .4 0 .6-.1.2-.1.1-.3.3-.5.1-.1.3 0 .4-.1.2-.1.3-.3.4-.5v-.2c0-.1.1-.2.1-.3 0-.1-.1-.1-.1-.2v-.3c0-.2 0-.4-.1-.5-.4-.7-1.2-.9-2-.8-.2 0-.3.1-.4.2-.2.1-.1.2-.3.2-.1 0-.2.1-.2.2.1.2.1.2.1.3-.1 0-.1 0 0 0M.5-25.7v.2c-.1.1-.1.1-.2.1-.1.1-.1.3-.1.4-.2.1 0 .2 0 .3v.2c0 .1 0 .3.1.4.1.2.3.4.4.5.2.1.3.5.6.6.2 0 .4-.1.5-.1.2 0 .4 0 .6-.1.2-.1.1-.3.3-.5.1-.1.3 0 .4-.1.2-.1.3-.3.4-.5v-.2c0-.1.1-.2.1-.3 0-.1-.1-.1-.1-.2v-.3c0-.2 0-.4-.1-.5-.4-.7-1.2-.9-2-.8-.2 0-.3.1-.4.2-.2.1-.1.2-.3.2-.1 0-.2.1-.2.2v.3"/></g><g><path class="st2" d="M69.4-18.1v.2c-.1.1-.1.1-.2.1-.1.1-.1.3-.1.4-.2.1 0 .2 0 .3v.2c0 .1 0 .3.1.4.1.2.3.4.4.5.2.1.4.6.6.6.2 0 .4-.1.5-.1.2 0 .4 0 .6-.1.2-.1.1-.3.3-.5.1-.1.3 0 .4-.1.2-.1.3-.3.4-.5v-.2c0-.1.1-.2.1-.3 0-.1-.1-.1-.1-.2v-.3c0-.2 0-.4-.1-.5-.4-.7-1.2-.9-2-.8-.2 0-.3.1-.4.2-.2.1-.1.2-.3.2-.1 0-.2.1-.2.2v.3c0 .1 0 0 0 0M61.8-18.1v.2c-.1.1-.1.1-.2.1-.1.1-.1.3-.1.4-.2.1 0 .2 0 .3v.2c0 .1 0 .3.1.4.1.2.3.4.4.5.2.1.4.6.6.6.2 0 .4-.1.5-.1.2 0 .4 0 .6-.1.2-.1.1-.3.3-.5.1-.1.3 0 .4-.1.2-.1.3-.3.4-.5v-.2c0-.1.1-.2.1-.3 0-.1-.1-.1-.1-.2v-.3c0-.2 0-.4-.1-.5-.4-.7-1.2-.9-2-.8-.2 0-.3.1-.4.2-.2.1-.1.2-.3.2-.1 0-.2.1-.2.2v.3c0 .1 0 0 0 0M54.1-18.1v.2c-.1.1-.1.1-.2.1-.1.1-.1.3-.1.4-.2.1 0 .2 0 .3v.2c0 .1 0 .3.1.4.1.2.3.4.4.5.2.1.4.6.6.6.2 0 .4-.1.5-.1.2 0 .4 0 .6-.1.2-.1.1-.3.3-.5.1-.1.3 0 .4-.1.2-.1.3-.3.4-.5v-.2c0-.1.1-.2.1-.3 0-.1-.1-.1-.1-.2v-.3c0-.2 0-.4-.1-.5-.4-.7-1.2-.9-2-.8-.2 0-.3.1-.4.2-.2.1-.1.2-.3.2-.1 0-.2.1-.2.2v.3c0 .1 0 0 0 0M46.5-18.1v.2c-.1.1-.1.1-.2.1-.1.1-.1.3-.1.4-.2.1 0 .2 0 .3v.2c0 .1 0 .3.1.4.1.2.3.4.4.5.2.1.4.6.6.6.2 0 .4-.1.5-.1.2 0 .4 0 .6-.1.2-.1.1-.3.3-.5.1-.1.3 0 .4-.1.2-.1.3-.3.4-.5v-.2c0-.1.1-.2.1-.3 0-.1-.1-.1-.1-.2v-.3c0-.2 0-.4-.1-.5-.4-.7-1.2-.9-2-.8-.2 0-.3.1-.4.2-.2.1-.1.2-.3.2-.1 0-.2.1-.2.2v.3c0 .1 0 0 0 0M38.8-18.1v.2c-.1.1-.1.1-.2.1-.1.1-.1.3-.1.4-.2.1 0 .2 0 .3v.2c0 .1 0 .3.1.4.1.2.3.4.4.5.2.1.4.6.6.6.2 0 .4-.1.5-.1.2 0 .4 0 .6-.1.2-.1.1-.3.3-.5.1-.1.3 0 .4-.1.2-.1.3-.3.4-.5v-.2c0-.1.1-.2.1-.3 0-.1-.1-.1-.1-.2v-.3c0-.2 0-.4-.1-.5-.4-.7-1.2-.9-2-.8-.2 0-.3.1-.4.2-.2.1-.1.2-.3.2-.1 0-.2.1-.2.2v.3c0 .1 0 0 0 0M31.1-18.1v.2c-.1.1-.1.1-.2.1-.1.1-.1.3-.1.4-.2.1 0 .2 0 .3v.2c0 .1 0 .3.1.4.1.2.3.4.4.5.2.1.4.6.6.6.2 0 .4-.1.5-.1.2 0 .4 0 .6-.1.2-.1.1-.3.3-.5.1-.1.3 0 .4-.1.2-.1.3-.3.4-.5v-.2c0-.1.1-.2.1-.3 0-.1-.1-.1-.1-.2v-.3c0-.2 0-.4-.1-.5-.4-.7-1.2-.9-2-.8-.2 0-.3.1-.4.2-.2.1-.1.2-.3.2-.1 0-.2.1-.2.2v.3c0 .1 0 0 0 0M23.5-18.1v.2c-.1.1-.1.1-.2.1-.1.1-.1.3-.1.4-.2.1 0 .2 0 .3v.2c0 .1 0 .3.1.4.1.2.3.4.4.5.2.1.4.6.6.6.2 0 .4-.1.5-.1.2 0 .4 0 .6-.1.2-.1.1-.3.3-.5.1-.1.3 0 .4-.1.2-.1.3-.3.4-.5v-.2c0-.1.1-.2.1-.3 0-.1-.1-.1-.1-.2v-.3c0-.2 0-.4-.1-.5-.4-.7-1.2-.9-2-.8-.2 0-.3.1-.4.2-.2.1-.1.2-.3.2-.1 0-.2.1-.2.2v.3c0 .1 0 0 0 0M15.8-18.1v.2c-.1.1-.1.1-.2.1-.1.1-.1.3-.1.4-.2.1 0 .2 0 .3v.2c0 .1 0 .3.1.4.1.2.3.4.4.5.2.1.4.6.6.6.2 0 .4-.1.5-.1.2 0 .4 0 .6-.1.2-.1.1-.3.3-.5.1-.1.3 0 .4-.1.2-.1.3-.3.4-.5v-.2c0-.1.1-.2.1-.3 0-.1-.1-.1-.1-.2v-.3c0-.2 0-.4-.1-.5-.4-.7-1.2-.9-2-.8-.2 0-.3.1-.4.2-.2.1-.1.2-.3.2-.1 0-.2.1-.2.2v.3c0 .1 0 0 0 0M8.2-18.1v.2c-.1.1-.2.1-.2.1-.1.1-.1.3-.1.4-.2.1 0 .2 0 .3v.2c0 .1 0 .3.1.4 0 .2.2.4.3.5.2.1.4.6.6.6.2 0 .4-.1.5-.1.2 0 .4 0 .6-.1.2-.1.1-.3.3-.5.1-.1.3 0 .4-.1.2-.1.3-.3.4-.5v-.2c0-.1.1-.2.1-.3 0-.1-.1-.1-.1-.2v-.3c0-.2 0-.4-.1-.5-.4-.7-1.2-.9-2-.8-.2 0-.3.1-.4.2-.2.1-.1.2-.3.2-.1 0-.2.1-.2.2.1.3.1.2.1.3-.1.1-.1 0 0 0M.5-18.1v.2c-.1.1-.1.1-.2.1-.1.1-.1.3-.1.4-.2.1 0 .2 0 .3v.2c0 .1 0 .3.1.4.1.2.3.4.4.5.2.1.4.6.6.6.2 0 .4-.1.5-.1.2 0 .4 0 .6-.1.2-.1.1-.3.3-.5.1 0 .3.1.4.1.2-.1.3-.3.4-.5v-.2c0-.1.1-.2.1-.3 0-.1-.1-.1-.1-.2v-.3c0-.2 0-.4-.1-.5-.4-.7-1.2-.9-2-.8-.2 0-.3.1-.4.2-.2.1-.1.2-.3.2-.1 0-.2.1-.2.2v.1c0 .1 0 0 0 0"/></g><g><path class="st2" d="M69.4-10.4v.2c-.1.1-.1.1-.2.1-.1.1-.1.3-.1.4-.2.1 0 .2 0 .3v.2c0 .1 0 .3.1.4.1.2.3.4.4.5.2.1.4.6.6.6.2 0 .4-.1.5-.1.2 0 .4 0 .6-.1.2-.1.1-.3.3-.5.1-.1.3 0 .4-.1.2-.1.3-.3.4-.5v-.2c0-.1.1-.2.1-.3 0-.1-.1-.1-.1-.2v-.3c0-.2 0-.4-.1-.5-.4-.7-1.2-.9-2-.8-.2 0-.3.1-.4.2-.2.1-.1.2-.3.2-.1 0-.2.1-.2.2v.3M61.8-10.4v.2c-.1.1-.1.1-.2.1-.1.1-.1.3-.1.4-.2.1 0 .2 0 .3v.2c0 .1 0 .3.1.4.1.2.3.4.4.5.2.1.4.6.6.6.2 0 .4-.1.5-.1.2 0 .4 0 .6-.1.2-.1.1-.3.3-.4.1-.1.3 0 .4-.1.2-.1.3-.3.4-.5v-.2c0-.1.1-.2.1-.3 0-.1-.1-.1-.1-.2v-.3c0-.2 0-.4-.1-.5-.4-.7-1.2-.9-2-.8-.2 0-.3.1-.4.2-.2.1-.1.2-.3.2-.1 0-.2.1-.2.2v.2M54.1-10.4v.2c-.1.1-.1.1-.2.1-.1.1-.1.3-.1.4-.2.1 0 .2 0 .3v.2c0 .1 0 .3.1.4.1.2.3.4.4.5.2.1.4.6.6.6.2 0 .4-.1.5-.1.2 0 .4 0 .6-.1.2-.1.1-.3.3-.5.1-.1.3 0 .4-.1.2-.1.3-.3.4-.5v-.2c0-.1.1-.2.1-.3 0-.1-.1-.1-.1-.2v-.3c0-.2 0-.4-.1-.5-.4-.7-1.2-.9-2-.8-.2 0-.3.1-.4.2-.2.1-.1.2-.3.2-.1 0-.2.1-.2.2v.3M46.5-10.4v.2c-.1.1-.1.1-.2.1-.1.1-.1.3-.1.4-.2.1 0 .2 0 .3v.2c0 .1 0 .3.1.4.1.2.3.4.4.5.2.1.4.6.6.6.2 0 .4-.1.5-.1.2 0 .4 0 .6-.1.2-.1.1-.3.3-.5.1-.1.3 0 .4-.1.2-.1.3-.3.4-.5v-.2c0-.1.1-.2.1-.3 0-.1-.1-.1-.1-.2v-.3c0-.2 0-.4-.1-.5-.4-.7-1.2-.9-2-.8-.2 0-.3.1-.4.2-.2.1-.1.2-.3.2-.1 0-.2.1-.2.2v.3M38.8-10.4v.2c-.1.1-.1.1-.2.1-.1.1-.1.3-.1.4-.2.1 0 .2 0 .3v.2c0 .1 0 .3.1.4.1.2.3.4.4.5.2.1.4.6.6.6.2 0 .4-.1.5-.1.2 0 .4 0 .6-.1.2-.1.1-.3.3-.4.1-.1.3 0 .4-.1.2-.1.3-.3.4-.5v-.2c0-.1.1-.2.1-.3 0-.1-.1-.1-.1-.2v-.3c0-.2 0-.4-.1-.5-.4-.7-1.2-.9-2-.8-.2 0-.3.1-.4.2-.2.1-.1.2-.3.2-.1 0-.2.1-.2.2v.2M31.1-10.4v.2c-.1.1-.1.1-.2.1-.1.1-.1.3-.1.4-.2.1 0 .2 0 .3v.2c0 .1 0 .3.1.4.1.2.3.4.4.5.2.1.4.6.6.6.2 0 .4-.1.5-.1.2 0 .4 0 .6-.1.2-.1.1-.3.3-.5.1-.1.3 0 .4-.1.2-.1.3-.3.4-.5v-.2c0-.1.1-.2.1-.3 0-.1-.1-.1-.1-.2v-.3c0-.2 0-.4-.1-.5-.4-.7-1.2-.9-2-.8-.2 0-.3.1-.4.2-.2.1-.1.2-.3.2-.1 0-.2.1-.2.2v.3M23.5-10.4v.2c-.1.1-.1.1-.2.1-.1.1-.1.3-.1.4-.2.1 0 .2 0 .3v.2c0 .1 0 .3.1.4.1.2.3.4.4.5.2.1.4.6.6.6.2 0 .4-.1.5-.1.2 0 .4 0 .6-.1.2-.1.1-.3.3-.5.1-.1.3 0 .4-.1.2-.1.3-.3.4-.5v-.2c0-.1.1-.2.1-.3 0-.1-.1-.1-.1-.2v-.3c0-.2 0-.4-.1-.5-.4-.7-1.2-.9-2-.8-.2 0-.3.1-.4.2-.2.1-.1.2-.3.2-.1 0-.2.1-.2.2v.3M15.8-10.4v.2c-.1.1-.1.1-.2.1-.1.1-.1.3-.1.4-.2.1 0 .2 0 .3v.2c0 .1 0 .3.1.4.1.2.3.4.4.5.2.1.4.6.6.6.2 0 .4-.1.5-.1.2 0 .4 0 .6-.1.2-.1.1-.3.3-.4.1-.1.3 0 .4-.1.2-.1.3-.3.4-.5v-.2c0-.1.1-.2.1-.3 0-.1-.1-.1-.1-.2v-.3c0-.2 0-.4-.1-.5-.4-.7-1.2-.9-2-.8-.2 0-.3.1-.4.2-.2.1-.1.2-.3.2-.1 0-.2.1-.2.2v.2M8.2-10.4v.2c-.1.1-.2 0-.2.1-.1.1-.1.3-.1.3-.2.1 0 .2 0 .3v.2c0 .1 0 .3.1.4 0 .2.2.4.3.6.2.1.4.6.6.6.2 0 .4-.1.5-.1.2 0 .4 0 .6-.1.2-.1.1-.3.3-.5.1-.1.3 0 .4-.1.2-.1.3-.3.4-.5v-.2c0-.1.1-.2.1-.3 0-.1-.1-.1-.1-.2v-.3c0-.2 0-.4-.1-.5-.4-.7-1.2-.9-2-.8-.2 0-.3.1-.4.2-.2.1-.1.2-.3.2-.1 0-.2.1-.2.2.1.2.1.2.1.3-.1 0-.1 0 0 0M.5-10.4v.2c-.1.1-.1.1-.2.1 0 .1-.1.3-.1.3-.2.1 0 .2 0 .3v.2c0 .1 0 .3.1.4.1.2.3.4.4.5.2.2.3.6.6.7.2 0 .4-.1.5-.1.2 0 .4 0 .6-.1.2-.1.1-.3.3-.4.1-.1.3 0 .4-.1.2-.1.3-.3.4-.5v-.2c0-.1.1-.2.1-.3 0-.1-.1-.1-.1-.2v-.3c0-.2 0-.4-.1-.5-.4-.7-1.2-.9-2-.8-.2 0-.3.1-.4.2-.2.1-.1.2-.3.2-.1 0-.2.1-.2.2v.2"/></g></g><g><path class="st2" d="M69.4-2.8v.2c-.1.1-.1.1-.2.1-.1.1-.1.3-.1.4-.2.1 0 .2 0 .3v.2c0 .1 0 .3.1.4.1.2.3.4.4.5.2.2.4.6.6.7.2 0 .4-.1.5-.1.2 0 .4 0 .6-.1.2-.1.1-.3.3-.5.1-.1.3 0 .4-.1.2-.1.3-.3.4-.5v-.2c0-.1.1-.2.1-.3 0-.1-.1-.1-.1-.2v-.3c0-.2 0-.4-.1-.5-.4-.7-1.2-.9-2-.8-.2 0-.3.1-.4.2-.2.1-.1.2-.3.2-.1 0-.2.1-.2.2v.2c0 .1 0 0 0 0M61.8-2.8v.2c-.1.1-.1.1-.2.1-.1.1-.1.3-.1.4-.2.1 0 .2 0 .3v.2c0 .1 0 .3.1.4 0 .2.2.4.4.5.2.1.4.6.6.6.2 0 .4-.1.5-.1.2 0 .4 0 .6-.1.2-.1.1-.3.3-.5.1-.1.3 0 .4-.1.2-.1.3-.3.4-.5v-.2c0-.1.1-.2.1-.3 0-.1-.1-.1-.1-.2v-.3c0-.2 0-.4-.1-.5-.4-.7-1.2-.9-2-.8-.2 0-.3.1-.4.2-.2.1-.1.2-.3.2-.1 0-.2.1-.2.2v.3c0 .1 0 0 0 0M54.1-2.8v.2c-.1.1-.1.1-.2.1-.1.1-.1.3-.1.4-.2.1 0 .2 0 .3v.2c0 .1 0 .3.1.4.1.2.2.4.4.5.2.1.4.6.6.6.2 0 .4-.1.5-.1.2 0 .4 0 .6-.1.2-.1.1-.3.3-.5.1-.1.3 0 .4-.1.2.1.3-.1.4-.3v-.2c0-.1.1-.2.1-.3 0-.1-.1-.1-.1-.2v-.3c0-.2 0-.4-.1-.5-.4-.7-1.2-.9-2-.8-.2 0-.3.1-.4.2-.2.1-.1.2-.3.2-.1 0-.2.1-.2.2v.1c0 .1 0 0 0 0M46.5-2.8v.2c-.1.1-.1.1-.2.1-.1.1-.1.3-.1.4-.2.1 0 .2 0 .3v.2c0 .1 0 .3.1.4.1.2.3.4.4.5.1.2.3.6.5.7.2 0 .4-.1.5-.1.2 0 .4 0 .6-.1.2-.1.1-.3.3-.5.1-.1.3 0 .4-.1.2-.1.3-.3.4-.5v-.2c0-.1.1-.2.1-.3 0-.1-.1-.1-.1-.2v-.3c0-.2 0-.4-.1-.5-.4-.7-1.2-.9-2-.8-.2 0-.3.1-.4.2-.2.1-.1.2-.3.2-.1 0-.2.1-.2.2.1.2.1.1.1.2M38.8-2.8v.2c-.1.1-.1.1-.2.1-.1.1-.1.3-.1.4-.2.1 0 .2 0 .3v.2c0 .1 0 .3.1.4 0 .2.2.4.4.5.2.1.4.6.6.6.2 0 .4-.1.5-.1.2 0 .4 0 .6-.1.2-.1.1-.3.3-.5.1-.1.3 0 .4-.1.2-.1.3-.3.4-.5v-.2c0-.1.1-.2.1-.3 0-.1-.1-.1-.1-.2v-.3c0-.2 0-.4-.1-.5-.4-.7-1.2-.9-2-.8-.2 0-.3.1-.4.2-.2.1-.1.2-.3.2-.1 0-.2.1-.2.2v.3c0 .1 0 0 0 0M31.1-2.8v.2c-.1.1-.1.1-.2.1-.1.1-.1.3-.1.4-.2.1 0 .2 0 .3v.2c0 .1 0 .3.1.4.1.2.2.4.4.5.2.1.4.6.6.6.2 0 .4-.1.5-.1.2 0 .4 0 .6-.1.2-.1.1-.3.3-.5.1-.1.3 0 .4-.1.2-.1.3-.3.4-.5v-.2c0-.1.1-.2.1-.3 0-.1-.1-.1-.1-.2v-.3c0-.2 0-.4-.1-.5-.4-.7-1.2-.9-2-.8-.2 0-.3.1-.4.2-.2.1-.1.2-.3.2-.1 0-.2.1-.2.2v.3c0 .1 0 0 0 0M23.5-2.8v.2c-.1.1-.1.1-.2.1-.1.1-.1.3-.1.4-.2.1 0 .2 0 .3v.2c0 .1 0 .3.1.4.1.2.3.4.4.5.1.2.3.6.6.7.2 0 .4-.1.5-.1.2 0 .4 0 .6-.1.2-.1.1-.3.3-.5.1-.1.3 0 .4-.1.2-.1.3-.3.4-.5v-.2c0-.1.1-.2.1-.3 0-.1-.1-.1-.1-.2v-.3c0-.2 0-.4-.1-.5-.4-.7-1.2-.9-2-.8-.2 0-.3.1-.4.2-.2.1-.1.2-.3.2-.1 0-.2.1-.2.2v.2c0 .1 0 0 0 0M15.8-2.8v.2c-.1.1-.1.1-.2.1-.1.1-.1.3-.1.4-.2.1 0 .2 0 .3v.2c0 .1 0 .3.1.4.1.2.2.4.4.5.2.1.4.6.6.6.2 0 .4-.1.5-.1.2 0 .4 0 .6-.1.2-.1.1-.3.3-.5.1-.1.3 0 .4-.1.2-.1.3-.3.4-.5v-.2c0-.1.1-.2.1-.3 0-.1-.1-.1-.1-.2v-.3c0-.2 0-.4-.1-.5-.4-.7-1.2-.9-2-.8-.2 0-.3.1-.4.2-.2.1-.1.2-.3.2-.1 0-.2.1-.2.2v.3c0 .1 0 0 0 0M8.2-2.8v.2c-.1.1-.2.1-.2.1-.1.1-.1.3-.1.4-.2.1 0 .2 0 .3v.2c0 .1 0 .3.1.4 0 .2.2.4.3.5.2.2.4.6.6.7.2 0 .4-.1.5-.1.2 0 .4 0 .6-.1.2-.1.1-.3.3-.5.1-.1.3 0 .4-.1.2-.1.3-.3.4-.5v-.2c0-.1.1-.2.1-.3 0-.1-.1-.1-.1-.2v-.3c0-.2 0-.4-.1-.5-.4-.7-1.2-.9-2-.8 0 .1-.2.2-.3.2-.2.1-.1.2-.3.3-.1 0-.2.1-.2.2v.1c-.1.1-.1 0 0 0M.5-2.8v.2c-.1.1-.1.1-.2.1 0 .1-.1.3-.1.4-.2.1 0 .2 0 .3v.2c0 .1 0 .3.1.4 0 .2.2.4.4.5.2.2.3.6.6.7.2 0 .4-.1.5-.1.2 0 .4 0 .6-.1.2-.1.1-.3.3-.5.1-.1.3 0 .4-.1.2 0 .3-.2.4-.4v-.2c0-.1.1-.2.1-.3 0-.1-.1-.1-.1-.2v-.3c0-.2 0-.4-.1-.5-.4-.7-1.2-.9-2-.8-.1 0-.2.1-.4.1-.1.1-.1.2-.3.3-.1 0-.2.1-.2.2v.1c0 .1 0 0 0 0"/></g></pattern><path class="st3" d="M168.8 13.2s-.3-6.9 6.4-10.6c0 0 3.3-1.2 5.1-.9 0 0 4.5-.3 4.9-.3 0 0 3.1-.6 3.6 2.5 0 0 .1 1 .5 1.4 0 0 3.4 2.4 3.2 5.2 0 0-.4 2.4 2.5 4.9 0 0 1.5.9-.1 2.1 0 0-1.5.7-.7 1.7 0 0 .4.8-.9 1.6 0 0 .9.6 0 1.5 0 0 1.2 2.7-1.5 3.5 0 0-3.1.6-3.9 1.1 0 0-1.1.4-2 2.4 0 0-1.9 2.5-1.9 3.2 0 0-.5.9 1.1 4.4 0 0 .3 1.8-.2 2.3 0 0-6-3.8-14.4-5.2 0 0-.7-1.2 2.4-4.5 0 0 3.1-2.3.2-6.3 0 0-3.5-4.7-3.5-5.3 0 0-1.8 1.5.5 6.5 0 0 1.7 5.5-4.5 8.3 0 0-1.2.5-1.3.7 0 0-1.5-4-2.5-4.8 0 0-4.4-5.9-.7-11.4.1 0 2.4-3.8 7.7-4zM220.6 15.6s-.2-1.1-1-.1c0 0-4.4 3.8-6.5-.2 0 0-.5-1.4-.2-2.1l-.1-.5s-.7-.3.3-1.3c0 0 .9-.9-.4-1.7 0 0-1.1-1.5.3-2.4 0 0 2-6 8.1-3.8 0 0 1.7.9 2.1 1.7 0 0 .6.7 2.6 0 0 0 6.5-.8 10.4 1.3 0 0 3.8 2 4.6 2.5 0 0 5 2.1 5.8 2.7 0 0 4.3 3.2 5.5 7.4 0 0 1.6 6.4 2.4 7.9 0 0 1.6 2.5 4.1 3.1 0 0 3 1 4 2.9 0 0 .9 1.2-.7 1.8 0 0-3.3 2.9-3.6 3.3 0 0-1.7.9-1.1-1.3l.8-2.3s.1-.8-.7-1.1c0 0-5.8-1.6-5.8-1.7 0 0-3.8-1.3-4.4-5.4 0 0 .3-1-1-.4l-4.6 1.8s-1.4-.1-.7.8c0 0 2.3 3.3 1.4 8.7 0 0 .1 1.8-.8 2 0 0-5.1-.2-5.4-.2 0 0-1.6 0-.1-1.3 0 0 1.8-.7 2.2-1.3 0 0 .6-.8-.2-2.4 0 0-2.3-4.4-2.3-4.8 0 0-1.3-2.7 1.2-5.2 0 0 1.1-.9-.3-1.1 0 0-3.8-.6-4.3-.6 0 0-.9-.3-.8 1 0 0-.7 4.1-1.1 4.7 0 0-.8 1.9-1.3 2.5 0 0-1.4 2.1-1.5 5.6l-.1 1s-.1.3.4.8c0 0 .8 1-.8 1h-3.2s-1.1-.4-.7-1.7c0 0 2.5-5.4 2.3-8.6 0 0-.1-4.7-.4-5.2 0 0 .2-.9-1 .2 0 0-2.4 2.5-7.4 4.3 0 0-3.2 1.5-3.7 2.2 0 0-.5.8-.5 1.6 0 0 .4.6-.9 2.2 0 0-.6.7.2 1.5 0 0 1.7 1.9-.6 1.4 0 0-2.9-.6-2.1-4.6 0 0 .8-4 4-6.7 0 0 5.9-5.2 6.6-5.9 0-.1 1.5-1.5 1-4zM284.9 11.3s1.6-4.9 7.7-7.3c0 0 2.1-1.1 2.8-1.7 0 0 1.3 1.6-.4 6.1 0 0 7-2.3 12 .7 0 0 6.2 2.7 6.7 2.7 0 0-.3 3.3-8.6 8.2 0 0 5.3 5.9 5.8 10.4 0 0 1.1 4.2 1.5 4.7 0 0-3.4 1.6-11.8.3 0 0-5.1-1.9-5.9-3.9l-1.4 3.3s-1 2.3-2.2 3.3c0 0-1.9 2.4-2.1 3.5 0 0-8.9-7.5-8-16.9 0 0-3.9 1.1-5.1 1.1l-1.5-.3s2.3-4 2.8-6.6c0 0 1.9-4.8 5.8-5.5 0 0-4.4-2.7-5.8-7.5 0 0-1.1-1.2 1.1-1.6 0 0 2.3-1 2.2.9.1-.1.9 4.2 4.4 6.1zM369.7 32.3s-3.1 2.9-3.5 3.5l-4.3 3.9s-1.2 1.9-2.7.5l-2.3-2.3s-1.3-1.3-3.2-1.6c0 0-7.9-2.5-9.2-3.8 0 0-2.2-1-3.4-.9 0 0-4.7.1-8.1-2.3l-3-2.5-.6-.5s-1.2-1.1-.2-1.9c0 0 .5-1.1 2.6-.1l3.1 1.8s.6.6 2.1.5l2.3-.1s1.8-.6-.5-1.3c0 0-4.5-.7-6.7-3 0 0-3.8-2.5-3.9-3.5l-1.1-1.5s-.7-1.9 1.3-2.4c0 0 1-.1 2.2 1.1 0 0 2.7 2.4 3.7 3.1 0 0 3.7 1.2 4.7 1.4 0 0 2.7 1.1 1.4-.6l-3.5-1.8s-3.3-1.4-4.1-3.5l-2.9-5s-1.7-1.9-.1-2.8c0 0 1.5-1.3 3.1.6l3.3 4.2s1.4 1.8 2.2 2.1l3.2 1.7.9.6s2.3.6.4-1.1l-2.6-2.3s-2.1-1.8-3.1-3.7l-1.7-3.6s-.9-2.6 1.6-2.5c0 0 1.6.4 2.5 2.3l1.5 2.5s1.2 1.6 3.5 2.4l6.4 3.2 1.5.3s1.6.6.4-1l-1.6-2.1s-2.1-1.7-2.2-2.3c0 0-1.6-2.6-.5-3 0 0 1.1-1.7 2.9.5 0 0 2.3 2.3 4 3.2 0 0 3.1 3 4.3 4.5 0 0 3.5 4.9 4.3 6.3 0 0 1.9 2.9 1.5 5.7 0 0 .7 1.5 2.1 2.5 0 0 2 1.9 2.2 2.5.2 0 1.5 1-.2 2.1z"/><path class="st4" d="M395.7 28.4l-8.2-6.4s3.9-.7 2.7-2.9l-1.6-5.1 2.9.6s3.3 1 3.9-1.1l.7-1.5 3.8 4.5s2 1.9 1.6-.6l-1.7-10.6s3.9 3.3 4.7 1.1l3-6.5 2.8 6.3s.7 2.1 2.9.5l2-1.2-2.2 10.7s-.5 2.5 1.7.7l3.9-4.5.7 1.3s.2 2.1 2.6 1.6l4.2-.6-1.7 4.9s-1.1 2.3 2.3 3.1l-9.2 6.9s-2.2.8 0 4.7l-7.7-1.5s-2.1-.9-1.9 1.5l.1 8.7-2.2-.1.4-8.8s.7-1.9-1.6-1.7l-8 1.5.9-2.1c0 .1 1-1.9-1.8-3.4z"/><g><path d="M6.6 60.6v6h4.3V68H6.6v11.9c0 1.2.2 2 .5 2.4.4.5.8.7 1.4.7.4 0 .9-.1 1.3-.4.4-.3.7-.7 1-1.2h.8c-.5 1.3-1.1 2.3-2 3-.9.7-1.7 1-2.7 1-.6 0-1.2-.2-1.8-.5-.6-.3-1-.8-1.3-1.5-.3-.6-.4-1.6-.4-2.9V68h-3v-.7c.7-.3 1.5-.8 2.3-1.5.8-.7 1.5-1.5 2.1-2.5.2-.5.7-1.4 1.2-2.7h.6zM18.1 56.4v13.5c1.5-1.6 2.7-2.7 3.5-3.1.9-.5 1.7-.7 2.6-.7 1 0 1.9.3 2.7.9.7.6 1.3 1.5 1.7 2.7.3.9.4 2.4.4 4.7v6.5c0 1.2.1 2 .3 2.4.1.3.4.6.7.8.3.2.9.3 1.8.3v.6h-9v-.7h.4c.9 0 1.5-.1 1.8-.4.3-.3.6-.6.7-1.2 0-.2.1-.8.1-1.9v-6.5c0-2-.1-3.3-.3-4-.2-.6-.5-1.1-1-1.4-.5-.3-1-.5-1.6-.5-.7 0-1.3.2-2 .5S19.3 70 18.3 71v9.7c0 1.3.1 2 .2 2.4.1.3.4.6.8.8.4.2 1 .3 2 .3v.8H12v-.7c.8 0 1.5-.1 1.9-.4.3-.1.5-.4.6-.8s.2-1.1.2-2.3V64.2c0-2.1-.1-3.4-.2-3.9s-.3-.8-.5-1c-.2-.2-.5-.3-.8-.3-.3 0-.7.1-1.4.3l-.3-.7 5.5-2.3h1.1zM36.4 73.5c0 2.7.6 4.9 2 6.4 1.3 1.6 2.9 2.3 4.7 2.3 1.2 0 2.3-.3 3.1-1 .9-.7 1.6-1.8 2.2-3.4l.6.4c-.3 1.8-1.1 3.5-2.5 5s-3 2.3-5.1 2.3c-2.2 0-4.1-.9-5.7-2.6-1.6-1.7-2.4-4-2.4-6.9 0-3.1.8-5.6 2.4-7.4 1.6-1.8 3.6-2.6 6.1-2.6 2.1 0 3.8.7 5.1 2 1.3 1.4 2 3.2 2 5.5H36.4zm0-1.1h8.5c-.1-1.2-.2-2-.4-2.5-.3-.8-.8-1.3-1.5-1.8s-1.4-.6-2.1-.6c-1.1 0-2.1.4-3 1.3-.9.8-1.4 2-1.5 3.6zM64.7 58.5v-.7h11.7v.7h-1c-1.1 0-1.9.3-2.4 1-.3.4-.5 1.5-.5 3.1v13.3c0 2-.2 3.7-.7 5-.4 1.3-1.2 2.4-2.3 3.3-1.1.9-2.4 1.4-4 1.4-1.3 0-2.3-.3-3-.9s-1.1-1.3-1.1-2.1c0-.7.2-1.2.5-1.5.4-.4 1-.6 1.5-.6.4 0 .8.1 1.2.4.3.3.8 1 1.3 2.2.3.7.7 1.1 1.2 1.1.4 0 .7-.2 1-.7.3-.4.5-1.2.5-2.4V62.6c0-1.4-.1-2.3-.3-2.7-.1-.3-.4-.6-.8-.9-.6-.3-1.2-.5-1.8-.5h-1zM88.3 82.4c-1.9 1.5-3.1 2.3-3.6 2.5-.7.3-1.5.5-2.3.5-1.3 0-2.3-.4-3.1-1.3-.8-.9-1.2-2-1.2-3.4 0-.9.2-1.7.6-2.3.5-.9 1.5-1.8 2.9-2.6s3.6-1.8 6.8-2.9v-.7c0-1.8-.3-3.1-.9-3.8-.6-.7-1.4-1-2.5-1-.8 0-1.5.2-2 .7-.5.5-.8 1-.8 1.6v1.2c0 .6-.2 1.1-.5 1.4-.3.3-.7.5-1.2.5s-.9-.2-1.2-.5c-.3-.3-.5-.8-.5-1.4 0-1.2.6-2.2 1.8-3.2 1.2-1 2.8-1.4 5-1.4 1.6 0 3 .3 4 .8.8.4 1.4 1.1 1.7 1.9.2.6.4 1.8.4 3.5v6.2c0 1.8 0 2.8.1 3.2.1.4.2.7.3.8.2.1.3.2.5.2s.4 0 .6-.1c.3-.2.8-.7 1.6-1.5v1.1c-1.5 2-2.9 3-4.3 3-.7 0-1.2-.2-1.6-.7-.4-.5-.6-1.2-.6-2.3zm0-1.3v-7c-2 .8-3.3 1.4-3.9 1.7-1.1.6-1.8 1.2-2.3 1.8-.5.6-.7 1.3-.7 2.1 0 1 .3 1.8.9 2.4.6.6 1.2 1 2 1 1 0 2.3-.7 4-2zM101.5 70c2.2-2.6 4.2-3.9 6.2-3.9 1 0 1.9.3 2.6.8.7.5 1.3 1.3 1.7 2.5.3.8.4 2 .4 3.7V81c0 1.2.1 2 .3 2.4.1.3.4.6.7.8.3.2.9.3 1.8.3v.5h-9.1v-.7h.4c.9 0 1.5-.1 1.8-.4.3-.3.6-.6.7-1.2.1-.2.1-.8.1-1.9v-7.5c0-1.7-.2-2.9-.7-3.6-.4-.8-1.2-1.1-2.2-1.1-1.6 0-3.2.9-4.8 2.6v9.7c0 1.2.1 2 .2 2.3.2.4.4.7.8.9.3.2 1 .3 2 .3v.6h-9.1v-.7h.4c.9 0 1.6-.2 1.9-.7s.5-1.4.5-2.7V74c0-2.2 0-3.6-.2-4s-.3-.8-.5-1-.5-.3-.8-.3c-.4 0-.8.1-1.3.3l-.3-.7 5.5-2.2h.9V70zM119.8 73.5c0 2.7.6 4.9 2 6.4 1.3 1.6 2.9 2.3 4.7 2.3 1.2 0 2.3-.3 3.1-1 .9-.7 1.6-1.8 2.2-3.4l.6.4c-.3 1.8-1.1 3.5-2.5 5s-3 2.3-5.1 2.3c-2.2 0-4.1-.9-5.7-2.6-1.6-1.7-2.4-4-2.4-6.9 0-3.1.8-5.6 2.4-7.4 1.6-1.8 3.6-2.6 6.1-2.6 2.1 0 3.8.7 5.1 2 1.3 1.4 2 3.2 2 5.5h-12.5zm0-1.1h8.5c-.1-1.2-.2-2-.4-2.5-.3-.8-.8-1.3-1.5-1.8s-1.4-.6-2.1-.6c-1.1 0-2.1.4-3 1.3-.9.8-1.4 2-1.5 3.6zM169.2 57.1l.7 8.6h-.7c-.7-2.1-1.6-3.8-2.8-4.8-1.6-1.6-3.7-2.4-6.2-2.4-3.5 0-6.1 1.4-7.9 4.1-1.5 2.3-2.3 5.1-2.3 8.3 0 2.6.5 5 1.5 7.1 1 2.1 2.3 3.7 3.9 4.7s3.3 1.5 5 1.5c1 0 2-.1 2.9-.4.9-.3 1.8-.6 2.7-1.1v-7.9c0-1.4-.1-2.3-.3-2.7s-.5-.7-1-1c-.4-.2-1.2-.3-2.3-.3V70h10.5v.8h-.5c-1 0-1.8.3-2.1 1-.3.5-.4 1.5-.4 2.9V83c-1.5.8-3.1 1.4-4.6 1.8-1.5.4-3.2.6-5 .6-5.3 0-9.3-1.7-12-5.1-2-2.5-3.1-5.5-3.1-8.8 0-2.4.6-4.7 1.7-6.9 1.4-2.6 3.2-4.6 5.6-6 2-1.2 4.4-1.7 7.1-1.7 1 0 1.9.1 2.7.2.8.2 2 .5 3.4 1.1.8.3 1.3.4 1.5.4s.5-.1.7-.4c.2-.2.3-.7.3-1.4h1zM184 66.1c2.8 0 5 1.1 6.7 3.2 1.4 1.8 2.1 3.9 2.1 6.2 0 1.6-.4 3.3-1.2 5-.8 1.7-1.9 3-3.3 3.8-1.4.9-2.9 1.3-4.6 1.3-2.8 0-5-1.1-6.6-3.3-1.4-1.9-2.1-4-2.1-6.3 0-1.7.4-3.4 1.3-5 .8-1.7 1.9-2.9 3.3-3.7 1.4-.8 2.8-1.2 4.4-1.2zm-.7 1.3c-.7 0-1.4.2-2.1.6-.7.4-1.3 1.2-1.7 2.2-.4 1.1-.7 2.4-.7 4.1 0 2.7.5 5 1.6 6.9 1.1 1.9 2.5 2.9 4.2 2.9 1.3 0 2.4-.5 3.2-1.6.8-1.1 1.3-2.9 1.3-5.5 0-3.3-.7-5.8-2.1-7.7-1-1.3-2.2-1.9-3.7-1.9zM204.5 66.1c2.8 0 5 1.1 6.7 3.2 1.4 1.8 2.1 3.9 2.1 6.2 0 1.6-.4 3.3-1.2 5-.8 1.7-1.9 3-3.3 3.8-1.4.9-2.9 1.3-4.6 1.3-2.8 0-5-1.1-6.6-3.3-1.4-1.9-2.1-4-2.1-6.3 0-1.7.4-3.4 1.3-5 .8-1.7 1.9-2.9 3.3-3.7 1.5-.8 2.9-1.2 4.4-1.2zm-.6 1.3c-.7 0-1.4.2-2.1.6-.7.4-1.3 1.2-1.7 2.2-.4 1.1-.7 2.4-.7 4.1 0 2.7.5 5 1.6 6.9 1.1 1.9 2.5 2.9 4.2 2.9 1.3 0 2.4-.5 3.2-1.6.8-1.1 1.3-2.9 1.3-5.5 0-3.3-.7-5.8-2.1-7.7-1-1.3-2.2-1.9-3.7-1.9zM229.1 82.9c-.9.9-1.8 1.6-2.6 2-.9.4-1.8.6-2.8.6-2 0-3.8-.8-5.3-2.5s-2.2-3.8-2.2-6.5.8-5.1 2.5-7.2c1.7-2.2 3.8-3.3 6.4-3.3 1.6 0 3 .5 4 1.5v-3.4c0-2.1 0-3.4-.2-3.9s-.3-.8-.5-1c-.2-.2-.5-.3-.8-.3-.3 0-.8.1-1.4.3l-.3-.7 5.5-2.3h.9v21.3c0 2.2.1 3.5.2 3.9.1.5.3.8.5 1 .2.2.5.3.8.3.4 0 .8-.1 1.4-.3l.2.7-5.5 2.3h-.9v-2.5zm0-1.4V72c-.1-.9-.3-1.7-.7-2.5s-.9-1.3-1.6-1.7c-.7-.4-1.3-.6-1.9-.6-1.2 0-2.2.5-3.2 1.6-1.2 1.4-1.8 3.4-1.8 6.1 0 2.7.6 4.8 1.8 6.2 1.2 1.4 2.5 2.2 3.9 2.2 1.2.1 2.4-.5 3.5-1.8zM247.1 82.4c-1.9 1.5-3.1 2.3-3.6 2.5-.7.3-1.5.5-2.3.5-1.3 0-2.3-.4-3.1-1.3-.8-.9-1.2-2-1.2-3.4 0-.9.2-1.7.6-2.3.5-.9 1.5-1.8 2.9-2.6s3.6-1.8 6.8-2.9v-.7c0-1.8-.3-3.1-.9-3.8-.6-.7-1.4-1-2.5-1-.8 0-1.5.2-2 .7-.5.5-.8 1-.8 1.6v1.2c0 .6-.2 1.1-.5 1.4-.3.3-.7.5-1.2.5s-.9-.2-1.2-.5c-.3-.3-.5-.8-.5-1.4 0-1.2.6-2.2 1.8-3.2 1.2-1 2.8-1.4 5-1.4 1.6 0 3 .3 4 .8.8.4 1.4 1.1 1.7 1.9.2.6.4 1.8.4 3.5v6.2c0 1.8 0 2.8.1 3.2.1.4.2.7.3.8.2.1.3.2.5.2s.4 0 .6-.1c.3-.2.8-.7 1.6-1.5v1.1c-1.5 2-2.9 3-4.3 3-.7 0-1.2-.2-1.6-.7-.4-.5-.6-1.2-.6-2.3zm0-1.3v-7c-2 .8-3.3 1.4-3.9 1.7-1.1.6-1.8 1.2-2.3 1.8-.5.6-.7 1.3-.7 2.1 0 1 .3 1.8.9 2.4.6.6 1.2 1 2 1 1 0 2.3-.7 4-2zM261.3 56.4v24.4c0 1.2.1 1.9.3 2.3s.4.7.8.9 1 .3 1.9.3v.7h-9v-.7c.8 0 1.4-.1 1.7-.3s.5-.5.7-.9c.2-.4.3-1.2.3-2.3V64.1c0-2.1 0-3.4-.1-3.8s-.2-.8-.5-1c-.2-.2-.5-.3-.8-.3-.3 0-.8.1-1.3.3l-.3-.7 5.5-2.3h.8zM272.7 56.4v24.4c0 1.2.1 1.9.3 2.3s.4.7.8.9 1 .3 1.9.3v.7h-9v-.7c.8 0 1.4-.1 1.7-.3s.5-.5.7-.9c.2-.4.3-1.2.3-2.3V64.1c0-2.1 0-3.4-.1-3.8s-.2-.8-.5-1c-.2-.2-.5-.3-.8-.3-.3 0-.8.1-1.3.3l-.3-.7 5.5-2.3h.8zM299.5 84.3v.7h-11.7v-.7h1c1.1 0 1.9-.3 2.5-1 .3-.4.5-1.5.5-3.1V62.6c0-1.4-.1-2.3-.3-2.7-.1-.3-.4-.6-.8-.9-.6-.3-1.2-.5-1.8-.5h-1v-.7h11.7v.7h-1c-1.1 0-1.9.3-2.4 1-.3.4-.5 1.5-.5 3.1v17.6c0 1.4.1 2.3.3 2.7.1.3.4.6.8.9.6.3 1.2.5 1.8.5h.9zM307.2 70c2.2-2.6 4.2-3.9 6.2-3.9 1 0 1.9.3 2.6.8.7.5 1.3 1.3 1.7 2.5.3.8.4 2 .4 3.7V81c0 1.2.1 2 .3 2.4.1.3.4.6.7.8.3.2.9.3 1.8.3v.5h-9.1v-.7h.4c.9 0 1.5-.1 1.8-.4.3-.3.6-.6.7-1.2.1-.2.1-.8.1-1.9v-7.5c0-1.7-.2-2.9-.7-3.6s-1.2-1.1-2.2-1.1c-1.6 0-3.2.9-4.8 2.6v9.7c0 1.2.1 2 .2 2.3.2.4.4.7.8.9.3.2 1 .3 2 .3v.6H301v-.7h.4c.9 0 1.6-.2 1.9-.7s.5-1.4.5-2.7V74c0-2.2 0-3.6-.2-4s-.3-.8-.5-1c-.2-.2-.5-.3-.8-.3-.4 0-.8.1-1.3.3l-.3-.7 5.5-2.2h.9V70zM334.3 66.1v6.3h-.7c-.5-2-1.2-3.3-2-4-.8-.7-1.8-1.1-3-1.1-.9 0-1.7.2-2.3.7-.6.5-.9 1-.9 1.6 0 .8.2 1.4.6 1.9.4.5 1.3 1.1 2.5 1.7l2.9 1.4c2.7 1.3 4.1 3.1 4.1 5.2 0 1.7-.6 3-1.9 4s-2.7 1.5-4.2 1.5c-1.1 0-2.4-.2-3.9-.6-.4-.1-.8-.2-1.1-.2-.3 0-.5.2-.7.5h-.7v-6.6h.7c.4 1.9 1.1 3.3 2.2 4.2 1.1 1 2.2 1.4 3.6 1.4.9 0 1.7-.3 2.3-.8.6-.5.9-1.2.9-2 0-.9-.3-1.7-1-2.3-.7-.6-1.9-1.4-3.9-2.4-1.9-1-3.2-1.8-3.8-2.6-.6-.8-.9-1.7-.9-2.9 0-1.5.5-2.8 1.6-3.8 1-1 2.4-1.5 4-1.5.7 0 1.6.2 2.6.5.7.2 1.1.3 1.4.3.2 0 .4 0 .5-.1s.3-.3.4-.6h.7zM343.7 60.6v6h4.3V68h-4.3v11.9c0 1.2.2 2 .5 2.4.3.4.8.6 1.3.6.4 0 .9-.1 1.3-.4.4-.3.7-.7 1-1.2h.8c-.5 1.3-1.1 2.3-2 3s-1.7 1-2.7 1c-.6 0-1.2-.2-1.8-.5-.6-.3-1-.8-1.3-1.5-.3-.6-.4-1.6-.4-2.9V68h-2.9v-.7c.7-.3 1.5-.8 2.3-1.5.8-.7 1.5-1.5 2.1-2.5.3-.5.7-1.4 1.3-2.8h.5zM356.2 66.1v14.8c0 1.2.1 1.9.3 2.3.2.4.4.7.7.9.3.2.9.3 1.8.3v.6h-9v-.7c.9 0 1.5-.1 1.8-.3.3-.2.6-.5.7-.9.2-.4.3-1.2.3-2.3v-7.1c0-2-.1-3.3-.2-3.9-.1-.4-.2-.7-.4-.9-.2-.2-.5-.3-.8-.3-.4 0-.8.1-1.4.3l-.3-.7 5.5-2.2h1zm-1.7-9.7c.6 0 1 .2 1.4.6.4.4.6.9.6 1.4 0 .6-.2 1-.6 1.4-.4.4-.9.6-1.4.6s-1-.2-1.4-.6c-.4-.4-.6-.9-.6-1.4 0-.6.2-1 .6-1.4.3-.4.8-.6 1.4-.6zM366.6 60.6v6h4.3V68h-4.3v11.9c0 1.2.2 2 .5 2.4.3.4.8.6 1.3.6.4 0 .9-.1 1.3-.4.4-.3.7-.7 1-1.2h.8c-.5 1.3-1.1 2.3-2 3-.9.7-1.7 1-2.7 1-.6 0-1.2-.2-1.8-.5s-1-.8-1.3-1.5c-.3-.6-.4-1.6-.4-2.9V68h-2.9v-.7c.7-.3 1.5-.8 2.3-1.5s1.5-1.5 2.1-2.5c.3-.5.7-1.4 1.3-2.8h.5zM388.8 66.6v11.2c0 2.1 0 3.4.2 3.9s.3.8.5 1 .5.3.8.3c.4 0 .9-.1 1.4-.3l.3.7-5.5 2.3h-.9v-3.9c-1.6 1.7-2.8 2.8-3.6 3.2-.8.4-1.7.7-2.6.7-1 0-1.9-.3-2.7-.9-.8-.6-1.3-1.4-1.6-2.3-.3-.9-.4-2.3-.4-4v-8.2c0-.9-.1-1.5-.3-1.8-.2-.3-.5-.6-.8-.8s-1-.3-2-.3v-.7h6.4V79c0 1.7.3 2.8.9 3.4.6.5 1.3.8 2.2.8.6 0 1.2-.2 2-.5.7-.4 1.6-1.1 2.6-2.1V70.1c0-1-.2-1.8-.6-2.1s-1.2-.6-2.4-.6v-.7h6.1zM398.6 60.6v6h4.3V68h-4.3v11.9c0 1.2.2 2 .5 2.4.3.4.8.6 1.3.6.4 0 .9-.1 1.3-.4.4-.3.7-.7 1-1.2h.8c-.5 1.3-1.1 2.3-2 3s-1.7 1-2.7 1c-.6 0-1.2-.2-1.8-.5-.6-.3-1-.8-1.3-1.5-.3-.6-.4-1.6-.4-2.9V68h-2.9v-.7c.7-.3 1.5-.8 2.3-1.5.8-.7 1.5-1.5 2.1-2.5.3-.5.7-1.4 1.3-2.8h.5zM407.8 73.5c0 2.7.6 4.9 2 6.4 1.3 1.6 2.9 2.3 4.7 2.3 1.2 0 2.3-.3 3.1-1s1.6-1.8 2.2-3.4l.6.4c-.3 1.8-1.1 3.5-2.5 5s-3 2.3-5.1 2.3c-2.2 0-4.1-.9-5.7-2.6-1.6-1.7-2.4-4-2.4-6.9 0-3.1.8-5.6 2.4-7.4 1.6-1.8 3.6-2.6 6.1-2.6 2.1 0 3.8.7 5.1 2s2 3.2 2 5.5h-12.5zm0-1.1h8.5c-.1-1.2-.2-2-.4-2.5-.3-.8-.8-1.3-1.5-1.8s-1.4-.6-2.1-.6c-1.1 0-2.1.4-3 1.3-.9.8-1.4 2-1.5 3.6zM442.2 66.1c2.8 0 5 1.1 6.7 3.2 1.4 1.8 2.1 3.9 2.1 6.2 0 1.6-.4 3.3-1.2 5-.8 1.7-1.9 3-3.3 3.8-1.4.9-2.9 1.3-4.6 1.3-2.8 0-5-1.1-6.6-3.3-1.4-1.9-2.1-4-2.1-6.3 0-1.7.4-3.4 1.3-5 .8-1.7 1.9-2.9 3.3-3.7 1.5-.8 2.9-1.2 4.4-1.2zm-.6 1.3c-.7 0-1.4.2-2.1.6-.7.4-1.3 1.2-1.7 2.2-.4 1.1-.7 2.4-.7 4.1 0 2.7.5 5 1.6 6.9 1.1 1.9 2.5 2.9 4.2 2.9 1.3 0 2.4-.5 3.2-1.6.8-1.1 1.3-2.9 1.3-5.5 0-3.3-.7-5.8-2.1-7.7-1-1.3-2.2-1.9-3.7-1.9zM461 68.1v12.1c0 1.7.2 2.8.6 3.3.5.6 1.2.9 2 .9h1.7v.6h-11v-.7h.8c.5 0 1-.1 1.5-.4.4-.3.7-.6.9-1.1.2-.5.3-1.3.3-2.7v-12h-3.6v-1.4h3.6v-1.2c0-1.8.3-3.4.9-4.7.6-1.3 1.5-2.3 2.7-3.1 1.2-.8 2.6-1.2 4.1-1.2 1.4 0 2.7.5 3.9 1.4.8.6 1.2 1.3 1.2 2 0 .4-.2.8-.5 1.1-.3.4-.7.5-1.1.5-.3 0-.6-.1-1-.3-.3-.2-.8-.7-1.3-1.4s-1-1.2-1.4-1.5c-.4-.3-.9-.4-1.4-.4-.6 0-1.1.2-1.6.5-.4.3-.7.8-.9 1.5-.2.7-.3 2.5-.3 5.3v1.3h4.7v1.4H461zM501.3 57.1l.6 9.3h-.6c-.8-2.8-2-4.8-3.6-6s-3.4-1.8-5.5-1.8c-1.8 0-3.4.5-4.9 1.4-1.5.9-2.6 2.4-3.4 4.4-.8 2-1.3 4.5-1.3 7.5 0 2.5.4 4.6 1.2 6.4.8 1.8 2 3.2 3.6 4.2s3.4 1.4 5.4 1.4c1.8 0 3.3-.4 4.7-1.1s2.8-2.3 4.5-4.5l.6.4c-1.4 2.4-3 4.2-4.8 5.3-1.8 1.1-4 1.7-6.5 1.7-4.5 0-8-1.7-10.5-5-1.8-2.5-2.8-5.4-2.8-8.8 0-2.7.6-5.2 1.8-7.5 1.2-2.3 2.9-4 5-5.3 2.1-1.3 4.5-1.9 7-1.9 2 0 3.9.5 5.8 1.4.6.3 1 .4 1.2.4.4 0 .7-.1.9-.4.3-.4.6-.9.7-1.5h.9zM515.7 82.4c-1.9 1.5-3.1 2.3-3.6 2.5-.7.3-1.5.5-2.3.5-1.3 0-2.3-.4-3.1-1.3-.8-.9-1.2-2-1.2-3.4 0-.9.2-1.7.6-2.3.5-.9 1.5-1.8 2.9-2.6s3.6-1.8 6.8-2.9v-.7c0-1.8-.3-3.1-.9-3.8-.6-.7-1.4-1-2.5-1-.8 0-1.5.2-2 .7-.5.5-.8 1-.8 1.6v1.2c0 .6-.2 1.1-.5 1.4-.3.3-.7.5-1.2.5s-.9-.2-1.2-.5-.5-.8-.5-1.4c0-1.2.6-2.2 1.8-3.2 1.2-1 2.8-1.4 5-1.4 1.6 0 3 .3 4 .8.8.4 1.4 1.1 1.7 1.9.2.6.4 1.8.4 3.5v6.2c0 1.8 0 2.8.1 3.2.1.4.2.7.3.8.2.1.3.2.5.2s.4 0 .6-.1c.3-.2.8-.7 1.6-1.5v1.1c-1.5 2-2.9 3-4.3 3-.7 0-1.2-.2-1.6-.7s-.6-1.2-.6-2.3zm0-1.3v-7c-2 .8-3.3 1.4-3.9 1.7-1.1.6-1.8 1.2-2.3 1.8-.5.6-.7 1.3-.7 2.1 0 1 .3 1.8.9 2.4.6.6 1.2 1 2 1 1 0 2.3-.7 4-2zM528.9 70c2.2-2.6 4.2-3.9 6.2-3.9 1 0 1.9.3 2.6.8.7.5 1.3 1.3 1.7 2.5.3.8.4 2 .4 3.7V81c0 1.2.1 2 .3 2.4.1.3.4.6.7.8.3.2.9.3 1.8.3v.5h-9.1v-.7h.4c.9 0 1.5-.1 1.8-.4.3-.3.6-.6.7-1.2.1-.2.1-.8.1-1.9v-7.5c0-1.7-.2-2.9-.7-3.6-.4-.8-1.2-1.1-2.2-1.1-1.6 0-3.2.9-4.8 2.6v9.7c0 1.2.1 2 .2 2.3.2.4.4.7.8.9.3.2 1 .3 2 .3v.6h-9.1v-.7h.4c.9 0 1.6-.2 1.9-.7s.5-1.4.5-2.7V74c0-2.2 0-3.6-.2-4s-.3-.8-.5-1c-.2-.2-.5-.3-.8-.3-.4 0-.8.1-1.3.3l-.3-.7 5.5-2.2h.9V70zM554.5 82.4c-1.9 1.5-3.1 2.3-3.6 2.5-.7.3-1.5.5-2.3.5-1.3 0-2.3-.4-3.1-1.3-.8-.9-1.2-2-1.2-3.4 0-.9.2-1.7.6-2.3.5-.9 1.5-1.8 2.9-2.6s3.6-1.8 6.8-2.9v-.7c0-1.8-.3-3.1-.9-3.8-.6-.7-1.4-1-2.5-1-.8 0-1.5.2-2 .7-.5.5-.8 1-.8 1.6v1.2c0 .6-.2 1.1-.5 1.4-.3.3-.7.5-1.2.5s-.9-.2-1.2-.5c-.3-.3-.5-.8-.5-1.4 0-1.2.6-2.2 1.8-3.2 1.2-1 2.8-1.4 5-1.4 1.6 0 3 .3 4 .8.8.4 1.4 1.1 1.7 1.9.2.6.4 1.8.4 3.5v6.2c0 1.8 0 2.8.1 3.2.1.4.2.7.3.8.2.1.3.2.5.2s.4 0 .6-.1c.3-.2.8-.7 1.6-1.5v1.1c-1.5 2-2.9 3-4.3 3-.7 0-1.2-.2-1.6-.7-.4-.5-.6-1.2-.6-2.3zm0-1.3v-7c-2 .8-3.3 1.4-3.9 1.7-1.1.6-1.8 1.2-2.3 1.8-.5.6-.7 1.3-.7 2.1 0 1 .3 1.8.9 2.4.6.6 1.2 1 2 1 1 0 2.3-.7 4-2zM575.3 82.9c-.9.9-1.8 1.6-2.6 2-.9.4-1.8.6-2.8.6-2 0-3.8-.8-5.3-2.5s-2.2-3.8-2.2-6.5.8-5.1 2.5-7.2c1.7-2.2 3.8-3.3 6.4-3.3 1.6 0 3 .5 4 1.5v-3.4c0-2.1-.1-3.4-.2-3.9s-.3-.8-.5-1c-.2-.2-.5-.3-.8-.3-.3 0-.8.1-1.4.3l-.3-.7 5.5-2.3h.9v21.3c0 2.2.1 3.5.2 3.9.1.5.3.8.5 1 .2.2.5.3.8.3.4 0 .8-.1 1.4-.3l.2.7-5.5 2.3h-.9v-2.5zm0-1.4V72c-.1-.9-.3-1.7-.7-2.5-.4-.8-.9-1.3-1.6-1.7-.7-.4-1.3-.6-1.9-.6-1.2 0-2.2.5-3.2 1.6-1.2 1.4-1.8 3.4-1.8 6.1 0 2.7.6 4.8 1.8 6.2 1.2 1.4 2.5 2.2 3.9 2.2 1.2.1 2.4-.5 3.5-1.8zM593.3 82.4c-1.9 1.5-3.1 2.3-3.6 2.5-.7.3-1.5.5-2.3.5-1.3 0-2.3-.4-3.1-1.3-.8-.9-1.2-2-1.2-3.4 0-.9.2-1.7.6-2.3.5-.9 1.5-1.8 2.9-2.6s3.6-1.8 6.8-2.9v-.7c0-1.8-.3-3.1-.9-3.8-.6-.7-1.4-1-2.5-1-.8 0-1.5.2-2 .7-.5.5-.8 1-.8 1.6v1.2c0 .6-.2 1.1-.5 1.4-.3.3-.7.5-1.2.5s-.9-.2-1.2-.5c-.3-.3-.5-.8-.5-1.4 0-1.2.6-2.2 1.8-3.2 1.2-1 2.8-1.4 5-1.4 1.6 0 3 .3 4 .8.8.4 1.4 1.1 1.7 1.9.2.6.4 1.8.4 3.5v6.2c0 1.8 0 2.8.1 3.2.1.4.2.7.3.8.2.1.3.2.5.2s.4 0 .6-.1c.3-.2.8-.7 1.6-1.5v1.1c-1.5 2-2.9 3-4.3 3-.7 0-1.2-.2-1.6-.7-.4-.5-.6-1.2-.6-2.3zm0-1.3v-7c-2 .8-3.3 1.4-3.9 1.7-1.1.6-1.8 1.2-2.3 1.8-.5.6-.7 1.3-.7 2.1 0 1 .3 1.8.9 2.4.6.6 1.2 1 2 1 1 0 2.4-.7 4-2z"/></g></svg>