<svg width="256" height="37" viewBox="0 0 256 37" version="1.1" xmlns="http://www.w3.org/2000/svg" xmlns:xlink="http://www.w3.org/1999/xlink"><title>Page 1</title><defs><path id="path-1" d="M.085 8.523H8.79V.383H.085v8.14z"/><path id="path-3" d="M.256 12.358h10.496V.17H.256v12.188z"/></defs><g id="Page-1" stroke="none" stroke-width="1" fill="none" fill-rule="evenodd"><g id="iPhone-7" transform="translate(-20 -15)"><g id="Page-1" transform="translate(20 15)"><path d="M71.85 6.094s-.127-2.94 2.731-4.517c0 0 1.408-.512 2.176-.384 0 0 1.92-.128 2.09-.128 0 0 1.324-.255 1.537 1.066 0 0 .043.426.213.596 0 0 1.45 1.023 1.366 2.216 0 0-.171 1.023 1.066 2.088 0 0 .64.384-.042.895 0 0-.64.298-.3.724 0 0 .172.341-.383.682 0 0 .384.256 0 .64 0 0 .512 1.15-.64 1.49 0 0-1.323.257-1.664.47 0 0-.47.17-.853 1.022 0 0-.811 1.066-.811 1.364 0 0-.213.384.47 1.875 0 0 .127.767-.086.98 0 0-2.56-1.62-6.144-2.216 0 0-.299-.511 1.024-1.917 0 0 1.323-.98.085-2.685 0 0-1.493-2.003-1.493-2.258 0 0-.768.639.213 2.77 0 0 .726 2.343-1.92 3.536 0 0-.512.213-.554.299 0 0-.64-1.705-1.067-2.046 0 0-1.877-2.514-.299-4.858.043 0 1.024-1.62 3.286-1.704" id="Fill-1" fill="#FFD147"/><path d="M93.952 7.116s-.085-.468-.427-.042c0 0-1.877 1.62-2.773-.085 0 0-.213-.597-.085-.895l-.043-.213s-.299-.128.128-.554c0 0 .384-.384-.17-.725 0 0-.47-.639.127-1.022 0 0 .854-2.557 3.456-1.62 0 0 .726.384.896.725 0 0 .256.298 1.11 0 0 0 2.773-.341 4.437.554 0 0 1.621.852 1.963 1.065 0 0 2.133.895 2.474 1.15 0 0 1.835 1.364 2.347 3.154 0 0 .683 2.727 1.024 3.366 0 0 .683 1.066 1.75 1.321 0 0 1.28.426 1.706 1.236 0 0 .384.511-.299.767 0 0-1.408 1.236-1.536 1.406 0 0-.725.384-.469-.554l.341-.98s.043-.34-.298-.469c0 0-2.475-.681-2.475-.724 0 0-1.621-.554-1.877-2.301 0 0 .128-.426-.427-.17l-1.963.767s-.597-.043-.298.34c0 0 .981 1.407.597 3.708 0 0 .043.767-.341.852 0 0-2.176-.085-2.304-.085 0 0-.683 0-.043-.554 0 0 .768-.298.939-.554 0 0 .256-.341-.086-1.023 0 0-.981-1.875-.981-2.045 0 0-.555-1.15.512-2.216 0 0 .47-.384-.128-.469 0 0-1.621-.256-1.835-.256 0 0-.384-.127-.341.427 0 0-.299 1.747-.47 2.002 0 0-.34.81-.554 1.066 0 0-.597.895-.64 2.386l-.043.426s-.042.128.171.341c0 0 .341.426-.341.426h-1.366s-.469-.17-.298-.724c0 0 1.066-2.301.981-3.665 0 0-.043-2.003-.17-2.216 0 0 .085-.383-.427.085 0 0-1.024 1.066-3.158 1.833 0 0-1.365.639-1.578.937 0 0-.214.341-.214.682 0 0 .171.256-.384.938 0 0-.256.298.086.639 0 0 .725.81-.256.596 0 0-1.238-.255-.896-1.96 0 0 .341-1.704 1.706-2.855 0 0 2.518-2.216 2.816-2.514 0-.043.64-.64.427-1.705" id="Fill-3" fill="#FFD147"/><path d="M121.387 5.284s.682-2.088 3.285-3.11c0 0 .896-.47 1.195-.725 0 0 .554.682-.171 2.6 0 0 2.987-.981 5.12.297 0 0 2.645 1.151 2.859 1.151 0 0-.128 1.406-3.67 3.494 0 0 2.262 2.514 2.475 4.432 0 0 .47 1.79.64 2.003 0 0-1.45.682-5.035.128 0 0-2.176-.81-2.517-1.662l-.597 1.406s-.427.98-.939 1.406c0 0-.81 1.023-.896 1.492 0 0-3.797-3.196-3.413-7.202 0 0-1.664.469-2.176.469l-.64-.128s.981-1.705 1.194-2.813c0 0 .811-2.045 2.475-2.343 0 0-1.877-1.15-2.475-3.196 0 0-.469-.512.47-.682 0 0 .981-.426.938.384.043-.043.384 1.79 1.878 2.599" id="Fill-5" fill="#FFD147"/><path d="M157.568 14.233s-1.323 1.235-1.493 1.491l-1.835 1.662s-.512.81-1.152.213l-.981-.98s-.555-.554-1.366-.682c0 0-3.37-1.065-3.925-1.62 0 0-.939-.425-1.451-.383 0 0-2.005.043-3.456-.98l-1.28-1.065-.256-.213s-.512-.469-.085-.81c0 0 .213-.469 1.11-.042l1.322.767s.256.255.896.213l.981-.043s.768-.256-.213-.554c0 0-1.92-.298-2.859-1.278 0 0-1.62-1.066-1.664-1.492l-.47-.639s-.298-.81.556-1.023c0 0 .426-.042.938.47 0 0 1.152 1.022 1.58 1.32 0 0 1.578.511 2.004.597 0 0 1.152.468.598-.256l-1.494-.767s-1.408-.597-1.749-1.491l-1.237-2.131s-.726-.81-.043-1.193c0 0 .64-.554 1.323.255l1.408 1.79s.597.767.938.895l1.365.724.385.256s.981.256.17-.469l-1.109-.98s-.896-.767-1.323-1.576l-.725-1.534s-.384-1.108.682-1.066c0 0 .683.17 1.067.98l.64 1.066s.512.681 1.493 1.022l2.731 1.364.64.128s.683.255.171-.426l-.683-.895s-.896-.725-.939-.98c0 0-.682-1.108-.213-1.279 0 0 .47-.724 1.238.213 0 0 .981.98 1.706 1.364 0 0 1.323 1.278 1.835 1.918 0 0 1.493 2.088 1.834 2.684 0 0 .811 1.236.64 2.43 0 0 .3.638.897 1.064 0 0 .853.81.938 1.066.085 0 .64.426-.085.895" id="Fill-7" fill="#FFD147"/><g id="Group-11" transform="translate(165.12 .34)" fill="#DF2A3D"><path d="M3.541 12.23L.043 9.503s1.664-.299 1.152-1.236L.512 6.094l1.237.255s1.408.426 1.664-.468l.299-.64L5.333 7.16s.854.81.683-.256l-.725-4.517s1.664 1.407 2.005.469l1.28-2.77L9.771 2.77s.298.895 1.237.213l.853-.511-.938 4.56s-.214 1.064.725.297l1.664-1.917.299.554s.085.895 1.11.682l1.79-.256-.724 2.088s-.47.98.981 1.32l-3.925 2.941s-.939.341 0 2.003l-3.286-.64s-.896-.383-.81.64l.042 3.707-.938-.042.17-3.75s.3-.81-.683-.725l-3.413.64.384-.895c0 .042.427-.81-.768-1.45" id="Fill-9"/></g><path d="M2.645 26.292v2.557H4.48v.596H2.645v5.072c0 .51.086.852.214 1.022.17.213.341.298.597.298.17 0 .384-.042.555-.17.17-.128.298-.298.426-.511h.342c-.214.554-.47.98-.854 1.278-.384.298-.725.426-1.152.426-.256 0-.512-.085-.768-.213s-.426-.341-.554-.639c-.128-.256-.171-.682-.171-1.236v-5.327H0v-.298c.299-.128.64-.34.981-.64.342-.297.64-.638.896-1.065.086-.213.299-.596.512-1.15h.256z" id="Fill-12" fill="#000"/><path d="M7.552 24.503v5.752c.64-.682 1.152-1.15 1.493-1.321a2.174 2.174 0 0 1 1.11-.298c.426 0 .81.128 1.152.384.298.255.554.639.725 1.15.128.383.17 1.022.17 2.003v2.77c0 .51.043.852.129 1.022.042.128.17.256.298.34.128.086.384.13.768.13v.255h-3.84v-.299h.171c.384 0 .64-.042.768-.17s.256-.256.299-.511c0-.085.042-.341.042-.81v-2.77c0-.852-.042-1.406-.128-1.705-.085-.255-.213-.468-.426-.596-.214-.128-.427-.213-.683-.213-.299 0-.555.085-.853.213-.299.128-.683.469-1.11.895v4.133c0 .554.043.853.086 1.023.042.128.17.256.341.341.17.085.427.128.853.128v.34H4.95v-.298c.342 0 .64-.042.811-.17.128-.043.213-.17.256-.341.043-.17.085-.469.085-.98v-7.074c0-.895-.042-1.449-.085-1.662a.796.796 0 0 0-.213-.426.484.484 0 0 0-.342-.128c-.128 0-.298.043-.597.128l-.128-.298 2.347-.98h.469v.043z" id="Fill-14" fill="#000"/><path d="M15.36 31.32h3.627c-.043-.51-.086-.852-.171-1.065-.128-.341-.341-.554-.64-.767-.299-.213-.597-.255-.896-.255-.47 0-.896.17-1.28.553-.384.341-.597.852-.64 1.535zm0 .47c0 1.15.256 2.087.853 2.727.555.681 1.238.98 2.006.98.512 0 .981-.128 1.322-.426.384-.299.683-.767.939-1.45l.256.171a4.054 4.054 0 0 1-1.067 2.13c-.597.64-1.28.98-2.176.98-.938 0-1.749-.383-2.432-1.107-.682-.724-1.024-1.705-1.024-2.94 0-1.321.342-2.387 1.024-3.154.683-.767 1.536-1.108 2.603-1.108.896 0 1.621.299 2.176.853.555.596.853 1.363.853 2.343H15.36z" id="Fill-16" fill="#000"/><path d="M27.435 25.397V25.1h4.992v.298H32c-.47 0-.81.128-1.024.426-.128.17-.213.64-.213 1.321v5.668c0 .852-.086 1.577-.299 2.13-.17.554-.512 1.023-.981 1.407a2.598 2.598 0 0 1-1.707.596c-.555 0-.981-.128-1.28-.383-.299-.256-.47-.554-.47-.895 0-.298.086-.511.214-.64a.941.941 0 0 1 .64-.255.82.82 0 0 1 .512.17c.128.128.341.427.555.938.128.298.298.469.512.469.17 0 .298-.085.426-.299.128-.17.214-.51.214-1.022v-7.884c0-.596-.043-.98-.128-1.15-.043-.128-.17-.256-.342-.384-.256-.128-.512-.213-.768-.213h-.426z" id="Fill-18" fill="#000"/><path d="M37.504 35.028v-2.983a23.97 23.97 0 0 0-1.664.724c-.47.256-.768.511-.981.767-.214.256-.3.555-.3.895 0 .427.129.767.385 1.023.256.256.512.426.853.426.427 0 .982-.298 1.707-.852m0 .554c-.81.64-1.323.98-1.536 1.065-.299.128-.64.213-.981.213-.555 0-.982-.17-1.323-.554-.341-.383-.512-.852-.512-1.448 0-.384.085-.725.256-.98.213-.384.64-.768 1.237-1.109.598-.34 1.536-.767 2.902-1.235v-.299c0-.767-.128-1.321-.384-1.619-.256-.298-.598-.426-1.067-.426-.341 0-.64.085-.853.298-.214.213-.342.426-.342.682v.512c0 .255-.085.468-.213.596a.707.707 0 0 1-.512.213.707.707 0 0 1-.512-.213c-.128-.128-.213-.341-.213-.596 0-.512.256-.938.768-1.364.512-.426 1.194-.597 2.133-.597.683 0 1.28.128 1.707.34.34.171.597.47.725.81.085.256.17.767.17 1.492v2.642c0 .767 0 1.193.043 1.364.043.17.086.298.128.34.086.043.128.086.214.086.085 0 .17 0 .256-.043.128-.085.34-.298.682-.64v.47c-.64.852-1.237 1.278-1.834 1.278-.3 0-.512-.085-.683-.298-.17-.213-.256-.512-.256-.98" id="Fill-20" fill="#000"/><path d="M43.136 30.298c.939-1.108 1.792-1.662 2.645-1.662.427 0 .811.128 1.11.34.298.214.554.555.725 1.066.128.341.17.852.17 1.577v3.366c0 .511.043.852.129 1.023.042.128.17.256.298.34.128.086.384.129.768.129v.213H45.1v-.299h.17c.384 0 .64-.042.768-.17s.256-.256.299-.511c.043-.086.043-.341.043-.81v-3.196c0-.724-.086-1.236-.299-1.534-.17-.341-.512-.469-.939-.469-.682 0-1.365.384-2.048 1.108v4.134c0 .51.043.852.086.98.085.17.17.298.341.383.128.085.427.128.853.128v.256h-3.882v-.299h.17c.384 0 .683-.085.811-.298.128-.213.213-.597.213-1.15v-2.94c0-.938 0-1.535-.085-1.705-.085-.17-.128-.341-.213-.426a.485.485 0 0 0-.342-.128c-.17 0-.341.042-.554.128l-.128-.299 2.346-.937h.384v1.662h.043z" id="Fill-22" fill="#000"/><path d="M50.944 31.32h3.627c-.043-.51-.086-.852-.171-1.065-.128-.341-.341-.554-.64-.767-.299-.213-.597-.255-.896-.255-.47 0-.896.17-1.28.553-.384.341-.597.852-.64 1.535zm0 .47c0 1.15.256 2.087.853 2.727.555.681 1.238.98 2.006.98.512 0 .98-.128 1.322-.426.384-.299.683-.767.939-1.45l.256.171a4.054 4.054 0 0 1-1.067 2.13c-.597.64-1.28.98-2.176.98-.938 0-1.75-.383-2.432-1.107-.682-.724-1.024-1.705-1.024-2.94 0-1.321.342-2.387 1.024-3.154.683-.767 1.536-1.108 2.603-1.108.896 0 1.621.299 2.176.853.555.596.853 1.363.853 2.343h-5.333z" id="Fill-24" fill="#000"/><path d="M72.021 24.8l.3 3.666h-.3c-.298-.896-.682-1.62-1.194-2.046-.683-.682-1.579-1.023-2.646-1.023-1.493 0-2.602.597-3.37 1.747-.64.98-.982 2.174-.982 3.538 0 1.107.214 2.13.64 3.025.427.894.982 1.577 1.664 2.003.683.426 1.408.639 2.134.639.426 0 .853-.043 1.237-.17.384-.129.768-.256 1.152-.47v-3.366c0-.596-.043-.98-.128-1.15-.085-.17-.213-.298-.427-.427-.17-.084-.512-.128-.98-.128v-.34h4.48v.34h-.214c-.427 0-.768.128-.896.427-.128.213-.17.639-.17 1.236v3.536c-.64.341-1.324.597-1.964.767-.64.171-1.365.256-2.133.256-2.261 0-3.968-.724-5.12-2.173a5.912 5.912 0 0 1-1.323-3.75c0-1.023.256-2.003.726-2.94.597-1.108 1.365-1.96 2.39-2.557.852-.511 1.876-.724 3.028-.724.427 0 .811.042 1.152.085.342.085.854.213 1.451.469.341.127.555.17.64.17a.37.37 0 0 0 .299-.17c.085-.086.128-.299.128-.597h.426v.128z" id="Fill-26" fill="#000"/><path d="M78.037 29.19a1.79 1.79 0 0 0-.896.256c-.298.17-.554.511-.725.937a4.948 4.948 0 0 0-.299 1.747c0 1.15.214 2.13.683 2.94.47.81 1.067 1.236 1.792 1.236.555 0 1.024-.213 1.365-.681.342-.47.555-1.237.555-2.344 0-1.406-.299-2.472-.896-3.282-.427-.553-.939-.809-1.579-.809m.299-.554c1.195 0 2.133.469 2.859 1.363.597.767.896 1.663.896 2.643 0 .681-.171 1.405-.512 2.13-.342.725-.811 1.279-1.408 1.62-.598.383-1.238.553-1.963.553-1.195 0-2.133-.468-2.816-1.406a4.417 4.417 0 0 1-.896-2.684c0-.725.17-1.45.555-2.131.34-.725.81-1.236 1.408-1.577a3.662 3.662 0 0 1 1.877-.511" id="Fill-28" fill="#000"/><path d="M86.827 29.19a1.79 1.79 0 0 0-.896.256c-.299.17-.555.511-.726.937a4.948 4.948 0 0 0-.298 1.747c0 1.15.213 2.13.682 2.94.47.81 1.067 1.236 1.792 1.236.555 0 1.024-.213 1.366-.681.341-.47.554-1.237.554-2.344 0-1.406-.298-2.472-.896-3.282-.426-.553-.938-.809-1.578-.809m.256-.554c1.194 0 2.133.469 2.858 1.363.598.767.896 1.663.896 2.643 0 .681-.17 1.405-.512 2.13-.341.725-.81 1.279-1.408 1.62-.597.383-1.237.553-1.962.553-1.195 0-2.134-.468-2.816-1.406a4.417 4.417 0 0 1-.896-2.684c0-.725.17-1.45.554-2.131.342-.725.811-1.236 1.408-1.577.64-.34 1.238-.511 1.878-.511" id="Fill-30" fill="#000"/><path d="M97.579 35.198V31.15a3.053 3.053 0 0 0-.299-1.065 1.61 1.61 0 0 0-.683-.725c-.298-.17-.554-.255-.81-.255-.512 0-.939.213-1.366.681-.512.597-.768 1.45-.768 2.6 0 1.15.256 2.045.768 2.642.512.596 1.067.937 1.664.937.512.043 1.024-.213 1.494-.767zm0 .597c-.384.383-.768.682-1.11.852-.384.17-.768.256-1.194.256-.854 0-1.622-.341-2.262-1.066-.64-.724-.938-1.619-.938-2.77 0-1.15.341-2.173 1.066-3.068.726-.937 1.622-1.406 2.731-1.406.683 0 1.28.213 1.707.64v-1.45c0-.894 0-1.448-.086-1.661-.085-.213-.128-.341-.213-.426a.485.485 0 0 0-.341-.128c-.128 0-.342.042-.598.128l-.128-.299 2.347-.98h.384v9.077c0 .937.043 1.491.085 1.662.043.213.128.34.214.426a.485.485 0 0 0 .341.128c.17 0 .341-.043.597-.128l.086.298-2.347.98h-.384v-1.065h.043z" id="Fill-32" fill="#000"/><path d="M105.259 35.028v-2.983a23.97 23.97 0 0 0-1.664.724c-.47.256-.768.511-.982.767-.213.256-.298.555-.298.895 0 .427.128.767.384 1.023.256.256.512.426.853.426.427 0 .981-.298 1.707-.852m0 .554c-.811.64-1.323.98-1.536 1.065-.299.128-.64.213-.982.213-.554 0-.981-.17-1.322-.554-.342-.383-.512-.852-.512-1.448 0-.384.085-.725.256-.98.213-.384.64-.768 1.237-1.109.597-.34 1.536-.767 2.901-1.235v-.299c0-.767-.128-1.321-.384-1.619-.256-.298-.597-.426-1.066-.426-.342 0-.64.085-.854.298-.213.213-.341.426-.341.682v.512c0 .255-.085.468-.213.596a.707.707 0 0 1-.512.213.707.707 0 0 1-.512-.213c-.128-.128-.214-.341-.214-.596 0-.512.256-.938.768-1.364.512-.426 1.195-.597 2.134-.597.682 0 1.28.128 1.706.34.342.171.598.47.726.81.085.256.17.767.17 1.492v2.642c0 .767 0 1.193.043 1.364.043.17.085.298.128.34.085.043.128.086.213.086.086 0 .171 0 .256-.043.128-.085.342-.298.683-.64v.47c-.64.852-1.237 1.278-1.835 1.278-.298 0-.512-.085-.682-.298-.171-.213-.256-.512-.256-.98" id="Fill-34" fill="#000"/><path d="M111.317 24.503V34.9c0 .511.043.81.128.98.086.17.17.298.342.384.17.085.426.127.81.127v.299h-3.84v-.299c.342 0 .598-.042.726-.127.128-.086.213-.213.298-.384.086-.17.128-.511.128-.98v-7.117c0-.894 0-1.448-.042-1.619-.043-.17-.086-.34-.214-.426a.484.484 0 0 0-.341-.128 1.67 1.67 0 0 0-.555.128l-.128-.298 2.347-.98h.341v.043z" id="Fill-36" fill="#000"/><path d="M116.181 24.503V34.9c0 .511.043.81.128.98.086.17.171.298.342.384.17.085.426.127.81.127v.299h-3.84v-.299c.342 0 .598-.042.726-.127.128-.086.213-.213.298-.384.086-.17.128-.511.128-.98v-7.117c0-.894 0-1.448-.042-1.619-.043-.17-.086-.34-.214-.426a.484.484 0 0 0-.34-.128 1.67 1.67 0 0 0-.556.128l-.128-.298 2.347-.98h.341v.043z" id="Fill-38" fill="#000"/><path d="M127.616 36.391v.299h-4.992v-.299h.427c.469 0 .81-.128 1.066-.426.128-.17.214-.639.214-1.32v-7.5c0-.597-.043-.98-.128-1.15-.043-.13-.171-.257-.342-.385-.256-.128-.512-.213-.768-.213h-.426V25.1h4.992v.298h-.427c-.47 0-.81.128-1.024.426-.128.171-.213.64-.213 1.321v7.5c0 .597.042.98.128 1.151.042.128.17.255.341.383.256.128.512.213.768.213h.384z" id="Fill-40" fill="#000"/><path d="M130.901 30.298c.94-1.108 1.792-1.662 2.646-1.662.426 0 .81.128 1.11.34.298.214.554.555.724 1.066.128.341.17.852.17 1.577v3.366c0 .511.044.852.13 1.023.042.128.17.256.297.34.129.086.385.129.769.129v.213h-3.883v-.299h.17c.384 0 .64-.042.769-.17.128-.128.255-.256.298-.511.043-.086.043-.341.043-.81v-3.196c0-.724-.086-1.236-.299-1.534-.213-.298-.512-.469-.938-.469-.683 0-1.366.384-2.049 1.108v4.134c0 .51.043.852.086.98.085.17.17.298.341.383.128.085.427.128.853.128v.256h-3.882v-.299h.17c.385 0 .683-.085.811-.298.128-.213.214-.597.214-1.15v-2.94c0-.938 0-1.535-.086-1.705-.085-.17-.128-.341-.213-.426a.484.484 0 0 0-.341-.128c-.17 0-.342.042-.555.128l-.128-.299 2.347-.937h.383v1.662h.043z" id="Fill-42" fill="#000"/><path d="M142.464 28.636v2.685h-.299c-.213-.853-.511-1.407-.853-1.705a1.89 1.89 0 0 0-1.28-.469c-.384 0-.725.085-.981.298-.256.213-.384.426-.384.682 0 .341.085.597.256.81.17.213.554.468 1.066.725l1.238.596c1.152.554 1.749 1.321 1.749 2.216 0 .724-.256 1.278-.81 1.704-.555.426-1.152.64-1.792.64-.47 0-1.025-.086-1.665-.256a2.182 2.182 0 0 0-.469-.086c-.128 0-.213.086-.299.213h-.298v-2.812h.298c.17.81.47 1.407.94 1.79.468.426.938.596 1.535.596.384 0 .725-.127.981-.34.257-.213.384-.512.384-.852 0-.384-.127-.725-.426-.98-.3-.257-.811-.597-1.664-1.024-.81-.426-1.366-.766-1.622-1.107-.255-.341-.384-.725-.384-1.236 0-.64.214-1.193.683-1.62.427-.425 1.024-.638 1.707-.638.299 0 .682.085 1.109.213.299.085.47.127.597.127.086 0 .17 0 .214-.042.042-.043.128-.128.17-.256h.299v.128z" id="Fill-44" fill="#000"/><path d="M146.475 26.292v2.557h1.834v.596h-1.834v5.072c0 .51.085.852.213 1.022.128.17.341.256.555.256a.94.94 0 0 0 .554-.17c.171-.128.3-.3.427-.512h.341c-.213.554-.469.98-.853 1.278-.384.298-.725.426-1.152.426-.256 0-.512-.085-.768-.213s-.427-.34-.555-.639c-.128-.255-.17-.681-.17-1.235v-5.285h-1.238v-.298c.3-.128.64-.34.982-.64.34-.297.64-.638.896-1.065.128-.213.298-.596.554-1.193h.214v.043z" id="Fill-46" fill="#000"/><path d="M151.083 24.503c.256 0 .426.084.597.255a.84.84 0 0 1 .256.597.772.772 0 0 1-.256.596.842.842 0 0 1-.597.256.842.842 0 0 1-.598-.256.84.84 0 0 1-.256-.596c0-.256.086-.426.256-.597.128-.17.342-.255.598-.255zm.725 4.133v6.307c0 .51.043.809.128.98.085.17.17.298.299.383.128.085.384.128.768.128v.256h-3.84v-.299c.384 0 .64-.042.768-.127.128-.086.256-.213.298-.384.086-.17.128-.511.128-.98v-3.025c0-.853-.042-1.407-.085-1.663-.043-.17-.085-.298-.17-.383a.485.485 0 0 0-.342-.128c-.17 0-.341.043-.597.128l-.128-.298 2.346-.938h.427v.043z" id="Fill-48" fill="#000"/><path d="M156.245 26.292v2.557h1.835v.596h-1.835v5.072c0 .51.085.852.213 1.022.129.17.342.256.556.256.17 0 .383-.043.554-.17.17-.128.299-.3.427-.512h.34c-.213.554-.468.98-.853 1.278-.384.298-.725.426-1.152.426-.255 0-.512-.085-.768-.213-.255-.128-.426-.34-.554-.639-.128-.255-.17-.681-.17-1.235v-5.285H153.6v-.298c.298-.128.64-.34.982-.64a4.4 4.4 0 0 0 .895-1.065c.128-.213.299-.596.555-1.193h.213v.043z" id="Fill-50" fill="#000"/><g id="Group-54" transform="translate(158.293 28.465)"><mask id="mask-2" fill="#fff"><use xlink:href="#path-1"/></mask><path d="M7.424.383v4.773c0 .895 0 1.45.085 1.662.086.213.128.34.214.426a.484.484 0 0 0 .34.128c.172 0 .385-.042.598-.128l.128.299-2.346.98h-.384V6.86c-.683.725-1.195 1.194-1.536 1.364-.342.171-.726.299-1.11.299-.426 0-.81-.128-1.152-.384a1.965 1.965 0 0 1-.682-.98c-.128-.384-.171-.98-.171-1.705V1.96c0-.383-.043-.64-.128-.767A1.304 1.304 0 0 0 .94.853C.81.767.512.725.085.725V.426h2.73v5.241c0 .725.129 1.193.385 1.45.256.213.555.34.939.34.256 0 .512-.085.853-.213.299-.17.683-.469 1.11-.895V1.875c0-.426-.086-.767-.257-.895-.17-.127-.511-.255-1.024-.255V.426h2.603V.383z" id="Fill-52" fill="#000" mask="url(#mask-2)"/></g><path d="M169.898 26.292v2.557h1.836v.596h-1.836v5.072c0 .51.086.852.214 1.022.128.17.342.256.555.256.17 0 .383-.043.555-.17.17-.128.298-.3.426-.512h.341c-.213.554-.469.98-.853 1.278-.384.298-.726.426-1.152.426-.256 0-.512-.085-.768-.213s-.427-.34-.554-.639c-.128-.255-.172-.681-.172-1.235v-5.285h-1.236v-.298c.298-.128.64-.34.98-.64a4.4 4.4 0 0 0 .896-1.065c.128-.213.3-.596.555-1.193h.213v.043z" id="Fill-55" fill="#000"/><path d="M173.824 31.32h3.627c-.043-.51-.086-.852-.17-1.065-.13-.341-.342-.554-.64-.767-.3-.213-.598-.255-.897-.255-.47 0-.896.17-1.28.553-.384.341-.597.852-.64 1.535zm0 .47c0 1.15.256 2.087.853 2.727.555.681 1.238.98 2.006.98.512 0 .98-.128 1.322-.426.342-.299.683-.767.939-1.45l.256.171a4.06 4.06 0 0 1-1.066 2.13c-.598.64-1.28.98-2.177.98-.938 0-1.75-.383-2.432-1.107-.682-.724-1.024-1.705-1.024-2.94 0-1.321.342-2.387 1.024-3.154.683-.767 1.536-1.108 2.603-1.108.896 0 1.621.299 2.176.853.555.553.853 1.363.853 2.343h-5.333z" id="Fill-57" fill="#000"/><path d="M188.245 29.19c-.298 0-.597.085-.896.256-.299.17-.554.511-.725.937a4.957 4.957 0 0 0-.299 1.747c0 1.15.213 2.13.683 2.94.47.81 1.067 1.236 1.792 1.236.555 0 1.024-.213 1.365-.681.342-.47.555-1.237.555-2.344 0-1.406-.298-2.472-.896-3.282-.427-.553-.939-.809-1.579-.809m.257-.554c1.194 0 2.133.469 2.858 1.363.597.767.896 1.663.896 2.643 0 .681-.17 1.405-.512 2.13-.342.725-.81 1.279-1.408 1.62-.598.383-1.238.553-1.962.553-1.196 0-2.134-.468-2.817-1.406a4.42 4.42 0 0 1-.895-2.684c0-.725.17-1.45.554-2.131.341-.725.81-1.236 1.408-1.577.64-.34 1.238-.511 1.878-.511" id="Fill-59" fill="#000"/><path d="M196.523 29.488v5.156c0 .725.085 1.193.256 1.406.213.256.512.384.853.384h.725v.255h-4.693v-.298h.341c.214 0 .427-.042.64-.17.171-.128.299-.256.384-.469.086-.213.128-.554.128-1.15v-5.114h-1.536v-.596h1.536v-.512c0-.767.128-1.449.384-2.003s.64-.98 1.152-1.32a3.117 3.117 0 0 1 1.75-.512c.597 0 1.152.213 1.664.597.341.255.512.554.512.852 0 .17-.086.341-.214.468-.128.171-.298.213-.469.213-.128 0-.256-.042-.427-.127-.128-.086-.341-.299-.554-.597a2.959 2.959 0 0 0-.598-.64c-.17-.127-.384-.17-.597-.17-.256 0-.47.086-.683.214-.17.128-.298.34-.384.64-.085.297-.128 1.064-.128 2.258v.553h2.006v.597h-2.048v.085z" id="Fill-61" fill="#000"/><g id="Group-65" transform="translate(203.52 24.63)"><mask id="mask-4" fill="#fff"><use xlink:href="#path-3"/></mask><path d="M10.197.17l.257 3.964h-.257c-.341-1.194-.853-2.046-1.536-2.557-.682-.511-1.45-.768-2.346-.768-.768 0-1.451.214-2.091.597-.64.384-1.11 1.023-1.45 1.875-.342.853-.555 1.918-.555 3.196 0 1.066.17 1.96.512 2.727a3.943 3.943 0 0 0 1.536 1.79c.682.426 1.45.597 2.304.597a4.35 4.35 0 0 0 2.005-.47c.598-.298 1.195-.98 1.92-1.917l.256.171c-.597 1.022-1.28 1.79-2.048 2.258-.768.469-1.707.725-2.773.725-1.92 0-3.414-.725-4.48-2.13C.683 9.161.256 7.925.256 6.477c0-1.151.256-2.216.768-3.197.512-.98 1.237-1.704 2.133-2.258.897-.554 1.92-.81 2.987-.81.853 0 1.664.213 2.475.596.256.129.426.17.512.17.17 0 .298-.041.384-.17.128-.17.256-.383.299-.639h.383z" id="Fill-63" fill="#000" mask="url(#mask-4)"/></g><path d="M219.861 35.028v-2.983c-.853.341-1.408.596-1.664.724-.469.256-.768.511-.98.767-.214.256-.3.555-.3.895 0 .427.128.767.384 1.023.256.256.512.426.854.426.426 0 .981-.298 1.706-.852m0 .554c-.81.64-1.323.98-1.536 1.065-.298.128-.64.213-.98.213-.556 0-.982-.17-1.324-.554-.34-.383-.512-.852-.512-1.448 0-.384.086-.725.256-.98.213-.384.64-.768 1.238-1.109.597-.34 1.535-.767 2.901-1.235v-.299c0-.767-.128-1.321-.384-1.619-.256-.298-.597-.426-1.067-.426-.341 0-.64.085-.853.298-.213.213-.342.426-.342.682v.512c0 .255-.085.468-.213.596a.705.705 0 0 1-.512.213.707.707 0 0 1-.512-.213c-.128-.128-.213-.341-.213-.596 0-.512.256-.938.768-1.364.512-.426 1.195-.597 2.133-.597.683 0 1.28.128 1.707.34.341.171.597.47.725.81.086.256.17.767.17 1.492v2.642c0 .767 0 1.193.044 1.364.042.17.085.298.128.34.085.043.128.086.213.086.085 0 .17 0 .256-.043.128-.085.341-.298.683-.64v.47c-.64.852-1.238 1.278-1.835 1.278-.299 0-.512-.085-.683-.298-.17-.213-.256-.512-.256-.98" id="Fill-66" fill="#000"/><path d="M225.494 30.298c.938-1.108 1.791-1.662 2.644-1.662.427 0 .812.128 1.11.34.299.214.555.555.726 1.066.128.341.17.852.17 1.577v3.366c0 .511.043.852.128 1.023.043.128.17.256.298.34.128.086.385.129.768.129v.213h-3.882v-.299h.17c.384 0 .64-.042.769-.17.128-.128.255-.256.299-.511.042-.086.042-.341.042-.81v-3.196c0-.724-.086-1.236-.299-1.534-.17-.341-.512-.469-.939-.469-.682 0-1.364.384-2.048 1.108v4.134c0 .51.044.852.086.98.086.17.17.298.341.383.128.085.427.128.853.128v.256h-3.882v-.299h.17c.385 0 .684-.085.812-.298.127-.213.213-.597.213-1.15v-2.94c0-.938 0-1.535-.086-1.705-.085-.17-.127-.341-.213-.426a.485.485 0 0 0-.341-.128c-.171 0-.341.042-.555.128l-.128-.299 2.347-.937h.383v1.662h.044z" id="Fill-68" fill="#000"/><path d="M236.416 35.028v-2.983a23.97 23.97 0 0 0-1.664.724c-.47.256-.768.511-.981.767-.214.256-.299.555-.299.895 0 .427.128.767.384 1.023.256.256.512.426.853.426.427 0 .982-.298 1.707-.852m0 .554c-.81.64-1.323.98-1.536 1.065-.299.128-.64.213-.981.213-.555 0-.982-.17-1.323-.554-.341-.383-.512-.852-.512-1.448 0-.384.085-.725.256-.98.213-.384.64-.768 1.237-1.109.598-.34 1.536-.767 2.902-1.235v-.299c0-.767-.128-1.321-.384-1.619-.256-.298-.598-.426-1.067-.426-.341 0-.64.085-.853.298-.214.213-.342.426-.342.682v.512c0 .255-.085.468-.213.596a.707.707 0 0 1-.512.213.707.707 0 0 1-.512-.213c-.128-.128-.213-.341-.213-.596 0-.512.256-.938.768-1.364.512-.426 1.194-.597 2.133-.597.683 0 1.28.128 1.707.34.341.171.597.47.725.81.085.256.17.767.17 1.492v2.642c0 .767 0 1.193.043 1.364.043.17.086.298.128.34.086.043.128.086.214.086.085 0 .17 0 .256-.043.128-.085.341-.298.682-.64v.47c-.64.852-1.237 1.278-1.834 1.278-.299 0-.512-.085-.683-.298-.17-.213-.256-.512-.256-.98" id="Fill-70" fill="#000"/><path d="M245.29 35.198V31.15a3.053 3.053 0 0 0-.298-1.065 1.61 1.61 0 0 0-.683-.725c-.298-.17-.554-.255-.81-.255-.512 0-.939.213-1.365.681-.513.597-.769 1.45-.769 2.6 0 1.15.256 2.045.769 2.642.511.596 1.066.937 1.663.937.512.043 1.024-.213 1.494-.767zm0 .597c-.383.383-.767.682-1.109.852-.384.17-.767.256-1.194.256-.853 0-1.622-.341-2.262-1.066-.64-.724-.938-1.619-.938-2.77 0-1.15.34-2.173 1.067-3.068.725-.937 1.62-1.406 2.73-1.406.683 0 1.28.213 1.707.64v-1.45c0-.894-.043-1.448-.086-1.661a.795.795 0 0 0-.213-.426.484.484 0 0 0-.341-.128c-.128 0-.342.042-.597.128l-.129-.299 2.347-.98h.384v9.077c0 .937.043 1.491.085 1.662.043.213.128.34.214.426a.486.486 0 0 0 .34.128c.172 0 .342-.043.599-.128l.085.298-2.347.98h-.384v-1.065h.043z" id="Fill-72" fill="#000"/><path d="M252.97 35.028v-2.983c-.853.341-1.407.596-1.663.724-.47.256-.768.511-.982.767-.213.256-.298.555-.298.895 0 .427.128.767.384 1.023.256.256.512.426.853.426.427 0 1.024-.298 1.707-.852m0 .554c-.81.64-1.323.98-1.536 1.065-.3.128-.64.213-.981.213-.555 0-.982-.17-1.323-.554-.342-.383-.512-.852-.512-1.448 0-.384.085-.725.256-.98.213-.384.64-.768 1.237-1.109.597-.34 1.536-.767 2.902-1.235v-.299c0-.767-.129-1.321-.385-1.619-.255-.298-.597-.426-1.066-.426-.342 0-.64.085-.854.298-.213.213-.341.426-.341.682v.512c0 .255-.085.468-.213.596a.706.706 0 0 1-.512.213.707.707 0 0 1-.512-.213c-.128-.128-.214-.341-.214-.596 0-.512.257-.938.768-1.364.512-.426 1.195-.597 2.134-.597.682 0 1.28.128 1.706.34.342.171.598.47.726.81.085.256.17.767.17 1.492v2.642c0 .767 0 1.193.043 1.364.043.17.085.298.128.34.085.043.128.086.213.086.086 0 .17 0 .256-.043.128-.085.342-.298.683-.64v.47c-.64.852-1.237 1.278-1.835 1.278-.298 0-.512-.085-.682-.298-.171-.213-.256-.512-.256-.98" id="Fill-74" fill="#000"/></g></g></g></svg>