<svg width="160" height="88" viewBox="0 0 160 88" version="1.1" xmlns="http://www.w3.org/2000/svg"><title>Page 1</title><g id="Page-1" stroke="none" stroke-width="1" fill="none" fill-rule="evenodd" stroke-linecap="round" stroke-linejoin="round"><g id="Desktop_Cycle-My-Cell" transform="translate(-447 -3084)" stroke-width="2.5" stroke="#35353B"><g id="Group-45" transform="translate(353 2755)"><g id="Group-44" transform="translate(95 330)"><g id="Page-1"><path d="M.323 85.1h157.432" id="Stroke-1"/><path d="M37.479 84.998l3.256-14.986a1.639 1.639 0 0 1 1.978-1.23l15.116 3.658c.736.178 1.253.84 1.253 1.6v10.958" id="Stroke-3"/><path d="M74.778 54.552l-4.188-4.91a1.612 1.612 0 0 0-1.197-.57 1.61 1.61 0 0 0-1.23.508l-5.167 5.509c-.561.6-.6 1.524-.078 2.162l2.128 2.933" id="Stroke-5"/><path d="M97.866 79.62c-6.805-2.603-10.506-9.279-11.558-11.458l6.444-6.573c.664 2.193 2.446 4.781 4.577 6.96 2.314 2.365 4.768 4.042 6.783 4.7l-6.246 6.371zM101.697 85l10.718-10.766c1.008-1.013 1.83-3.05 0-6.988-1.186-2.558-3.275-5.42-5.884-8.041-4.295-4.314-8.921-6.988-12.083-6.988-1.487 0-2.38.585-2.88 1.076L81.14 63.778l-7.36 7.394a1.647 1.647 0 0 0-.324 1.86c.154.316 3.282 6.901 9.704 11.967h18.537z" id="Stroke-7"/><path d="M29.272 47.665c-.017.08-1.384 6.736 1.188 13.924" id="Stroke-9"/><path d="M128.83 64.77a64.258 64.258 0 0 0-4.586-6.446c.09-.086.177-.171.251-.267 1.08-1.35 3.39-3.152 4.646-2.896.311.06 3.062.888 4.513 10.484a36.882 36.882 0 0 0-4.823-.875zm21.158 19.49c-1.175-6.508-4.034-10.727-7.207-13.443.043-.145.064-.303.064-.47-.23-13.254-2.786-20.73-7.84-22.851-1.269-1.055-7.018-5.515-13.693-5.076a13.16 13.16 0 0 0-5.75 1.744l-5.376-8.083 6.25-3.99c.498-.314.78-.867.76-1.452a1.655 1.655 0 0 0-.875-1.389l-8.838-4.638a1.647 1.647 0 0 0-1.694.105 1.64 1.64 0 0 0-.687 1.556l.936 7.614c-7.007-.105-12.081 1.45-15.128 4.648a10.198 10.198 0 0 0-2.516 4.542l-12.269-6.913a1.62 1.62 0 0 0-1.352-.116c-8.535 3.081-15.231 9.495-19.546 14.675C51.629 46.91 41.43 37.135 31.77 37.709v-6.652c0-.71-.458-1.347-1.134-1.566-6.114-1.986-12.207 3.54-12.466 3.78-.365.335-.551.815-.53 1.306.03.5.28.95.686 1.243l6.425 4.616c-1.081.96-1.955 2.141-2.61 3.55-3.015 6.496-.374 15.98.676 19.218-11.053 9.64-14.67 20.24-14.857 20.836l142.027.22z" id="Stroke-11"/><path d="M87.735 18.862c-4.41.326-9.466 4.918-9.515 4.964a1.629 1.629 0 0 1-2.048.13c-6.431-4.55-10.263-5.096-10.301-5.102" id="Stroke-13"/><path d="M67.562.324c-6.207.5-12.22 5.713-12.28 5.766a1.63 1.63 0 0 1-1.872.197c-8.83-4.942-13.957-4.47-14.001-4.463" id="Stroke-15"/><path d="M119.241 3.55c-7.862.126-14.032 5.926-14.093 5.983a1.635 1.635 0 0 1-1.344.44 1.637 1.637 0 0 1-1.183-.779c-3.43-5.698-11.765-6.88-11.849-6.89" id="Stroke-17"/><path d="M116.575 84.998c6.483-1.139 6.77-11.293 6.736-11.411a1.686 1.686 0 0 1 .284-1.51 1.64 1.64 0 0 1 1.377-.635c3.528.223 5.162 7.182 5.92 13.556" id="Stroke-19"/></g></g></g></g></g></svg>