<svg width="65" height="65" viewBox="0 0 65 65" version="1.1" xmlns="http://www.w3.org/2000/svg"><title>Page 1</title><g id="Page-1" stroke="none" stroke-width="1" fill="none" fill-rule="evenodd"><g id="Desktop_Cycle-My-Cell" transform="translate(-815 -4085)"><g id="Group-46" transform="translate(353 3957)"><g id="Group-39"><g id="Page-1" transform="translate(464 129)"><path id="Fill-1" fill="#C49F05" d="M28.716.987l2.946 14.219 11.282 1.937 5.914-9.971-9.109-4.788z"/><g id="Group-42" transform="translate(0 .707)"><path d="M49.624 7.07s12.513 7.299 10.608 28.966l-15.786-.92 7.567-10.892-3.155-17.76.766.606z" id="Fill-2" fill="#FFE576"/><path id="Fill-4" fill="#FFD000" d="M48.5 7.07l-5.555 9.366 1.53 18.099 7.538-10.31z"/><path id="Fill-6" fill="#C49F05" d="M44.446 35.117l-3.15 11.492.347 2.474 10.37 3.385 6.314-8.966 1.905-7.466z"/><path id="Fill-8" fill="#C49F05" d="M41.644 49.084l1.14 9.36 9.451-6.293z"/><path d="M38.262 48.12l-14.99 6.523L24.6 60.49s15.146 2.137 18.184-2.046l-1.489-11.836-3.033 1.51z" id="Fill-10" fill="#C49F05"/><path d="M4.88 46.082l18.392 8.56 1.329 5.848S8.238 56.773 4.88 46.082" id="Fill-12" fill="#C49F05"/><path id="Fill-14" fill="#FFE576" d="M19.357 36.372l3.916 18.27 14.99-6.523-8.828-2.518z"/><path d="M15.91 4.288S19.573 1.309 28.717.28l2.945 14.219-8.91 2.53L15.91 4.287z" id="Fill-16" fill="#FFE576"/><path d="M15.91 4.288S8.45 8.618 5.868 12.92l12.846 22.564 4.037-18.457-6.84-12.74z" id="Fill-18" fill="#FFD000"/><path id="Fill-20" fill="#FFE576" d="M42.945 17.508l1.53 17.027-3.239 12.29-2.973 1.294-8.828-2.518-10.377-9.512 1.763-9.099 13.307 6.076z"/><path d="M5.868 12.921l8.944 15.71L.387 32.42s-.228-14.25 5.481-19.5" id="Fill-22" fill="#FFE576"/><path id="Fill-24" fill="#C49F05" d="M31.662 14.499l-8.91 2.53-1.93 9.962 13.306 6.075 8.817-16.63z"/><path d="M.387 32.422l14.425-3.79 3.902 6.853 4.559 19.158L4.016 45.46S-.251 36.27.387 32.422" id="Fill-26" fill="#FFD000"/><path d="M.186 30.647c0-16.8 13.563-30.42 30.294-30.42s30.294 13.62 30.294 30.42c0 16.8-13.563 30.42-30.294 30.42S.186 47.446.186 30.646z" id="Stroke-28" stroke="#35353B" stroke-width="2.5" stroke-linecap="round" stroke-linejoin="round"/><path id="Stroke-30" stroke="#35353B" stroke-linecap="round" stroke-linejoin="round" d="M15.365 4.288l7.387 12.74-3.694 19.061 5.543 24.401"/><path id="Stroke-32" stroke="#35353B" stroke-linecap="round" stroke-linejoin="round" d="M41.236 46.825l3.21-11.708 7.567-10.893-3.155-17.759-14.73 26.601-13.306-6.076L.387 32.422"/><path id="Stroke-34" stroke="#35353B" stroke-linecap="round" stroke-linejoin="round" d="M28.716.28l2.946 14.219 11.282 1.937 1.502 18.681 15.786 1.255"/><path id="Stroke-36" stroke="#35353B" stroke-linecap="round" stroke-linejoin="round" d="M54.83 48.466L28.94 45.46l-9.882-9.37-13.19-23.17"/><path id="Stroke-38" stroke="#35353B" stroke-linecap="round" stroke-linejoin="round" d="M4.016 45.46l19.256 9.183 17.964-7.818 1.548 11.62"/><path d="M31.662 14.499l-8.91 2.53" id="Stroke-40" stroke="#35353B" stroke-linecap="round" stroke-linejoin="round"/></g></g></g></g></g></g></svg>