<svg width="40" height="43" viewBox="0 0 40 43" version="1.1" xmlns="http://www.w3.org/2000/svg"><title>Page 1</title><g id="Page-1" stroke="none" stroke-width="1" fill="none" fill-rule="evenodd" stroke-linecap="round" stroke-linejoin="round"><g id="Desktop_Cycle-My-Cell" transform="translate(-875 -4270)" stroke="#35353B"><g id="Group-46" transform="translate(353 3957)"><g id="Group-39"><g id="Page-1" transform="translate(524 313)"><path d="M.14 13.19c0-2.835 7.518-5.135 16.793-5.135 9.275 0 16.793 2.3 16.793 5.136 0 2.835-7.518 5.135-16.793 5.135-9.275 0-16.793-2.3-16.793-5.135z" id="Stroke-1" stroke-width="2.5"/><path d="M33.726 36.466c0 2.835-7.518 5.135-16.793 5.135C7.658 41.6.14 39.3.14 36.466" id="Stroke-3" stroke-width="2.5"/><path d="M33.726 30.878c0 2.836-7.518 5.135-16.793 5.135C7.658 36.013.14 33.714.14 30.878" id="Stroke-5" stroke-width="2.5"/><path d="M33.726 24.826c0 2.836-7.518 5.135-16.793 5.135-9.275 0-16.793-2.3-16.793-5.135" id="Stroke-7" stroke-width="2.5"/><path d="M33.726 18.774c0 2.836-7.518 5.135-16.793 5.135-9.275 0-16.793-2.3-16.793-5.135" id="Stroke-9" stroke-width="2.5"/><path d="M33.726 13.19v23.276" id="Stroke-11" stroke-width="2.5"/><path d="M.14 13.19v23.276" id="Stroke-13" stroke-width="2.5"/><path d="M36.158 1.098l-3.953 3.949" id="Stroke-15"/><path d="M36.158 5.047l-3.953-3.95" id="Stroke-17"/><path d="M36.977 3.072h-5.59" id="Stroke-19"/><path d="M34.181 5.865V.28" id="Stroke-21"/></g></g></g></g></g></svg>