<svg width="29" height="27" viewBox="0 0 29 27" version="1.1" xmlns="http://www.w3.org/2000/svg" xmlns:xlink="http://www.w3.org/1999/xlink"><title>Page 1</title><defs><path id="path-1" d="M28.962 26.992V0H0v26.992z"/></defs><g id="Page-1" stroke="none" stroke-width="1" fill="none" fill-rule="evenodd"><g id="Desktop_DROTC" transform="translate(-1095 -4339)"><g id="Page-1" transform="translate(1095 4339)"><mask id="mask-2" fill="#fff"><use xlink:href="#path-1"/></mask><path d="M14.664 26.992c-.075 0-.148-.002-.222-.006a1.86 1.86 0 0 1-.144.006c-1.716 0-2.817-.773-3.882-1.52-.736-.517-1.43-1.004-2.247-1.139a7.302 7.302 0 0 0-1.18-.099c-.691 0-1.236.106-1.635.184-.242.047-.45.087-.609.087-.166 0-.345-.036-.423-.3a9.43 9.43 0 0 1-.164-.667c-.122-.553-.208-.893-.442-.929-2.721-.417-3.5-.986-3.674-1.39A.518.518 0 0 1 0 21.046a.305.305 0 0 1 .257-.317c4.183-.684 6.059-4.93 6.137-5.11a.584.584 0 0 1 .006-.014c.257-.516.307-.963.15-1.33-.287-.671-1.223-.966-1.843-1.162-.152-.047-.296-.092-.409-.137-1.237-.485-1.34-.983-1.291-1.237.083-.433.665-.735 1.136-.735.13 0 .243.023.339.067.556.26 1.058.39 1.49.39.598 0 .859-.25.89-.282-.014-.281-.033-.575-.052-.878-.125-1.963-.28-4.403.346-5.796C9.032.33 13.008.005 14.183.005L14.697 0h.07c1.177 0 5.162.325 7.039 4.502.625 1.394.47 3.836.346 5.798l-.005.086c-.018.273-.034.538-.048.793.03.03.27.26.811.28h.001c.412-.016.885-.146 1.405-.388.152-.07.321-.085.436-.085.176 0 .354.034.502.095l.009.004c.42.148.695.44.701.745.006.288-.215.72-1.3 1.146-.113.044-.257.09-.409.137-.62.196-1.556.491-1.843 1.163-.157.366-.107.813.149 1.328l.007.015c.078.18 1.952 4.425 6.137 5.11a.305.305 0 0 1 .256.317.506.506 0 0 1-.042.174c-.173.4-.951.969-3.673 1.386-.223.034-.309.322-.442.925a9.32 9.32 0 0 1-.164.663c-.058.196-.182.289-.39.289h-.033a3.43 3.43 0 0 1-.61-.077 8.18 8.18 0 0 0-1.634-.172c-.384 0-.782.034-1.18.1-.818.134-1.511.62-2.245 1.136-1.067.749-2.168 1.522-3.884 1.522" id="Fill-1" fill="#FEFEFE" mask="url(#mask-2)"/></g></g></g></svg>