<svg width="25" height="29" viewBox="0 0 25 29" version="1.1" xmlns="http://www.w3.org/2000/svg"><title>Page 1 Copy 8</title><g id="Page-1" stroke="none" stroke-width="1" fill="none" fill-rule="evenodd" opacity=".35"><g id="Desktop_Cycle-My-Cell" transform="translate(-431 -1706)"><g id="Group-6" transform="translate(361 1676)"><g id="Page-1-Copy-8" transform="translate(70 30)"><path d="M0 22.01A2.994 2.994 0 0 0 2.99 25h19.02A2.994 2.994 0 0 0 25 22.01V2.99A2.994 2.994 0 0 0 22.01 0H2.99A2.994 2.994 0 0 0 0 2.99v19.02z" id="Fill-1" fill="#35353B"/><path id="Triangle" fill="#35353B" d="M9 25h7l-3.5 4z"/><path d="M9.601 18.85c5.897 0 9.121-4.886 9.121-9.122 0-.139-.002-.277-.009-.414a6.521 6.521 0 0 0 1.6-1.66 6.4 6.4 0 0 1-1.841.505 3.217 3.217 0 0 0 1.41-1.774 6.423 6.423 0 0 1-2.036.778 3.206 3.206 0 0 0-5.463 2.924 9.101 9.101 0 0 1-6.608-3.35 3.203 3.203 0 0 0 .992 4.28 3.182 3.182 0 0 1-1.452-.4v.04A3.207 3.207 0 0 0 7.887 13.8a3.215 3.215 0 0 1-1.448.055 3.21 3.21 0 0 0 2.995 2.227 6.433 6.433 0 0 1-4.747 1.327 9.075 9.075 0 0 0 4.914 1.44" id="Fill-2" fill="#FFF"/></g></g></g></g></svg>