<?xml version="1.0" encoding="utf-8"?>
<!-- Generator: Adobe Illustrator 21.0.0, SVG Export Plug-In . SVG Version: 6.00 Build 0)  -->
<svg version="1.1" id="Layer_1" xmlns="http://www.w3.org/2000/svg" xmlns:xlink="http://www.w3.org/1999/xlink" x="0px" y="0px"
	 viewBox="0 0 150 150" style="enable-background:new 0 0 150 150;" xml:space="preserve">
<style type="text/css">
	.st0{fill:none;stroke:#EFC307;stroke-width:2.5;stroke-miterlimit:10;}
	.st1{fill:none;stroke:#35353B;stroke-width:2.5;stroke-linecap:round;stroke-linejoin:round;stroke-miterlimit:10;}
	.st2{fill:none;stroke:#6B851C;stroke-width:2.5;stroke-linecap:round;stroke-linejoin:round;stroke-miterlimit:10;}
	.st3{fill:none;stroke:#936A21;stroke-width:2.5;stroke-linecap:round;stroke-linejoin:round;stroke-miterlimit:10;}
	.st4{fill:#35353B;}
	.st5{fill:none;stroke:#D7D7D7;stroke-width:2.5;stroke-linecap:round;stroke-linejoin:round;stroke-miterlimit:10;}
	.st6{fill:none;stroke:#1D82B4;stroke-width:2.5;stroke-linecap:round;stroke-linejoin:round;stroke-miterlimit:10;}
	.st7{fill:none;stroke:#96CFDB;stroke-width:2.5;stroke-linecap:round;stroke-linejoin:round;stroke-miterlimit:10;}
	.st8{fill:none;stroke:#1D82B4;stroke-width:2.5;stroke-linecap:round;stroke-miterlimit:10;}
	
		.st9{fill-rule:evenodd;clip-rule:evenodd;fill:none;stroke:#000000;stroke-width:2.126;stroke-linecap:round;stroke-linejoin:round;stroke-miterlimit:22.9256;}
	.st10{fill-rule:evenodd;clip-rule:evenodd;fill:none;stroke:#FFD147;stroke-width:2.5;stroke-miterlimit:10;}
	
		.st11{fill-rule:evenodd;clip-rule:evenodd;fill:none;stroke:#35353B;stroke-width:2.5;stroke-linecap:round;stroke-linejoin:round;stroke-miterlimit:10;}
	.st12{fill:none;stroke:#FFD047;stroke-width:2.5;stroke-linecap:round;stroke-linejoin:round;stroke-miterlimit:10;}
	.st13{fill:none;stroke:#FFD047;stroke-width:2.5;stroke-miterlimit:10;}
	.st14{fill:none;stroke:#9BD4EA;stroke-width:2.5;stroke-linecap:round;stroke-miterlimit:10;}
	.st15{fill:none;stroke:#35353B;stroke-width:2.5;stroke-miterlimit:10;}
	
		.st16{fill-rule:evenodd;clip-rule:evenodd;fill:none;stroke:#000000;stroke-width:2.5;stroke-linecap:round;stroke-linejoin:round;stroke-miterlimit:22.9256;}
	.st17{fill:#EFC307;}
	.st18{fill:#FFFFFF;}
	.st19{fill:none;stroke:#BE6054;stroke-width:2.5;stroke-linecap:round;stroke-linejoin:round;stroke-miterlimit:10;}
	
		.st20{fill-rule:evenodd;clip-rule:evenodd;fill:none;stroke:#BE6054;stroke-width:2.5;stroke-linecap:round;stroke-linejoin:round;stroke-miterlimit:10;}
	
		.st21{fill-rule:evenodd;clip-rule:evenodd;fill:none;stroke:#936A21;stroke-width:2.5;stroke-linecap:round;stroke-linejoin:round;stroke-miterlimit:10;}
	.st22{fill:#BE6054;}
	.st23{fill:#C49F05;}
	.st24{fill:#FFE576;}
	.st25{fill:#FFD000;}
	.st26{fill:none;stroke:#35353B;stroke-linecap:round;stroke-linejoin:round;stroke-miterlimit:10;}
	.st27{fill:none;stroke:#FFD000;stroke-width:2.5;stroke-linecap:round;stroke-linejoin:round;stroke-miterlimit:10;}
	.st28{fill:none;stroke:#D6D0B7;stroke-width:2.5;stroke-linecap:round;stroke-linejoin:round;stroke-miterlimit:10;}
	.st29{fill:none;stroke:#614929;stroke-width:2.5;stroke-linecap:round;stroke-linejoin:round;stroke-miterlimit:10;}
	.st30{fill:none;stroke:#817237;stroke-width:2.5;stroke-linecap:round;stroke-linejoin:round;stroke-miterlimit:10;}
	.st31{fill:none;stroke:#EFC307;stroke-width:2.5;stroke-linecap:round;stroke-linejoin:round;stroke-miterlimit:10;}
	
		.st32{fill-rule:evenodd;clip-rule:evenodd;fill:none;stroke:#6B851C;stroke-width:2.5;stroke-linecap:round;stroke-linejoin:round;stroke-miterlimit:10;}
</style>
<g>
	<g>
		<g>
			<path class="st1" d="M100.4,141c2.9-3.4,9.4-8.9,22.9-13.4c6.7-3.2,8.7-9.3,11.2-14.8c3.9-8.6,4.8-13,3.9-15.5
				c0,0-2.1-4.1-5.8-1.4c-3.7,2.6-7.5,12.2-7.5,12.2s-3.1,6.3-4.9,7.6c-1.8,1.3-14.6,5.2-16.1,4.8c-1.4-0.4-5.8-1.4-1.7-5.7
				c4.1-4.3,17-7.5,17.8-10.8c0.8-3.3-1.6-5.7-3-6c-1.4-0.4-6.5,1.9-6.5,1.9s-11.5,4.2-15.6,8.4c-3.8,4-10.2,13.3-14.4,27.9
				C80.4,137.3,98.7,143,100.4,141L100.4,141z"/>
			<path class="st1" d="M49.6,141c-2.9-3.4-9.4-8.9-22.9-13.4c-6.7-3.2-8.7-9.3-11.2-14.8c-3.9-8.6-4.8-13-3.9-15.5
				c0,0,2.1-4.1,5.8-1.4c3.7,2.6,7.5,12.2,7.5,12.2s3.1,6.3,4.9,7.6c1.8,1.3,14.6,5.2,16.1,4.8c1.4-0.4,5.8-1.4,1.7-5.7
				c-4.1-4.3-17-7.5-17.8-10.8c-0.8-3.3,1.6-5.7,3-6c1.4-0.4,6.5,1.9,6.5,1.9s11.5,4.2,15.6,8.4c3.8,4,10.2,13.3,14.4,27.9
				C69.6,137.3,51.3,143,49.6,141L49.6,141z"/>
		</g>
	</g>
	<g>
		<g>
			<path class="st6" d="M60.6,72.7c-6,10.8,1,24.5,13.3,25.2c0.4,0,0.7,0,1.1,0s0.7,0,1.1,0c12.3-0.7,19.4-14.5,13.3-25.2L75,46.9
				L60.6,72.7z"/>
			<path class="st7" d="M64.3,81.8c1,3.7,3.2,7,6.3,9.3"/>
		</g>
		<g>
			<path class="st6" d="M44.8,33.5c-3.7,6.6,0.6,15.1,8.2,15.5c0.2,0,0.4,0,0.7,0c0.2,0,0.4,0,0.7,0c7.6-0.4,11.9-8.9,8.2-15.5
				l-8.9-15.9L44.8,33.5z"/>
		</g>
		<g>
			<path class="st6" d="M86.1,19.6c-2.6,4.6,0.4,10.5,5.7,10.8c0.2,0,0.3,0,0.5,0c0.2,0,0.3,0,0.5,0c5.3-0.3,8.3-6.2,5.7-10.8
				L92.3,8.6L86.1,19.6z"/>
		</g>
	</g>
</g>
</svg>
