<?xml version="1.0" encoding="utf-8"?>
<!-- Generator: Adobe Illustrator 21.0.0, SVG Export Plug-In . SVG Version: 6.00 Build 0)  -->
<svg version="1.1" id="Layer_1" xmlns="http://www.w3.org/2000/svg" xmlns:xlink="http://www.w3.org/1999/xlink" x="0px" y="0px"
	 viewBox="0 0 150 150" style="enable-background:new 0 0 150 150;" xml:space="preserve">
<style type="text/css">
	.st0{fill:none;stroke:#EFC307;stroke-width:2.5;stroke-miterlimit:10;}
	.st1{fill:none;stroke:#35353B;stroke-width:2.5;stroke-linecap:round;stroke-linejoin:round;stroke-miterlimit:10;}
	.st2{fill:none;stroke:#6B851C;stroke-width:2.5;stroke-linecap:round;stroke-linejoin:round;stroke-miterlimit:10;}
	.st3{fill:none;stroke:#936A21;stroke-width:2.5;stroke-linecap:round;stroke-linejoin:round;stroke-miterlimit:10;}
	.st4{fill:#35353B;}
	.st5{fill:none;stroke:#D7D7D7;stroke-width:2.5;stroke-linecap:round;stroke-linejoin:round;stroke-miterlimit:10;}
	.st6{fill:none;stroke:#1D82B4;stroke-width:2.5;stroke-linecap:round;stroke-linejoin:round;stroke-miterlimit:10;}
	.st7{fill:none;stroke:#96CFDB;stroke-width:2.5;stroke-linecap:round;stroke-linejoin:round;stroke-miterlimit:10;}
	.st8{fill:none;stroke:#1D82B4;stroke-width:2.5;stroke-linecap:round;stroke-miterlimit:10;}
	
		.st9{fill-rule:evenodd;clip-rule:evenodd;fill:none;stroke:#000000;stroke-width:2.126;stroke-linecap:round;stroke-linejoin:round;stroke-miterlimit:22.9256;}
	.st10{fill-rule:evenodd;clip-rule:evenodd;fill:none;stroke:#FFD147;stroke-width:2.5;stroke-miterlimit:10;}
	
		.st11{fill-rule:evenodd;clip-rule:evenodd;fill:none;stroke:#35353B;stroke-width:2.5;stroke-linecap:round;stroke-linejoin:round;stroke-miterlimit:10;}
	.st12{fill:none;stroke:#FFD047;stroke-width:2.5;stroke-linecap:round;stroke-linejoin:round;stroke-miterlimit:10;}
	.st13{fill:none;stroke:#FFD047;stroke-width:2.5;stroke-miterlimit:10;}
	.st14{fill:none;stroke:#9BD4EA;stroke-width:2.5;stroke-linecap:round;stroke-miterlimit:10;}
	.st15{fill:none;stroke:#35353B;stroke-width:2.5;stroke-miterlimit:10;}
	
		.st16{fill-rule:evenodd;clip-rule:evenodd;fill:none;stroke:#000000;stroke-width:2.5;stroke-linecap:round;stroke-linejoin:round;stroke-miterlimit:22.9256;}
	.st17{fill:#EFC307;}
	.st18{fill:#FFFFFF;}
	.st19{fill:none;stroke:#BE6054;stroke-width:2.5;stroke-linecap:round;stroke-linejoin:round;stroke-miterlimit:10;}
	
		.st20{fill-rule:evenodd;clip-rule:evenodd;fill:none;stroke:#BE6054;stroke-width:2.5;stroke-linecap:round;stroke-linejoin:round;stroke-miterlimit:10;}
	
		.st21{fill-rule:evenodd;clip-rule:evenodd;fill:none;stroke:#936A21;stroke-width:2.5;stroke-linecap:round;stroke-linejoin:round;stroke-miterlimit:10;}
	.st22{fill:#BE6054;}
	.st23{fill:#C49F05;}
	.st24{fill:#FFE576;}
	.st25{fill:#FFD000;}
	.st26{fill:none;stroke:#35353B;stroke-linecap:round;stroke-linejoin:round;stroke-miterlimit:10;}
	.st27{fill:none;stroke:#FFD000;stroke-width:2.5;stroke-linecap:round;stroke-linejoin:round;stroke-miterlimit:10;}
	.st28{fill:none;stroke:#D6D0B7;stroke-width:2.5;stroke-linecap:round;stroke-linejoin:round;stroke-miterlimit:10;}
	.st29{fill:none;stroke:#614929;stroke-width:2.5;stroke-linecap:round;stroke-linejoin:round;stroke-miterlimit:10;}
	.st30{fill:none;stroke:#817237;stroke-width:2.5;stroke-linecap:round;stroke-linejoin:round;stroke-miterlimit:10;}
	.st31{fill:none;stroke:#EFC307;stroke-width:2.5;stroke-linecap:round;stroke-linejoin:round;stroke-miterlimit:10;}
	
		.st32{fill-rule:evenodd;clip-rule:evenodd;fill:none;stroke:#6B851C;stroke-width:2.5;stroke-linecap:round;stroke-linejoin:round;stroke-miterlimit:10;}
</style>
<g>
	<path class="st16" d="M21.1,76.5l-10.8,3.9C9.5,80.8,8,82,7.8,83L5.7,96.9"/>
	<path class="st16" d="M131.7,61.6c0.3,2.9-0.4,9.9-1.7,12.5c-1.2,2.3-4,4.5-7.1,5.3c-1.4,0.2-2,0.2-3.4,0c-3.1-0.8-5.9-3-7.1-5.3
		c-1.4-2.6-2-9.6-1.7-12.5C111.7,50.3,130.7,50.3,131.7,61.6L131.7,61.6z"/>
	<path class="st16" d="M113.5,76.5l-10.8,3.9c-0.7,0.4-2.2,1.6-2.4,2.6l-2.2,13.9L95.9,83c-0.2-1-1.7-2.2-2.4-2.6l-10.8-3.9"/>
	<path class="st16" d="M144.3,96.9L142.2,83c-0.2-1-1.7-2.2-2.4-2.6l-10.8-3.9"/>
	<path class="st16" d="M85.5,61.6c0.3,2.9-0.4,9.9-1.7,12.5c-1.2,2.3-4,4.5-7.1,5.3c-1.4,0.2-2,0.2-3.4,0c-3.1-0.8-5.9-3-7.1-5.3
		c-1.4-2.6-2-9.6-1.7-12.5C65.5,50.3,84.5,50.3,85.5,61.6L85.5,61.6z"/>
	<path class="st16" d="M67.3,76.5l-10.8,3.9c-0.7,0.4-2.2,1.6-2.4,2.6l-2.2,13.9L49.7,83c-0.2-1-1.7-2.2-2.4-2.6l-10.8-3.9"/>
	<path class="st16" d="M39.3,61.6c0.3,2.9-0.4,9.9-1.7,12.5c-1.2,2.3-4,4.5-7.1,5.3c-1.4,0.2-2,0.2-3.4,0c-3.1-0.8-5.9-3-7.1-5.3
		c-1.4-2.6-2-9.6-1.7-12.5C19.3,50.3,38.3,50.3,39.3,61.6L39.3,61.6z"/>
</g>
</svg>
