<?xml version="1.0" encoding="UTF-8"?>
<!-- Generator: Adobe Illustrator 21.0.0, SVG Export Plug-In . SVG Version: 6.00 Build 0)  -->
<svg version="1.1" id="Layer_1" xmlns="http://www.w3.org/2000/svg" xmlns:xlink="http://www.w3.org/1999/xlink" x="0px" y="0px" viewBox="0 0 150 150" style="enable-background:new 0 0 150 150;" xml:space="preserve">
<style type="text/css">
	.st0{fill:none;stroke:#EFC307;stroke-width:2.5;stroke-miterlimit:10;}
	.st1{fill:none;stroke:#35353B;stroke-width:2.5;stroke-linecap:round;stroke-linejoin:round;stroke-miterlimit:10;}
	.st2{fill:none;stroke:#6B851C;stroke-width:2.5;stroke-linecap:round;stroke-linejoin:round;stroke-miterlimit:10;}
	.st3{fill:none;stroke:#936A21;stroke-width:2.5;stroke-linecap:round;stroke-linejoin:round;stroke-miterlimit:10;}
	.st4{fill:#35353B;}
	.st5{fill:none;stroke:#D7D7D7;stroke-width:2.5;stroke-linecap:round;stroke-linejoin:round;stroke-miterlimit:10;}
	.st6{fill:none;stroke:#1D82B4;stroke-width:2.5;stroke-linecap:round;stroke-linejoin:round;stroke-miterlimit:10;}
	.st7{fill:none;stroke:#96CFDB;stroke-width:2.5;stroke-linecap:round;stroke-linejoin:round;stroke-miterlimit:10;}
	.st8{fill:none;stroke:#1D82B4;stroke-width:2.5;stroke-linecap:round;stroke-miterlimit:10;}
	
		.st9{fill-rule:evenodd;clip-rule:evenodd;fill:none;stroke:#000000;stroke-width:2.126;stroke-linecap:round;stroke-linejoin:round;stroke-miterlimit:22.9256;}
	.st10{fill-rule:evenodd;clip-rule:evenodd;fill:none;stroke:#FFD147;stroke-width:2.5;stroke-miterlimit:10;}
	
		.st11{fill-rule:evenodd;clip-rule:evenodd;fill:none;stroke:#35353B;stroke-width:2.5;stroke-linecap:round;stroke-linejoin:round;stroke-miterlimit:10;}
	.st12{fill:none;stroke:#FFD047;stroke-width:2.5;stroke-linecap:round;stroke-linejoin:round;stroke-miterlimit:10;}
	.st13{fill:none;stroke:#FFD047;stroke-width:2.5;stroke-miterlimit:10;}
	.st14{fill:none;stroke:#9BD4EA;stroke-width:2.5;stroke-linecap:round;stroke-miterlimit:10;}
	.st15{fill:none;stroke:#35353B;stroke-width:2.5;stroke-miterlimit:10;}
	
		.st16{fill-rule:evenodd;clip-rule:evenodd;fill:none;stroke:#000000;stroke-width:2.5;stroke-linecap:round;stroke-linejoin:round;stroke-miterlimit:22.9256;}
	.st17{fill:#EFC307;}
	.st18{fill:#FFFFFF;}
	.st19{fill:none;stroke:#BE6054;stroke-width:2.5;stroke-linecap:round;stroke-linejoin:round;stroke-miterlimit:10;}
	
		.st20{fill-rule:evenodd;clip-rule:evenodd;fill:none;stroke:#BE6054;stroke-width:2.5;stroke-linecap:round;stroke-linejoin:round;stroke-miterlimit:10;}
	
		.st21{fill-rule:evenodd;clip-rule:evenodd;fill:none;stroke:#936A21;stroke-width:2.5;stroke-linecap:round;stroke-linejoin:round;stroke-miterlimit:10;}
	.st22{fill:#BE6054;}
	.st23{fill:#C49F05;}
	.st24{fill:#FFE576;}
	.st25{fill:#FFD000;}
	.st26{fill:none;stroke:#35353B;stroke-linecap:round;stroke-linejoin:round;stroke-miterlimit:10;}
	.st27{fill:none;stroke:#FFD000;stroke-width:2.5;stroke-linecap:round;stroke-linejoin:round;stroke-miterlimit:10;}
	.st28{fill:none;stroke:#D6D0B7;stroke-width:2.5;stroke-linecap:round;stroke-linejoin:round;stroke-miterlimit:10;}
	.st29{fill:none;stroke:#614929;stroke-width:2.5;stroke-linecap:round;stroke-linejoin:round;stroke-miterlimit:10;}
	.st30{fill:none;stroke:#817237;stroke-width:2.5;stroke-linecap:round;stroke-linejoin:round;stroke-miterlimit:10;}
	.st31{fill:none;stroke:#EFC307;stroke-width:2.5;stroke-linecap:round;stroke-linejoin:round;stroke-miterlimit:10;}
	
		.st32{fill-rule:evenodd;clip-rule:evenodd;fill:none;stroke:#6B851C;stroke-width:2.5;stroke-linecap:round;stroke-linejoin:round;stroke-miterlimit:10;}
</style>
<g>
	<path class="st3" d="M54.1,71v27.2c0,2.3-0.9,4.6-2.6,6.2l-18.1,17.8c-3.5,3.4-3.5,9,0,12.4l0,0c3.5,3.4,9.1,3.4,12.5,0l23.4-23.1   c1.7-1.6,2.6-3.9,2.6-6.2V87.1"/>
	<path class="st3" d="M105,114.8v14.8c0,4.9-4,8.8-8.9,8.8H63.6c-4.9,0-8.9-3.9-8.9-8.8v0c0-4.8,4-8.8,8.9-8.8H88v-17.2   c0-9,7.4-16.3,16.4-16.3h1"/>
	<path class="st3" d="M37.4,56.6C31.7,52,28,44.9,28,37c0-14,11.5-25.4,25.7-25.4C68,11.5,79.5,22.9,79.5,37c0,7.9-3.6,15-9.4,19.6    M29.6,45.7c-1,0.4-2.1,0.6-3.2,0.6c-5.2,0-9.4-4.2-9.4-9.3c0-5.1,4.2-9.3,9.4-9.3c1.2,0,2.3,0.2,3.3,0.6 M78,28.3   c1-0.4,2.1-0.6,3.2-0.6c5.2,0,9.4,4.1,9.4,9.3c0,5.1-4.2,9.3-9.4,9.3c-1.1,0-2.2-0.2-3.2-0.6"/>
	<path class="st3" d="M53.8,37.2c-5.8,0-11.4-1.3-16.3-3.5l0,12.6v8.6c0,8.9,7.3,16.1,16.3,16.1s16.3-7.2,16.3-16.1v-8.6l0-12.6   C65.1,35.9,59.6,37.2,53.8,37.2L53.8,37.2z M132.8,97.3c-2.2-28.1-25.7-50.4-54.6-51 M131.7,114.5L131.7,114.5   c-5.7,14.1-19.5,24-35.8,24 M132.8,97.3c0,0,1.1,11.4-1.1,17.2"/>
</g>
</svg>